  0
SECTION
  2
HEADER
  9
$ACADVER
  1
AC1009
  9
$INSBASE
 10
0.0
 20
0.0
 30
0.0
  9
$EXTMIN
 10
0.0
 20
0.0
 30
0.0
  9
$EXTMAX
 10
100.0
 20
100.0
 30
0.0
  9
$UNITMODE
 70
0
  9
$AUNITS
 70
0
  9
$ANGBASE
 50
0.0
  9
$ANGDIR
 70
0
  0
ENDSEC
  0
SECTION
  2
TABLES
  0
TABLE
  2
LTYPE
 70
19
  0
LTYPE
  2
CONTINUOUS
 70
0
  3
Solid
 72
65
 73
0
 40
0.0
  0
LTYPE
  2
CENTER
 70
0
  3
Center ____ _ ____ _ ____ _ ____ _ ____ _ ____
 72
65
 73
4
 40
2.0
 49
1.25
 49
-0.25
 49
0.25
 49
-0.25
  0
LTYPE
  2
CENTERX2
 70
0
  3
Center (2x) ________  __  ________  __  ________
 72
65
 73
4
 40
3.5
 49
2.5
 49
-0.25
 49
0.5
 49
-0.25
  0
LTYPE
  2
CENTER2
 70
0
  3
Center (.5x) ____ _ ____ _ ____ _ ____ _ ____
 72
65
 73
4
 40
1.0
 49
0.625
 49
-0.125
 49
0.125
 49
-0.125
  0
LTYPE
  2
DASHED
 70
0
  3
Dashed __ __ __ __ __ __ __ __ __ __ __ __ __ _
 72
65
 73
2
 40
0.6
 49
0.5
 49
-0.1
  0
LTYPE
  2
DASHEDX2
 70
0
  3
Dashed (2x) ____  ____  ____  ____  ____  ____
 72
65
 73
2
 40
1.2
 49
1.0
 49
-0.2
  0
LTYPE
  2
DASHED2
 70
0
  3
Dashed (.5x) _ _ _ _ _ _ _ _ _ _ _ _ _ _
 72
65
 73
2
 40
0.3
 49
0.25
 49
-0.05
  0
LTYPE
  2
PHANTOM
 70
0
  3
Phantom ______  __  __  ______  __  __  ______
 72
65
 73
6
 40
2.5
 49
1.25
 49
-0.25
 49
0.25
 49
-0.25
 49
0.25
 49
-0.25
  0
LTYPE
  2
PHANTOMX2
 70
0
  3
Phantom (2x)____________    ____    ____    ____________
 72
65
 73
6
 40
4.25
 49
2.5
 49
-0.25
 49
0.5
 49
-0.25
 49
0.5
 49
-0.25
  0
LTYPE
  2
PHANTOM2
 70
0
  3
Phantom (.5x) ___ _ _ ___ _ _ ___ _ _ ___ _ _ ___
 72
65
 73
6
 40
1.25
 49
0.625
 49
-0.125
 49
0.125
 49
-0.125
 49
0.125
 49
-0.125
  0
LTYPE
  2
DASHDOT
 70
0
  3
Dash dot __ . __ . __ . __ . __ . __ . __ . __
 72
65
 73
4
 40
1.4
 49
1.0
 49
-0.2
 49
0.0
 49
-0.2
  0
LTYPE
  2
DASHDOTX2
 70
0
  3
Dash dot (2x) ____  .  ____  .  ____  .  ____
 72
65
 73
4
 40
2.4
 49
2.0
 49
-0.2
 49
0.0
 49
-0.2
  0
LTYPE
  2
DASHDOT2
 70
0
  3
Dash dot (.5x) _ . _ . _ . _ . _ . _ . _ . _
 72
65
 73
4
 40
0.7
 49
0.5
 49
-0.1
 49
0.0
 49
-0.1
  0
LTYPE
  2
DOT
 70
0
  3
Dot .  .  .  .  .  .  .  .  .  .  .  .  .  .  .  .
 72
65
 73
2
 40
0.2
 49
0.0
 49
-0.2
  0
LTYPE
  2
DOTX2
 70
0
  3
Dot (2x) .    .    .    .    .    .    .    . 
 72
65
 73
2
 40
0.4
 49
0.0
 49
-0.4
  0
LTYPE
  2
DOT2
 70
0
  3
Dot (.5) . . . . . . . . . . . . . . . . . . . 
 72
65
 73
2
 40
0.1
 49
0.0
 49
-0.1
  0
LTYPE
  2
DIVIDE
 70
0
  3
Divide __ . . __ . . __ . . __ . . __ . . __
 72
65
 73
6
 40
1.6
 49
1.0
 49
-0.2
 49
0.0
 49
-0.2
 49
0.0
 49
-0.2
  0
LTYPE
  2
DIVIDEX2
 70
0
  3
Divide (2x) ____  . .  ____  . .  ____  . .  ____
 72
65
 73
6
 40
2.6
 49
2.0
 49
-0.2
 49
0.0
 49
-0.2
 49
0.0
 49
-0.2
  0
LTYPE
  2
DIVIDE2
 70
0
  3
Divide(.5x) _ . _ . _ . _ . _ . _ . _ . _
 72
65
 73
6
 40
0.8
 49
0.5
 49
-0.1
 49
0.0
 49
-0.1
 49
0.0
 49
-0.1
  0
ENDTAB
  0
TABLE
  2
LAYER
 70
5
  0
LAYER
  2
DIMENSIONS
 70
0
 62
1
  6
CONTINUOUS
  0
LAYER
  2
TABLEBACKGROUND
 70
0
 62
1
  6
CONTINUOUS
  0
LAYER
  2
TABLECONTENT
 70
0
 62
1
  6
CONTINUOUS
  0
LAYER
  2
TABLEGRID
 70
0
 62
1
  6
CONTINUOUS
  0
LAYER
  2
VIEWPORTS
 70
0
 62
7
  6
CONTINUOUS
  0
ENDTAB
  0
TABLE
  2
STYLE
 70
12
  0
STYLE
  2
STANDARD
 70
0
 40
0.0
 41
1.0
 42
1.0
 50
0.0
 71
0
  3
arial.ttf
  4

  0
STYLE
  2
ARIAL
 70
0
 40
0.0
 41
1.0
 42
1.0
 50
0.0
 71
0
  3
arial.ttf
  4

  0
STYLE
  2
ARIAL_BOLD
 70
0
 40
0.0
 41
1.0
 42
1.0
 50
0.0
 71
0
  3
arialbd.ttf
  4

  0
STYLE
  2
ARIAL_ITALIC
 70
0
 40
0.0
 41
1.0
 42
1.0
 50
0.0
 71
0
  3
ariali.ttf
  4

  0
STYLE
  2
ARIAL_BOLD_ITALIC
 70
0
 40
0.0
 41
1.0
 42
1.0
 50
0.0
 71
0
  3
arialbi.ttf
  4

  0
STYLE
  2
ARIAL_BLACK
 70
0
 40
0.0
 41
1.0
 42
1.0
 50
0.0
 71
0
  3
ariblk.ttf
  4

  0
STYLE
  2
ISOCPEUR
 70
0
 40
0.0
 41
1.0
 42
1.0
 50
0.0
 71
0
  3
isocpeur.ttf
  4

  0
STYLE
  2
ISOCPEUR_ITALIC
 70
0
 40
0.0
 41
1.0
 42
1.0
 50
0.0
 71
0
  3
isocpeui.ttf
  4

  0
STYLE
  2
TIMES
 70
0
 40
0.0
 41
1.0
 42
1.0
 50
0.0
 71
0
  3
times.ttf
  4

  0
STYLE
  2
TIMES_BOLD
 70
0
 40
0.0
 41
1.0
 42
1.0
 50
0.0
 71
0
  3
timesbd.ttf
  4

  0
STYLE
  2
TIMES_ITALIC
 70
0
 40
0.0
 41
1.0
 42
1.0
 50
0.0
 71
0
  3
timesi.ttf
  4

  0
STYLE
  2
TIMES_BOLD_ITALIC
 70
0
 40
0.0
 41
1.0
 42
1.0
 50
0.0
 71
0
  3
timesbi.ttf
  4

  0
ENDTAB
  0
TABLE
  2
VIEW
 70
0
  0
ENDTAB
  0
TABLE
  2
APPID
 70
1
  0
APPID
  2
DXFWRITE
 70
0
  0
ENDTAB
  0
TABLE
  2
VPORT
 70
0
  0
ENDTAB
  0
TABLE
  2
UCS
 70
0
  0
ENDTAB
  0
ENDSEC
  0
SECTION
  2
BLOCKS
  0
ENDSEC
  0
SECTION
  2
ENTITIES
  0
VIEWPORT
  8
VIEWPORTS
 67
1
 10
0.0
 20
0.0
 30
0.0
 40
1.0
 41
1.0
 68
1
 69
1
1001
ACAD
1000
MVIEW
1002
{
1070
16
1010
0.0
1020
0.0
1030
0.0
1010
0.0
1020
0.0
1030
0.0
1040
0.0
1040
1.0
1040
0.0
1040
0.0
1040
50.0
1040
0.0
1040
0.0
1070
0
1070
100
1070
1
1070
3
1070
0
1070
0
1070
0
1070
0
1040
0.0
1040
0.0
1040
0.0
1040
0.1
1040
0.1
1040
0.1
1040
0.1
1070
0
1002
{
1002
}
1002
}
  0
POLYLINE
  6
DOT
  8
0
 66
1
 10
0.0
 20
0.0
 30
0.0
 70
8
  0
VERTEX
  8
0
 10
4.28
 20
11.12
 30
0.0
  0
VERTEX
  8
0
 10
4.2876267200000004
 20
11.0114097
 30
0.0
  0
VERTEX
  8
0
 10
4.29613376
 20
10.9028536
 30
0.0
  0
VERTEX
  8
0
 10
4.30556144
 20
10.7943539
 30
0.0
  0
VERTEX
  8
0
 10
4.3159500799999995
 20
10.685932799999998
 30
0.0
  0
VERTEX
  8
0
 10
4.3273399999999995
 20
10.577612499999997
 30
0.0
  0
VERTEX
  8
0
 10
4.339771519999999
 20
10.469415199999998
 30
0.0
  0
VERTEX
  8
0
 10
4.35328496
 20
10.361363099999998
 30
0.0
  0
VERTEX
  8
0
 10
4.367920640000001
 20
10.253478399999999
 30
0.0
  0
VERTEX
  8
0
 10
4.383718880000001
 20
10.1457833
 30
0.0
  0
VERTEX
  8
0
 10
4.400720000000001
 20
10.038300000000001
 30
0.0
  0
VERTEX
  8
0
 10
4.418964320000001
 20
9.931050700000002
 30
0.0
  0
VERTEX
  8
0
 10
4.438492159999999
 20
9.824057599999998
 30
0.0
  0
VERTEX
  8
0
 10
4.45934384
 20
9.7173429
 30
0.0
  0
VERTEX
  8
0
 10
4.48155968
 20
9.6109288
 30
0.0
  0
VERTEX
  8
0
 10
4.505179999999999
 20
9.5048375
 30
0.0
  0
VERTEX
  8
0
 10
4.530245119999999
 20
9.399091199999999
 30
0.0
  0
VERTEX
  8
0
 10
4.55679536
 20
9.293712099999999
 30
0.0
  0
VERTEX
  8
0
 10
4.58487104
 20
9.188722400000001
 30
0.0
  0
VERTEX
  8
0
 10
4.614512480000001
 20
9.0841443
 30
0.0
  0
VERTEX
  8
0
 10
4.645760000000001
 20
8.980000000000004
 30
0.0
  0
VERTEX
  8
0
 10
4.67865392
 20
8.876311700000002
 30
0.0
  0
VERTEX
  8
0
 10
4.71323456
 20
8.7731016
 30
0.0
  0
VERTEX
  8
0
 10
4.74954224
 20
8.6703919
 30
0.0
  0
VERTEX
  8
0
 10
4.78761728
 20
8.5682048
 30
0.0
  0
VERTEX
  8
0
 10
4.8275
 20
8.4665625
 30
0.0
  0
VERTEX
  8
0
 10
4.869230720000001
 20
8.3654872
 30
0.0
  0
VERTEX
  8
0
 10
4.912849759999999
 20
8.2650011
 30
0.0
  0
VERTEX
  8
0
 10
4.95839744
 20
8.165126399999998
 30
0.0
  0
VERTEX
  8
0
 10
5.005914079999999
 20
8.065885299999998
 30
0.0
  0
VERTEX
  8
0
 10
5.055439999999999
 20
7.967299999999999
 30
0.0
  0
VERTEX
  8
0
 10
5.10701552
 20
7.869392699999999
 30
0.0
  0
VERTEX
  8
0
 10
5.16068096
 20
7.772185599999998
 30
0.0
  0
VERTEX
  8
0
 10
5.216476639999999
 20
7.675700899999998
 30
0.0
  0
VERTEX
  8
0
 10
5.274442879999999
 20
7.579960799999998
 30
0.0
  0
VERTEX
  8
0
 10
5.33462
 20
7.4849875
 30
0.0
  0
VERTEX
  8
0
 10
5.39704832
 20
7.3908032000000015
 30
0.0
  0
VERTEX
  8
0
 10
5.46176816
 20
7.2974301000000015
 30
0.0
  0
VERTEX
  8
0
 10
5.528819840000001
 20
7.204890399999999
 30
0.0
  0
VERTEX
  8
0
 10
5.5982436799999995
 20
7.113206299999999
 30
0.0
  0
VERTEX
  8
0
 10
5.6700800000000005
 20
7.0224
 30
0.0
  0
VERTEX
  8
0
 10
5.74436912
 20
6.932493700000002
 30
0.0
  0
VERTEX
  8
0
 10
5.821151360000001
 20
6.843509600000001
 30
0.0
  0
VERTEX
  8
0
 10
5.9004670400000006
 20
6.7554699000000005
 30
0.0
  0
VERTEX
  8
0
 10
5.982356480000001
 20
6.668396800000002
 30
0.0
  0
VERTEX
  8
0
 10
6.066860000000002
 20
6.582312500000001
 30
0.0
  0
VERTEX
  8
0
 10
6.154017920000001
 20
6.4972392
 30
0.0
  0
VERTEX
  8
0
 10
6.24387056
 20
6.413199100000001
 30
0.0
  0
VERTEX
  8
0
 10
6.336458240000001
 20
6.330214400000001
 30
0.0
  0
VERTEX
  8
0
 10
6.431821279999999
 20
6.2483073000000005
 30
0.0
  0
VERTEX
  8
0
 10
6.53
 20
6.1675
 30
0.0
  0
VERTEX
  8
0
 10
6.63103472
 20
6.087814699999999
 30
0.0
  0
VERTEX
  8
0
 10
6.73496576
 20
6.0092736
 30
0.0
  0
VERTEX
  8
0
 10
6.84183344
 20
5.9318989
 30
0.0
  0
VERTEX
  8
0
 10
6.951678079999999
 20
5.855712799999999
 30
0.0
  0
VERTEX
  8
0
 10
7.064540000000002
 20
5.780737499999999
 30
0.0
  0
VERTEX
  8
0
 10
7.180459520000002
 20
5.706995199999999
 30
0.0
  0
VERTEX
  8
0
 10
7.29947696
 20
5.634508100000001
 30
0.0
  0
VERTEX
  8
0
 10
7.421632639999998
 20
5.5632984
 30
0.0
  0
VERTEX
  8
0
 10
7.54696688
 20
5.4933883
 30
0.0
  0
VERTEX
  8
0
 10
7.675520000000001
 20
5.4248
 30
0.0
  0
VERTEX
  8
0
 10
7.8073323199999995
 20
5.357555699999999
 30
0.0
  0
VERTEX
  8
0
 10
7.94244416
 20
5.291677600000001
 30
0.0
  0
VERTEX
  8
0
 10
8.08089584
 20
5.2271879000000006
 30
0.0
  0
VERTEX
  8
0
 10
8.22272768
 20
5.1641088
 30
0.0
  0
VERTEX
  8
0
 10
8.36798
 20
5.1024625
 30
0.0
  0
VERTEX
  8
0
 10
8.51669312
 20
5.0422712
 30
0.0
  0
VERTEX
  8
0
 10
8.66890736
 20
4.9835571000000005
 30
0.0
  0
VERTEX
  8
0
 10
8.82466304
 20
4.926342399999999
 30
0.0
  0
VERTEX
  8
0
 10
8.984000479999999
 20
4.8706493
 30
0.0
  0
VERTEX
  8
0
 10
9.14696
 20
4.8165000000000004
 30
0.0
  0
VERTEX
  8
0
 10
9.313581919999999
 20
4.763916700000001
 30
0.0
  0
VERTEX
  8
0
 10
9.48390656
 20
4.7129216000000005
 30
0.0
  0
VERTEX
  8
0
 10
9.657974239999998
 20
4.6635368999999995
 30
0.0
  0
VERTEX
  8
0
 10
9.83582528
 20
4.6157848
 30
0.0
  0
VERTEX
  8
0
 10
10.0175
 20
4.5696875
 30
0.0
  0
VERTEX
  8
0
 10
10.203038720000002
 20
4.525267199999999
 30
0.0
  0
VERTEX
  8
0
 10
10.39248176
 20
4.4825461
 30
0.0
  0
VERTEX
  8
0
 10
10.585869440000002
 20
4.4415464
 30
0.0
  0
VERTEX
  8
0
 10
10.78324208
 20
4.402290300000001
 30
0.0
  0
VERTEX
  8
0
 10
10.984640000000002
 20
4.3648
 30
0.0
  0
VERTEX
  8
0
 10
11.190103520000001
 20
4.3290977
 30
0.0
  0
VERTEX
  8
0
 10
11.399672959999998
 20
4.2952056
 30
0.0
  0
VERTEX
  8
0
 10
11.613388639999998
 20
4.2631459000000005
 30
0.0
  0
VERTEX
  8
0
 10
11.83129088
 20
4.2329408
 30
0.0
  0
VERTEX
  8
0
 10
12.05342
 20
4.2046125
 30
0.0
  0
VERTEX
  8
0
 10
12.27981632
 20
4.178183199999999
 30
0.0
  0
VERTEX
  8
0
 10
12.510520159999999
 20
4.153675099999999
 30
0.0
  0
VERTEX
  8
0
 10
12.745571839999998
 20
4.1311104
 30
0.0
  0
VERTEX
  8
0
 10
12.98501168
 20
4.110511300000001
 30
0.0
  0
VERTEX
  8
0
 10
13.228880000000002
 20
4.091900000000001
 30
0.0
  0
VERTEX
  8
0
 10
13.47721712
 20
4.0752987
 30
0.0
  0
VERTEX
  8
0
 10
13.730063359999999
 20
4.060729599999999
 30
0.0
  0
VERTEX
  8
0
 10
13.987459040000001
 20
4.0482149000000005
 30
0.0
  0
VERTEX
  8
0
 10
14.249444479999998
 20
4.0377768000000005
 30
0.0
  0
VERTEX
  8
0
 10
14.516059999999998
 20
4.0294375
 30
0.0
  0
VERTEX
  8
0
 10
14.787345919999998
 20
4.023219200000001
 30
0.0
  0
VERTEX
  8
0
 10
15.06334256
 20
4.0191441
 30
0.0
  0
VERTEX
  8
0
 10
15.344090239999998
 20
4.0172343999999995
 30
0.0
  0
VERTEX
  8
0
 10
15.629629280000001
 20
4.0175123
 30
0.0
  0
SEQEND
  0
ENDSEC
  0
EOF
