  0
SECTION
  2
HEADER
  9
$ACADVER
  1
AC1009
  9
$INSBASE
 10
0.0
 20
0.0
 30
0.0
  9
$EXTMIN
 10
0.0
 20
0.0
 30
0.0
  9
$EXTMAX
 10
100.0
 20
100.0
 30
0.0
  9
$UNITMODE
 70
0
  9
$AUNITS
 70
0
  9
$ANGBASE
 50
0.0
  9
$ANGDIR
 70
0
  0
ENDSEC
  0
SECTION
  2
TABLES
  0
TABLE
  2
LTYPE
 70
19
  0
LTYPE
  2
CONTINUOUS
 70
0
  3
Solid
 72
65
 73
0
 40
0.0
  0
LTYPE
  2
CENTER
 70
0
  3
Center ____ _ ____ _ ____ _ ____ _ ____ _ ____
 72
65
 73
4
 40
2.0
 49
1.25
 49
-0.25
 49
0.25
 49
-0.25
  0
LTYPE
  2
CENTERX2
 70
0
  3
Center (2x) ________  __  ________  __  ________
 72
65
 73
4
 40
3.5
 49
2.5
 49
-0.25
 49
0.5
 49
-0.25
  0
LTYPE
  2
CENTER2
 70
0
  3
Center (.5x) ____ _ ____ _ ____ _ ____ _ ____
 72
65
 73
4
 40
1.0
 49
0.625
 49
-0.125
 49
0.125
 49
-0.125
  0
LTYPE
  2
DASHED
 70
0
  3
Dashed __ __ __ __ __ __ __ __ __ __ __ __ __ _
 72
65
 73
2
 40
0.6
 49
0.5
 49
-0.1
  0
LTYPE
  2
DASHEDX2
 70
0
  3
Dashed (2x) ____  ____  ____  ____  ____  ____
 72
65
 73
2
 40
1.2
 49
1.0
 49
-0.2
  0
LTYPE
  2
DASHED2
 70
0
  3
Dashed (.5x) _ _ _ _ _ _ _ _ _ _ _ _ _ _
 72
65
 73
2
 40
0.3
 49
0.25
 49
-0.05
  0
LTYPE
  2
PHANTOM
 70
0
  3
Phantom ______  __  __  ______  __  __  ______
 72
65
 73
6
 40
2.5
 49
1.25
 49
-0.25
 49
0.25
 49
-0.25
 49
0.25
 49
-0.25
  0
LTYPE
  2
PHANTOMX2
 70
0
  3
Phantom (2x)____________    ____    ____    ____________
 72
65
 73
6
 40
4.25
 49
2.5
 49
-0.25
 49
0.5
 49
-0.25
 49
0.5
 49
-0.25
  0
LTYPE
  2
PHANTOM2
 70
0
  3
Phantom (.5x) ___ _ _ ___ _ _ ___ _ _ ___ _ _ ___
 72
65
 73
6
 40
1.25
 49
0.625
 49
-0.125
 49
0.125
 49
-0.125
 49
0.125
 49
-0.125
  0
LTYPE
  2
DASHDOT
 70
0
  3
Dash dot __ . __ . __ . __ . __ . __ . __ . __
 72
65
 73
4
 40
1.4
 49
1.0
 49
-0.2
 49
0.0
 49
-0.2
  0
LTYPE
  2
DASHDOTX2
 70
0
  3
Dash dot (2x) ____  .  ____  .  ____  .  ____
 72
65
 73
4
 40
2.4
 49
2.0
 49
-0.2
 49
0.0
 49
-0.2
  0
LTYPE
  2
DASHDOT2
 70
0
  3
Dash dot (.5x) _ . _ . _ . _ . _ . _ . _ . _
 72
65
 73
4
 40
0.7
 49
0.5
 49
-0.1
 49
0.0
 49
-0.1
  0
LTYPE
  2
DOT
 70
0
  3
Dot .  .  .  .  .  .  .  .  .  .  .  .  .  .  .  .
 72
65
 73
2
 40
0.2
 49
0.0
 49
-0.2
  0
LTYPE
  2
DOTX2
 70
0
  3
Dot (2x) .    .    .    .    .    .    .    . 
 72
65
 73
2
 40
0.4
 49
0.0
 49
-0.4
  0
LTYPE
  2
DOT2
 70
0
  3
Dot (.5) . . . . . . . . . . . . . . . . . . . 
 72
65
 73
2
 40
0.1
 49
0.0
 49
-0.1
  0
LTYPE
  2
DIVIDE
 70
0
  3
Divide __ . . __ . . __ . . __ . . __ . . __
 72
65
 73
6
 40
1.6
 49
1.0
 49
-0.2
 49
0.0
 49
-0.2
 49
0.0
 49
-0.2
  0
LTYPE
  2
DIVIDEX2
 70
0
  3
Divide (2x) ____  . .  ____  . .  ____  . .  ____
 72
65
 73
6
 40
2.6
 49
2.0
 49
-0.2
 49
0.0
 49
-0.2
 49
0.0
 49
-0.2
  0
LTYPE
  2
DIVIDE2
 70
0
  3
Divide(.5x) _ . _ . _ . _ . _ . _ . _ . _
 72
65
 73
6
 40
0.8
 49
0.5
 49
-0.1
 49
0.0
 49
-0.1
 49
0.0
 49
-0.1
  0
ENDTAB
  0
TABLE
  2
LAYER
 70
5
  0
LAYER
  2
DIMENSIONS
 70
0
 62
1
  6
CONTINUOUS
  0
LAYER
  2
TABLEBACKGROUND
 70
0
 62
1
  6
CONTINUOUS
  0
LAYER
  2
TABLECONTENT
 70
0
 62
1
  6
CONTINUOUS
  0
LAYER
  2
TABLEGRID
 70
0
 62
1
  6
CONTINUOUS
  0
LAYER
  2
VIEWPORTS
 70
0
 62
7
  6
CONTINUOUS
  0
ENDTAB
  0
TABLE
  2
STYLE
 70
12
  0
STYLE
  2
STANDARD
 70
0
 40
0.0
 41
1.0
 42
1.0
 50
0.0
 71
0
  3
arial.ttf
  4

  0
STYLE
  2
ARIAL
 70
0
 40
0.0
 41
1.0
 42
1.0
 50
0.0
 71
0
  3
arial.ttf
  4

  0
STYLE
  2
ARIAL_BOLD
 70
0
 40
0.0
 41
1.0
 42
1.0
 50
0.0
 71
0
  3
arialbd.ttf
  4

  0
STYLE
  2
ARIAL_ITALIC
 70
0
 40
0.0
 41
1.0
 42
1.0
 50
0.0
 71
0
  3
ariali.ttf
  4

  0
STYLE
  2
ARIAL_BOLD_ITALIC
 70
0
 40
0.0
 41
1.0
 42
1.0
 50
0.0
 71
0
  3
arialbi.ttf
  4

  0
STYLE
  2
ARIAL_BLACK
 70
0
 40
0.0
 41
1.0
 42
1.0
 50
0.0
 71
0
  3
ariblk.ttf
  4

  0
STYLE
  2
ISOCPEUR
 70
0
 40
0.0
 41
1.0
 42
1.0
 50
0.0
 71
0
  3
isocpeur.ttf
  4

  0
STYLE
  2
ISOCPEUR_ITALIC
 70
0
 40
0.0
 41
1.0
 42
1.0
 50
0.0
 71
0
  3
isocpeui.ttf
  4

  0
STYLE
  2
TIMES
 70
0
 40
0.0
 41
1.0
 42
1.0
 50
0.0
 71
0
  3
times.ttf
  4

  0
STYLE
  2
TIMES_BOLD
 70
0
 40
0.0
 41
1.0
 42
1.0
 50
0.0
 71
0
  3
timesbd.ttf
  4

  0
STYLE
  2
TIMES_ITALIC
 70
0
 40
0.0
 41
1.0
 42
1.0
 50
0.0
 71
0
  3
timesi.ttf
  4

  0
STYLE
  2
TIMES_BOLD_ITALIC
 70
0
 40
0.0
 41
1.0
 42
1.0
 50
0.0
 71
0
  3
timesbi.ttf
  4

  0
ENDTAB
  0
TABLE
  2
VIEW
 70
0
  0
ENDTAB
  0
TABLE
  2
APPID
 70
1
  0
APPID
  2
DXFWRITE
 70
0
  0
ENDTAB
  0
TABLE
  2
VPORT
 70
0
  0
ENDTAB
  0
TABLE
  2
UCS
 70
0
  0
ENDTAB
  0
ENDSEC
  0
SECTION
  2
BLOCKS
  0
ENDSEC
  0
SECTION
  2
ENTITIES
  0
VIEWPORT
  8
VIEWPORTS
 67
1
 10
0.0
 20
0.0
 30
0.0
 40
1.0
 41
1.0
 68
1
 69
1
1001
ACAD
1000
MVIEW
1002
{
1070
16
1010
0.0
1020
0.0
1030
0.0
1010
0.0
1020
0.0
1030
0.0
1040
0.0
1040
1.0
1040
0.0
1040
0.0
1040
50.0
1040
0.0
1040
0.0
1070
0
1070
100
1070
1
1070
3
1070
0
1070
0
1070
0
1070
0
1040
0.0
1040
0.0
1040
0.0
1040
0.1
1040
0.1
1040
0.1
1040
0.1
1070
0
1002
{
1002
}
1002
}
  0
POLYLINE
  6
DOT
  8
0
 66
1
 10
0.0
 20
0.0
 30
0.0
 70
8
  0
VERTEX
  8
0
 10
5.56
 20
11.98
 30
0.0
  0
VERTEX
  8
0
 10
5.48396464
 20
11.871730719999999
 30
0.0
  0
VERTEX
  8
0
 10
5.41299712
 20
11.764149759999999
 30
0.0
  0
VERTEX
  8
0
 10
5.347005279999999
 20
11.657297439999997
 30
0.0
  0
VERTEX
  8
0
 10
5.285896959999999
 20
11.551214079999996
 30
0.0
  0
VERTEX
  8
0
 10
5.2295799999999995
 20
11.44594
 30
0.0
  0
VERTEX
  8
0
 10
5.177962239999999
 20
11.341515519999998
 30
0.0
  0
VERTEX
  8
0
 10
5.13095152
 20
11.237980959999998
 30
0.0
  0
VERTEX
  8
0
 10
5.08845568
 20
11.135376639999999
 30
0.0
  0
VERTEX
  8
0
 10
5.050382560000001
 20
11.033742880000002
 30
0.0
  0
VERTEX
  8
0
 10
5.016640000000001
 20
10.93312
 30
0.0
  0
VERTEX
  8
0
 10
4.9871358400000005
 20
10.833548320000002
 30
0.0
  0
VERTEX
  8
0
 10
4.961777919999999
 20
10.735068159999999
 30
0.0
  0
VERTEX
  8
0
 10
4.94047408
 20
10.637719839999999
 30
0.0
  0
VERTEX
  8
0
 10
4.92313216
 20
10.54154368
 30
0.0
  0
VERTEX
  8
0
 10
4.90966
 20
10.446579999999999
 30
0.0
  0
VERTEX
  8
0
 10
4.899965439999999
 20
10.352869119999998
 30
0.0
  0
VERTEX
  8
0
 10
4.89395632
 20
10.26045136
 30
0.0
  0
VERTEX
  8
0
 10
4.891540480000001
 20
10.169367040000003
 30
0.0
  0
VERTEX
  8
0
 10
4.8926257600000005
 20
10.079656480000002
 30
0.0
  0
VERTEX
  8
0
 10
4.897120000000002
 20
9.991360000000002
 30
0.0
  0
VERTEX
  8
0
 10
4.90493104
 20
9.90451792
 30
0.0
  0
VERTEX
  8
0
 10
4.91596672
 20
9.819170560000002
 30
0.0
  0
VERTEX
  8
0
 10
4.930134880000001
 20
9.73535824
 30
0.0
  0
VERTEX
  8
0
 10
4.94734336
 20
9.65312128
 30
0.0
  0
VERTEX
  8
0
 10
4.9675
 20
9.5725
 30
0.0
  0
VERTEX
  8
0
 10
4.99051264
 20
9.49353472
 30
0.0
  0
VERTEX
  8
0
 10
5.01628912
 20
9.416265759999998
 30
0.0
  0
VERTEX
  8
0
 10
5.04473728
 20
9.340733440000001
 30
0.0
  0
VERTEX
  8
0
 10
5.075764959999998
 20
9.266978079999998
 30
0.0
  0
VERTEX
  8
0
 10
5.109279999999999
 20
9.195039999999999
 30
0.0
  0
VERTEX
  8
0
 10
5.14519024
 20
9.124959519999999
 30
0.0
  0
VERTEX
  8
0
 10
5.18340352
 20
9.056776959999999
 30
0.0
  0
VERTEX
  8
0
 10
5.223827679999999
 20
8.99053264
 30
0.0
  0
VERTEX
  8
0
 10
5.2663705599999995
 20
8.926266879999998
 30
0.0
  0
VERTEX
  8
0
 10
5.31094
 20
8.86402
 30
0.0
  0
VERTEX
  8
0
 10
5.357443840000001
 20
8.80383232
 30
0.0
  0
VERTEX
  8
0
 10
5.40578992
 20
8.745744160000001
 30
0.0
  0
VERTEX
  8
0
 10
5.455886079999999
 20
8.68979584
 30
0.0
  0
VERTEX
  8
0
 10
5.507640159999999
 20
8.63602768
 30
0.0
  0
VERTEX
  8
0
 10
5.56096
 20
8.584480000000001
 30
0.0
  0
VERTEX
  8
0
 10
5.615753440000001
 20
8.53519312
 30
0.0
  0
VERTEX
  8
0
 10
5.671928320000001
 20
8.488207360000002
 30
0.0
  0
VERTEX
  8
0
 10
5.729392480000001
 20
8.44356304
 30
0.0
  0
VERTEX
  8
0
 10
5.788053760000001
 20
8.401300480000002
 30
0.0
  0
VERTEX
  8
0
 10
5.847820000000001
 20
8.361460000000001
 30
0.0
  0
VERTEX
  8
0
 10
5.90859904
 20
8.324081920000001
 30
0.0
  0
VERTEX
  8
0
 10
5.970298720000001
 20
8.28920656
 30
0.0
  0
VERTEX
  8
0
 10
6.03282688
 20
8.25687424
 30
0.0
  0
VERTEX
  8
0
 10
6.09609136
 20
8.227125280000001
 30
0.0
  0
VERTEX
  8
0
 10
6.16
 20
8.2
 30
0.0
  0
VERTEX
  8
0
 10
6.22446064
 20
8.175538719999999
 30
0.0
  0
VERTEX
  8
0
 10
6.289381120000002
 20
8.153781760000001
 30
0.0
  0
VERTEX
  8
0
 10
6.35466928
 20
8.134769440000001
 30
0.0
  0
VERTEX
  8
0
 10
6.42023296
 20
8.11854208
 30
0.0
  0
VERTEX
  8
0
 10
6.4859800000000005
 20
8.10514
 30
0.0
  0
VERTEX
  8
0
 10
6.55181824
 20
8.09460352
 30
0.0
  0
VERTEX
  8
0
 10
6.61765552
 20
8.086972959999999
 30
0.0
  0
VERTEX
  8
0
 10
6.68339968
 20
8.08228864
 30
0.0
  0
VERTEX
  8
0
 10
6.74895856
 20
8.08059088
 30
0.0
  0
VERTEX
  8
0
 10
6.814240000000001
 20
8.08192
 30
0.0
  0
VERTEX
  8
0
 10
6.87915184
 20
8.08631632
 30
0.0
  0
VERTEX
  8
0
 10
6.94360192
 20
8.09382016
 30
0.0
  0
VERTEX
  8
0
 10
7.00749808
 20
8.10447184
 30
0.0
  0
VERTEX
  8
0
 10
7.070748160000001
 20
8.118311680000001
 30
0.0
  0
VERTEX
  8
0
 10
7.13326
 20
8.13538
 30
0.0
  0
VERTEX
  8
0
 10
7.19494144
 20
8.155717119999998
 30
0.0
  0
VERTEX
  8
0
 10
7.255700320000001
 20
8.17936336
 30
0.0
  0
VERTEX
  8
0
 10
7.31544448
 20
8.20635904
 30
0.0
  0
VERTEX
  8
0
 10
7.374081759999999
 20
8.23674448
 30
0.0
  0
VERTEX
  8
0
 10
7.431520000000001
 20
8.27056
 30
0.0
  0
VERTEX
  8
0
 10
7.48766704
 20
8.30784592
 30
0.0
  0
VERTEX
  8
0
 10
7.54243072
 20
8.34864256
 30
0.0
  0
VERTEX
  8
0
 10
7.59571888
 20
8.39299024
 30
0.0
  0
VERTEX
  8
0
 10
7.647439359999998
 20
8.44092928
 30
0.0
  0
VERTEX
  8
0
 10
7.6975
 20
8.4925
 30
0.0
  0
VERTEX
  8
0
 10
7.74580864
 20
8.54774272
 30
0.0
  0
VERTEX
  8
0
 10
7.79227312
 20
8.60669776
 30
0.0
  0
VERTEX
  8
0
 10
7.83680128
 20
8.66940544
 30
0.0
  0
VERTEX
  8
0
 10
7.87930096
 20
8.73590608
 30
0.0
  0
VERTEX
  8
0
 10
7.9196800000000005
 20
8.80624
 30
0.0
  0
VERTEX
  8
0
 10
7.9578462399999985
 20
8.88044752
 30
0.0
  0
VERTEX
  8
0
 10
7.99370752
 20
8.95856896
 30
0.0
  0
VERTEX
  8
0
 10
8.02717168
 20
9.04064464
 30
0.0
  0
VERTEX
  8
0
 10
8.058146559999999
 20
9.12671488
 30
0.0
  0
VERTEX
  8
0
 10
8.08654
 20
9.216819999999998
 30
0.0
  0
VERTEX
  8
0
 10
8.11225984
 20
9.31100032
 30
0.0
  0
VERTEX
  8
0
 10
8.13521392
 20
9.40929616
 30
0.0
  0
VERTEX
  8
0
 10
8.15531008
 20
9.51174784
 30
0.0
  0
VERTEX
  8
0
 10
8.172456160000001
 20
9.61839568
 30
0.0
  0
VERTEX
  8
0
 10
8.18656
 20
9.729280000000001
 30
0.0
  0
VERTEX
  8
0
 10
8.19752944
 20
9.84444112
 30
0.0
  0
VERTEX
  8
0
 10
8.205272319999999
 20
9.96391936
 30
0.0
  0
VERTEX
  8
0
 10
8.20969648
 20
10.087755040000001
 30
0.0
  0
VERTEX
  8
0
 10
8.21070976
 20
10.21598848
 30
0.0
  0
VERTEX
  8
0
 10
8.20822
 20
10.34866
 30
0.0
  0
VERTEX
  8
0
 10
8.20213504
 20
10.48580992
 30
0.0
  0
VERTEX
  8
0
 10
8.19236272
 20
10.62747856
 30
0.0
  0
VERTEX
  8
0
 10
8.17881088
 20
10.77370624
 30
0.0
  0
VERTEX
  8
0
 10
8.161387359999999
 20
10.92453328
 30
0.0
  0
SEQEND
  0
ENDSEC
  0
EOF
