  0
SECTION
  2
HEADER
  9
$ACADVER
  1
AC1009
  9
$INSBASE
 10
0.0
 20
0.0
 30
0.0
  9
$EXTMIN
 10
0.0
 20
0.0
 30
0.0
  9
$EXTMAX
 10
100.0
 20
100.0
 30
0.0
  9
$UNITMODE
 70
0
  9
$AUNITS
 70
0
  9
$ANGBASE
 50
0.0
  9
$ANGDIR
 70
0
  0
ENDSEC
  0
SECTION
  2
TABLES
  0
TABLE
  2
LTYPE
 70
19
  0
LTYPE
  2
CONTINUOUS
 70
0
  3
Solid
 72
65
 73
0
 40
0.0
  0
LTYPE
  2
CENTER
 70
0
  3
Center ____ _ ____ _ ____ _ ____ _ ____ _ ____
 72
65
 73
4
 40
2.0
 49
1.25
 49
-0.25
 49
0.25
 49
-0.25
  0
LTYPE
  2
CENTERX2
 70
0
  3
Center (2x) ________  __  ________  __  ________
 72
65
 73
4
 40
3.5
 49
2.5
 49
-0.25
 49
0.5
 49
-0.25
  0
LTYPE
  2
CENTER2
 70
0
  3
Center (.5x) ____ _ ____ _ ____ _ ____ _ ____
 72
65
 73
4
 40
1.0
 49
0.625
 49
-0.125
 49
0.125
 49
-0.125
  0
LTYPE
  2
DASHED
 70
0
  3
Dashed __ __ __ __ __ __ __ __ __ __ __ __ __ _
 72
65
 73
2
 40
0.6
 49
0.5
 49
-0.1
  0
LTYPE
  2
DASHEDX2
 70
0
  3
Dashed (2x) ____  ____  ____  ____  ____  ____
 72
65
 73
2
 40
1.2
 49
1.0
 49
-0.2
  0
LTYPE
  2
DASHED2
 70
0
  3
Dashed (.5x) _ _ _ _ _ _ _ _ _ _ _ _ _ _
 72
65
 73
2
 40
0.3
 49
0.25
 49
-0.05
  0
LTYPE
  2
PHANTOM
 70
0
  3
Phantom ______  __  __  ______  __  __  ______
 72
65
 73
6
 40
2.5
 49
1.25
 49
-0.25
 49
0.25
 49
-0.25
 49
0.25
 49
-0.25
  0
LTYPE
  2
PHANTOMX2
 70
0
  3
Phantom (2x)____________    ____    ____    ____________
 72
65
 73
6
 40
4.25
 49
2.5
 49
-0.25
 49
0.5
 49
-0.25
 49
0.5
 49
-0.25
  0
LTYPE
  2
PHANTOM2
 70
0
  3
Phantom (.5x) ___ _ _ ___ _ _ ___ _ _ ___ _ _ ___
 72
65
 73
6
 40
1.25
 49
0.625
 49
-0.125
 49
0.125
 49
-0.125
 49
0.125
 49
-0.125
  0
LTYPE
  2
DASHDOT
 70
0
  3
Dash dot __ . __ . __ . __ . __ . __ . __ . __
 72
65
 73
4
 40
1.4
 49
1.0
 49
-0.2
 49
0.0
 49
-0.2
  0
LTYPE
  2
DASHDOTX2
 70
0
  3
Dash dot (2x) ____  .  ____  .  ____  .  ____
 72
65
 73
4
 40
2.4
 49
2.0
 49
-0.2
 49
0.0
 49
-0.2
  0
LTYPE
  2
DASHDOT2
 70
0
  3
Dash dot (.5x) _ . _ . _ . _ . _ . _ . _ . _
 72
65
 73
4
 40
0.7
 49
0.5
 49
-0.1
 49
0.0
 49
-0.1
  0
LTYPE
  2
DOT
 70
0
  3
Dot .  .  .  .  .  .  .  .  .  .  .  .  .  .  .  .
 72
65
 73
2
 40
0.2
 49
0.0
 49
-0.2
  0
LTYPE
  2
DOTX2
 70
0
  3
Dot (2x) .    .    .    .    .    .    .    . 
 72
65
 73
2
 40
0.4
 49
0.0
 49
-0.4
  0
LTYPE
  2
DOT2
 70
0
  3
Dot (.5) . . . . . . . . . . . . . . . . . . . 
 72
65
 73
2
 40
0.1
 49
0.0
 49
-0.1
  0
LTYPE
  2
DIVIDE
 70
0
  3
Divide __ . . __ . . __ . . __ . . __ . . __
 72
65
 73
6
 40
1.6
 49
1.0
 49
-0.2
 49
0.0
 49
-0.2
 49
0.0
 49
-0.2
  0
LTYPE
  2
DIVIDEX2
 70
0
  3
Divide (2x) ____  . .  ____  . .  ____  . .  ____
 72
65
 73
6
 40
2.6
 49
2.0
 49
-0.2
 49
0.0
 49
-0.2
 49
0.0
 49
-0.2
  0
LTYPE
  2
DIVIDE2
 70
0
  3
Divide(.5x) _ . _ . _ . _ . _ . _ . _ . _
 72
65
 73
6
 40
0.8
 49
0.5
 49
-0.1
 49
0.0
 49
-0.1
 49
0.0
 49
-0.1
  0
ENDTAB
  0
TABLE
  2
LAYER
 70
5
  0
LAYER
  2
DIMENSIONS
 70
0
 62
1
  6
CONTINUOUS
  0
LAYER
  2
TABLEBACKGROUND
 70
0
 62
1
  6
CONTINUOUS
  0
LAYER
  2
TABLECONTENT
 70
0
 62
1
  6
CONTINUOUS
  0
LAYER
  2
TABLEGRID
 70
0
 62
1
  6
CONTINUOUS
  0
LAYER
  2
VIEWPORTS
 70
0
 62
7
  6
CONTINUOUS
  0
ENDTAB
  0
TABLE
  2
STYLE
 70
12
  0
STYLE
  2
STANDARD
 70
0
 40
0.0
 41
1.0
 42
1.0
 50
0.0
 71
0
  3
arial.ttf
  4

  0
STYLE
  2
ARIAL
 70
0
 40
0.0
 41
1.0
 42
1.0
 50
0.0
 71
0
  3
arial.ttf
  4

  0
STYLE
  2
ARIAL_BOLD
 70
0
 40
0.0
 41
1.0
 42
1.0
 50
0.0
 71
0
  3
arialbd.ttf
  4

  0
STYLE
  2
ARIAL_ITALIC
 70
0
 40
0.0
 41
1.0
 42
1.0
 50
0.0
 71
0
  3
ariali.ttf
  4

  0
STYLE
  2
ARIAL_BOLD_ITALIC
 70
0
 40
0.0
 41
1.0
 42
1.0
 50
0.0
 71
0
  3
arialbi.ttf
  4

  0
STYLE
  2
ARIAL_BLACK
 70
0
 40
0.0
 41
1.0
 42
1.0
 50
0.0
 71
0
  3
ariblk.ttf
  4

  0
STYLE
  2
ISOCPEUR
 70
0
 40
0.0
 41
1.0
 42
1.0
 50
0.0
 71
0
  3
isocpeur.ttf
  4

  0
STYLE
  2
ISOCPEUR_ITALIC
 70
0
 40
0.0
 41
1.0
 42
1.0
 50
0.0
 71
0
  3
isocpeui.ttf
  4

  0
STYLE
  2
TIMES
 70
0
 40
0.0
 41
1.0
 42
1.0
 50
0.0
 71
0
  3
times.ttf
  4

  0
STYLE
  2
TIMES_BOLD
 70
0
 40
0.0
 41
1.0
 42
1.0
 50
0.0
 71
0
  3
timesbd.ttf
  4

  0
STYLE
  2
TIMES_ITALIC
 70
0
 40
0.0
 41
1.0
 42
1.0
 50
0.0
 71
0
  3
timesi.ttf
  4

  0
STYLE
  2
TIMES_BOLD_ITALIC
 70
0
 40
0.0
 41
1.0
 42
1.0
 50
0.0
 71
0
  3
timesbi.ttf
  4

  0
ENDTAB
  0
TABLE
  2
VIEW
 70
0
  0
ENDTAB
  0
TABLE
  2
APPID
 70
1
  0
APPID
  2
DXFWRITE
 70
0
  0
ENDTAB
  0
TABLE
  2
VPORT
 70
0
  0
ENDTAB
  0
TABLE
  2
UCS
 70
0
  0
ENDTAB
  0
ENDSEC
  0
SECTION
  2
BLOCKS
  0
ENDSEC
  0
SECTION
  2
ENTITIES
  0
VIEWPORT
  8
VIEWPORTS
 67
1
 10
0.0
 20
0.0
 30
0.0
 40
1.0
 41
1.0
 68
1
 69
1
1001
ACAD
1000
MVIEW
1002
{
1070
16
1010
0.0
1020
0.0
1030
0.0
1010
0.0
1020
0.0
1030
0.0
1040
0.0
1040
1.0
1040
0.0
1040
0.0
1040
50.0
1040
0.0
1040
0.0
1070
0
1070
100
1070
1
1070
3
1070
0
1070
0
1070
0
1070
0
1040
0.0
1040
0.0
1040
0.0
1040
0.1
1040
0.1
1040
0.1
1040
0.1
1070
0
1002
{
1002
}
1002
}
  0
POLYLINE
  6
DOT
  8
0
 66
1
 10
0.0
 20
0.0
 30
0.0
 70
8
  0
VERTEX
  8
0
 10
4.42
 20
10.54
 30
0.0
  0
VERTEX
  8
0
 10
4.39662386
 20
10.42889824
 30
0.0
  0
VERTEX
  8
0
 10
4.3768468799999996
 20
10.31999392
 30
0.0
  0
VERTEX
  8
0
 10
4.36059622
 20
10.21328848
 30
0.0
  0
VERTEX
  8
0
 10
4.347799039999999
 20
10.108783359999997
 30
0.0
  0
VERTEX
  8
0
 10
4.338382499999999
 20
10.00648
 30
0.0
  0
VERTEX
  8
0
 10
4.33227376
 20
9.906379839999998
 30
0.0
  0
VERTEX
  8
0
 10
4.32939998
 20
9.808484319999998
 30
0.0
  0
VERTEX
  8
0
 10
4.329688320000001
 20
9.71279488
 30
0.0
  0
VERTEX
  8
0
 10
4.33306594
 20
9.61931296
 30
0.0
  0
VERTEX
  8
0
 10
4.339460000000001
 20
9.52804
 30
0.0
  0
VERTEX
  8
0
 10
4.348797660000002
 20
9.43897744
 30
0.0
  0
VERTEX
  8
0
 10
4.361006079999999
 20
9.35212672
 30
0.0
  0
VERTEX
  8
0
 10
4.37601242
 20
9.267489280000001
 30
0.0
  0
VERTEX
  8
0
 10
4.39374384
 20
9.18506656
 30
0.0
  0
VERTEX
  8
0
 10
4.414127499999999
 20
9.104859999999999
 30
0.0
  0
VERTEX
  8
0
 10
4.437090559999999
 20
9.026871039999998
 30
0.0
  0
VERTEX
  8
0
 10
4.46256018
 20
8.951101119999999
 30
0.0
  0
VERTEX
  8
0
 10
4.4904635200000005
 20
8.877551680000002
 30
0.0
  0
VERTEX
  8
0
 10
4.520727740000001
 20
8.806224160000001
 30
0.0
  0
VERTEX
  8
0
 10
4.553280000000001
 20
8.737120000000003
 30
0.0
  0
VERTEX
  8
0
 10
4.58804746
 20
8.670240640000001
 30
0.0
  0
VERTEX
  8
0
 10
4.62495728
 20
8.60558752
 30
0.0
  0
VERTEX
  8
0
 10
4.66393662
 20
8.54316208
 30
0.0
  0
VERTEX
  8
0
 10
4.70491264
 20
8.482965760000003
 30
0.0
  0
VERTEX
  8
0
 10
4.7478125
 20
8.425
 30
0.0
  0
VERTEX
  8
0
 10
4.79256336
 20
8.36926624
 30
0.0
  0
VERTEX
  8
0
 10
4.839092379999999
 20
8.31576592
 30
0.0
  0
VERTEX
  8
0
 10
4.88732672
 20
8.264500479999999
 30
0.0
  0
VERTEX
  8
0
 10
4.937193539999998
 20
8.215471359999999
 30
0.0
  0
VERTEX
  8
0
 10
4.988619999999999
 20
8.168679999999998
 30
0.0
  0
VERTEX
  8
0
 10
5.041533259999999
 20
8.124127839999998
 30
0.0
  0
VERTEX
  8
0
 10
5.09586048
 20
8.081816319999998
 30
0.0
  0
VERTEX
  8
0
 10
5.1515288199999985
 20
8.041746879999998
 30
0.0
  0
VERTEX
  8
0
 10
5.208465439999999
 20
8.003920959999999
 30
0.0
  0
VERTEX
  8
0
 10
5.2665975
 20
7.96834
 30
0.0
  0
VERTEX
  8
0
 10
5.32585216
 20
7.935005440000001
 30
0.0
  0
VERTEX
  8
0
 10
5.386156580000001
 20
7.903918720000002
 30
0.0
  0
VERTEX
  8
0
 10
5.44743792
 20
7.875081280000002
 30
0.0
  0
VERTEX
  8
0
 10
5.509623339999999
 20
7.848494559999999
 30
0.0
  0
VERTEX
  8
0
 10
5.57264
 20
7.824160000000001
 30
0.0
  0
VERTEX
  8
0
 10
5.636415060000001
 20
7.802079040000001
 30
0.0
  0
VERTEX
  8
0
 10
5.70087568
 20
7.782253120000002
 30
0.0
  0
VERTEX
  8
0
 10
5.765949020000001
 20
7.764683680000002
 30
0.0
  0
VERTEX
  8
0
 10
5.83156224
 20
7.749372160000003
 30
0.0
  0
VERTEX
  8
0
 10
5.897642500000002
 20
7.736320000000002
 30
0.0
  0
VERTEX
  8
0
 10
5.964116960000001
 20
7.72552864
 30
0.0
  0
VERTEX
  8
0
 10
6.0309127799999995
 20
7.716999520000001
 30
0.0
  0
VERTEX
  8
0
 10
6.097957120000001
 20
7.71073408
 30
0.0
  0
VERTEX
  8
0
 10
6.16517714
 20
7.70673376
 30
0.0
  0
VERTEX
  8
0
 10
6.2325
 20
7.705
 30
0.0
  0
VERTEX
  8
0
 10
6.29985286
 20
7.70553424
 30
0.0
  0
VERTEX
  8
0
 10
6.36716288
 20
7.70833792
 30
0.0
  0
VERTEX
  8
0
 10
6.434357219999999
 20
7.71341248
 30
0.0
  0
VERTEX
  8
0
 10
6.501363039999998
 20
7.72075936
 30
0.0
  0
VERTEX
  8
0
 10
6.568107500000001
 20
7.730380000000001
 30
0.0
  0
VERTEX
  8
0
 10
6.634517760000001
 20
7.742275840000001
 30
0.0
  0
VERTEX
  8
0
 10
6.70052098
 20
7.7564483200000005
 30
0.0
  0
VERTEX
  8
0
 10
6.76604432
 20
7.7728988800000005
 30
0.0
  0
VERTEX
  8
0
 10
6.83101494
 20
7.791628960000001
 30
0.0
  0
VERTEX
  8
0
 10
6.89536
 20
7.812640000000001
 30
0.0
  0
VERTEX
  8
0
 10
6.959006659999999
 20
7.83593344
 30
0.0
  0
VERTEX
  8
0
 10
7.02188208
 20
7.86151072
 30
0.0
  0
VERTEX
  8
0
 10
7.08391342
 20
7.88937328
 30
0.0
  0
VERTEX
  8
0
 10
7.14502784
 20
7.919522560000001
 30
0.0
  0
VERTEX
  8
0
 10
7.2051525
 20
7.951959999999999
 30
0.0
  0
VERTEX
  8
0
 10
7.26421456
 20
7.9866870400000005
 30
0.0
  0
VERTEX
  8
0
 10
7.32214118
 20
8.023705119999999
 30
0.0
  0
VERTEX
  8
0
 10
7.378859520000001
 20
8.06301568
 30
0.0
  0
VERTEX
  8
0
 10
7.43429674
 20
8.10462016
 30
0.0
  0
VERTEX
  8
0
 10
7.488379999999999
 20
8.148519999999998
 30
0.0
  0
VERTEX
  8
0
 10
7.54103646
 20
8.19471664
 30
0.0
  0
VERTEX
  8
0
 10
7.592193279999999
 20
8.24321152
 30
0.0
  0
VERTEX
  8
0
 10
7.641777619999998
 20
8.294006079999999
 30
0.0
  0
VERTEX
  8
0
 10
7.689716639999999
 20
8.347101760000001
 30
0.0
  0
VERTEX
  8
0
 10
7.7359375
 20
8.4025
 30
0.0
  0
VERTEX
  8
0
 10
7.7803673600000005
 20
8.460202240000001
 30
0.0
  0
VERTEX
  8
0
 10
7.822933379999999
 20
8.52020992
 30
0.0
  0
VERTEX
  8
0
 10
7.86356272
 20
8.58252448
 30
0.0
  0
VERTEX
  8
0
 10
7.902182540000001
 20
8.647147360000002
 30
0.0
  0
VERTEX
  8
0
 10
7.938720000000001
 20
8.714080000000001
 30
0.0
  0
VERTEX
  8
0
 10
7.973102260000001
 20
8.78332384
 30
0.0
  0
VERTEX
  8
0
 10
8.00525648
 20
8.85488032
 30
0.0
  0
VERTEX
  8
0
 10
8.03510982
 20
8.92875088
 30
0.0
  0
VERTEX
  8
0
 10
8.06258944
 20
9.004936959999998
 30
0.0
  0
VERTEX
  8
0
 10
8.087622499999998
 20
9.083440000000001
 30
0.0
  0
VERTEX
  8
0
 10
8.11013616
 20
9.16426144
 30
0.0
  0
VERTEX
  8
0
 10
8.13005758
 20
9.24740272
 30
0.0
  0
VERTEX
  8
0
 10
8.147313919999998
 20
9.33286528
 30
0.0
  0
VERTEX
  8
0
 10
8.16183234
 20
9.420650560000002
 30
0.0
  0
VERTEX
  8
0
 10
8.173540000000001
 20
9.51076
 30
0.0
  0
VERTEX
  8
0
 10
8.18236406
 20
9.603195040000001
 30
0.0
  0
VERTEX
  8
0
 10
8.18823168
 20
9.69795712
 30
0.0
  0
VERTEX
  8
0
 10
8.19107002
 20
9.79504768
 30
0.0
  0
VERTEX
  8
0
 10
8.19080624
 20
9.894468159999999
 30
0.0
  0
VERTEX
  8
0
 10
8.1873675
 20
9.99622
 30
0.0
  0
VERTEX
  8
0
 10
8.18068096
 20
10.100304639999997
 30
0.0
  0
VERTEX
  8
0
 10
8.17067378
 20
10.206723519999999
 30
0.0
  0
VERTEX
  8
0
 10
8.15727312
 20
10.31547808
 30
0.0
  0
VERTEX
  8
0
 10
8.14040614
 20
10.42656976
 30
0.0
  0
SEQEND
  0
ENDSEC
  0
EOF
