  0
SECTION
  2
HEADER
  9
$ACADVER
  1
AC1009
  9
$INSBASE
 10
0.0
 20
0.0
 30
0.0
  9
$EXTMIN
 10
0.0
 20
0.0
 30
0.0
  9
$EXTMAX
 10
100.0
 20
100.0
 30
0.0
  9
$UNITMODE
 70
0
  9
$AUNITS
 70
0
  9
$ANGBASE
 50
0.0
  9
$ANGDIR
 70
0
  0
ENDSEC
  0
SECTION
  2
TABLES
  0
TABLE
  2
LTYPE
 70
19
  0
LTYPE
  2
CONTINUOUS
 70
0
  3
Solid
 72
65
 73
0
 40
0.0
  0
LTYPE
  2
CENTER
 70
0
  3
Center ____ _ ____ _ ____ _ ____ _ ____ _ ____
 72
65
 73
4
 40
2.0
 49
1.25
 49
-0.25
 49
0.25
 49
-0.25
  0
LTYPE
  2
CENTERX2
 70
0
  3
Center (2x) ________  __  ________  __  ________
 72
65
 73
4
 40
3.5
 49
2.5
 49
-0.25
 49
0.5
 49
-0.25
  0
LTYPE
  2
CENTER2
 70
0
  3
Center (.5x) ____ _ ____ _ ____ _ ____ _ ____
 72
65
 73
4
 40
1.0
 49
0.625
 49
-0.125
 49
0.125
 49
-0.125
  0
LTYPE
  2
DASHED
 70
0
  3
Dashed __ __ __ __ __ __ __ __ __ __ __ __ __ _
 72
65
 73
2
 40
0.6
 49
0.5
 49
-0.1
  0
LTYPE
  2
DASHEDX2
 70
0
  3
Dashed (2x) ____  ____  ____  ____  ____  ____
 72
65
 73
2
 40
1.2
 49
1.0
 49
-0.2
  0
LTYPE
  2
DASHED2
 70
0
  3
Dashed (.5x) _ _ _ _ _ _ _ _ _ _ _ _ _ _
 72
65
 73
2
 40
0.3
 49
0.25
 49
-0.05
  0
LTYPE
  2
PHANTOM
 70
0
  3
Phantom ______  __  __  ______  __  __  ______
 72
65
 73
6
 40
2.5
 49
1.25
 49
-0.25
 49
0.25
 49
-0.25
 49
0.25
 49
-0.25
  0
LTYPE
  2
PHANTOMX2
 70
0
  3
Phantom (2x)____________    ____    ____    ____________
 72
65
 73
6
 40
4.25
 49
2.5
 49
-0.25
 49
0.5
 49
-0.25
 49
0.5
 49
-0.25
  0
LTYPE
  2
PHANTOM2
 70
0
  3
Phantom (.5x) ___ _ _ ___ _ _ ___ _ _ ___ _ _ ___
 72
65
 73
6
 40
1.25
 49
0.625
 49
-0.125
 49
0.125
 49
-0.125
 49
0.125
 49
-0.125
  0
LTYPE
  2
DASHDOT
 70
0
  3
Dash dot __ . __ . __ . __ . __ . __ . __ . __
 72
65
 73
4
 40
1.4
 49
1.0
 49
-0.2
 49
0.0
 49
-0.2
  0
LTYPE
  2
DASHDOTX2
 70
0
  3
Dash dot (2x) ____  .  ____  .  ____  .  ____
 72
65
 73
4
 40
2.4
 49
2.0
 49
-0.2
 49
0.0
 49
-0.2
  0
LTYPE
  2
DASHDOT2
 70
0
  3
Dash dot (.5x) _ . _ . _ . _ . _ . _ . _ . _
 72
65
 73
4
 40
0.7
 49
0.5
 49
-0.1
 49
0.0
 49
-0.1
  0
LTYPE
  2
DOT
 70
0
  3
Dot .  .  .  .  .  .  .  .  .  .  .  .  .  .  .  .
 72
65
 73
2
 40
0.2
 49
0.0
 49
-0.2
  0
LTYPE
  2
DOTX2
 70
0
  3
Dot (2x) .    .    .    .    .    .    .    . 
 72
65
 73
2
 40
0.4
 49
0.0
 49
-0.4
  0
LTYPE
  2
DOT2
 70
0
  3
Dot (.5) . . . . . . . . . . . . . . . . . . . 
 72
65
 73
2
 40
0.1
 49
0.0
 49
-0.1
  0
LTYPE
  2
DIVIDE
 70
0
  3
Divide __ . . __ . . __ . . __ . . __ . . __
 72
65
 73
6
 40
1.6
 49
1.0
 49
-0.2
 49
0.0
 49
-0.2
 49
0.0
 49
-0.2
  0
LTYPE
  2
DIVIDEX2
 70
0
  3
Divide (2x) ____  . .  ____  . .  ____  . .  ____
 72
65
 73
6
 40
2.6
 49
2.0
 49
-0.2
 49
0.0
 49
-0.2
 49
0.0
 49
-0.2
  0
LTYPE
  2
DIVIDE2
 70
0
  3
Divide(.5x) _ . _ . _ . _ . _ . _ . _ . _
 72
65
 73
6
 40
0.8
 49
0.5
 49
-0.1
 49
0.0
 49
-0.1
 49
0.0
 49
-0.1
  0
ENDTAB
  0
TABLE
  2
LAYER
 70
5
  0
LAYER
  2
DIMENSIONS
 70
0
 62
1
  6
CONTINUOUS
  0
LAYER
  2
TABLEBACKGROUND
 70
0
 62
1
  6
CONTINUOUS
  0
LAYER
  2
TABLECONTENT
 70
0
 62
1
  6
CONTINUOUS
  0
LAYER
  2
TABLEGRID
 70
0
 62
1
  6
CONTINUOUS
  0
LAYER
  2
VIEWPORTS
 70
0
 62
7
  6
CONTINUOUS
  0
ENDTAB
  0
TABLE
  2
STYLE
 70
12
  0
STYLE
  2
STANDARD
 70
0
 40
0.0
 41
1.0
 42
1.0
 50
0.0
 71
0
  3
arial.ttf
  4

  0
STYLE
  2
ARIAL
 70
0
 40
0.0
 41
1.0
 42
1.0
 50
0.0
 71
0
  3
arial.ttf
  4

  0
STYLE
  2
ARIAL_BOLD
 70
0
 40
0.0
 41
1.0
 42
1.0
 50
0.0
 71
0
  3
arialbd.ttf
  4

  0
STYLE
  2
ARIAL_ITALIC
 70
0
 40
0.0
 41
1.0
 42
1.0
 50
0.0
 71
0
  3
ariali.ttf
  4

  0
STYLE
  2
ARIAL_BOLD_ITALIC
 70
0
 40
0.0
 41
1.0
 42
1.0
 50
0.0
 71
0
  3
arialbi.ttf
  4

  0
STYLE
  2
ARIAL_BLACK
 70
0
 40
0.0
 41
1.0
 42
1.0
 50
0.0
 71
0
  3
ariblk.ttf
  4

  0
STYLE
  2
ISOCPEUR
 70
0
 40
0.0
 41
1.0
 42
1.0
 50
0.0
 71
0
  3
isocpeur.ttf
  4

  0
STYLE
  2
ISOCPEUR_ITALIC
 70
0
 40
0.0
 41
1.0
 42
1.0
 50
0.0
 71
0
  3
isocpeui.ttf
  4

  0
STYLE
  2
TIMES
 70
0
 40
0.0
 41
1.0
 42
1.0
 50
0.0
 71
0
  3
times.ttf
  4

  0
STYLE
  2
TIMES_BOLD
 70
0
 40
0.0
 41
1.0
 42
1.0
 50
0.0
 71
0
  3
timesbd.ttf
  4

  0
STYLE
  2
TIMES_ITALIC
 70
0
 40
0.0
 41
1.0
 42
1.0
 50
0.0
 71
0
  3
timesi.ttf
  4

  0
STYLE
  2
TIMES_BOLD_ITALIC
 70
0
 40
0.0
 41
1.0
 42
1.0
 50
0.0
 71
0
  3
timesbi.ttf
  4

  0
ENDTAB
  0
TABLE
  2
VIEW
 70
0
  0
ENDTAB
  0
TABLE
  2
APPID
 70
1
  0
APPID
  2
DXFWRITE
 70
0
  0
ENDTAB
  0
TABLE
  2
VPORT
 70
0
  0
ENDTAB
  0
TABLE
  2
UCS
 70
0
  0
ENDTAB
  0
ENDSEC
  0
SECTION
  2
BLOCKS
  0
ENDSEC
  0
SECTION
  2
ENTITIES
  0
VIEWPORT
  8
VIEWPORTS
 67
1
 10
0.0
 20
0.0
 30
0.0
 40
1.0
 41
1.0
 68
1
 69
1
1001
ACAD
1000
MVIEW
1002
{
1070
16
1010
0.0
1020
0.0
1030
0.0
1010
0.0
1020
0.0
1030
0.0
1040
0.0
1040
1.0
1040
0.0
1040
0.0
1040
50.0
1040
0.0
1040
0.0
1070
0
1070
100
1070
1
1070
3
1070
0
1070
0
1070
0
1070
0
1040
0.0
1040
0.0
1040
0.0
1040
0.1
1040
0.1
1040
0.1
1040
0.1
1070
0
1002
{
1002
}
1002
}
  0
POLYLINE
  6
DOT
  8
0
 66
1
 10
0.0
 20
0.0
 30
0.0
 70
8
  0
VERTEX
  8
0
 10
2.72
 20
13.56
 30
0.0
  0
VERTEX
  8
0
 10
2.75121858
 20
13.399824720000002
 30
0.0
  0
VERTEX
  8
0
 10
2.78367664
 20
13.24090176
 30
0.0
  0
VERTEX
  8
0
 10
2.8173776599999996
 20
13.08323544
 30
0.0
  0
VERTEX
  8
0
 10
2.8523251199999997
 20
12.926830079999997
 30
0.0
  0
VERTEX
  8
0
 10
2.888522499999999
 20
12.771689999999996
 30
0.0
  0
VERTEX
  8
0
 10
2.9259732799999996
 20
12.617819519999996
 30
0.0
  0
VERTEX
  8
0
 10
2.9646809399999996
 20
12.465222959999998
 30
0.0
  0
VERTEX
  8
0
 10
3.00464896
 20
12.313904639999999
 30
0.0
  0
VERTEX
  8
0
 10
3.045880820000001
 20
12.16386888
 30
0.0
  0
VERTEX
  8
0
 10
3.0883800000000003
 20
12.015120000000001
 30
0.0
  0
VERTEX
  8
0
 10
3.1321499800000003
 20
11.86766232
 30
0.0
  0
VERTEX
  8
0
 10
3.17719424
 20
11.721500159999998
 30
0.0
  0
VERTEX
  8
0
 10
3.2235162600000002
 20
11.57663784
 30
0.0
  0
VERTEX
  8
0
 10
3.2711195199999996
 20
11.433079679999997
 30
0.0
  0
VERTEX
  8
0
 10
3.3200075
 20
11.290829999999996
 30
0.0
  0
VERTEX
  8
0
 10
3.3701836799999993
 20
11.149893119999996
 30
0.0
  0
VERTEX
  8
0
 10
3.4216515399999996
 20
11.01027336
 30
0.0
  0
VERTEX
  8
0
 10
3.4744145600000014
 20
10.87197504
 30
0.0
  0
VERTEX
  8
0
 10
3.5284762200000004
 20
10.735002480000002
 30
0.0
  0
VERTEX
  8
0
 10
3.5838400000000012
 20
10.59936
 30
0.0
  0
VERTEX
  8
0
 10
3.64050938
 20
10.46505192
 30
0.0
  0
VERTEX
  8
0
 10
3.6984878400000007
 20
10.332082560000003
 30
0.0
  0
VERTEX
  8
0
 10
3.7577788600000006
 20
10.200456240000001
 30
0.0
  0
VERTEX
  8
0
 10
3.8183859199999994
 20
10.070177280000001
 30
0.0
  0
VERTEX
  8
0
 10
3.8803125
 20
9.94125
 30
0.0
  0
VERTEX
  8
0
 10
3.94356208
 20
9.81367872
 30
0.0
  0
VERTEX
  8
0
 10
4.00813814
 20
9.687467759999999
 30
0.0
  0
VERTEX
  8
0
 10
4.074044160000001
 20
9.56262144
 30
0.0
  0
VERTEX
  8
0
 10
4.141283619999999
 20
9.439144079999998
 30
0.0
  0
VERTEX
  8
0
 10
4.209859999999999
 20
9.317039999999999
 30
0.0
  0
VERTEX
  8
0
 10
4.279776779999999
 20
9.196313519999997
 30
0.0
  0
VERTEX
  8
0
 10
4.35103744
 20
9.076968959999999
 30
0.0
  0
VERTEX
  8
0
 10
4.4236454599999995
 20
8.959010639999997
 30
0.0
  0
VERTEX
  8
0
 10
4.49760432
 20
8.842442879999998
 30
0.0
  0
VERTEX
  8
0
 10
4.5729175
 20
8.727269999999999
 30
0.0
  0
VERTEX
  8
0
 10
4.64958848
 20
8.613496320000001
 30
0.0
  0
VERTEX
  8
0
 10
4.72762074
 20
8.50112616
 30
0.0
  0
VERTEX
  8
0
 10
4.80701776
 20
8.39016384
 30
0.0
  0
VERTEX
  8
0
 10
4.88778302
 20
8.280613679999998
 30
0.0
  0
VERTEX
  8
0
 10
4.96992
 20
8.17248
 30
0.0
  0
VERTEX
  8
0
 10
5.05343218
 20
8.06576712
 30
0.0
  0
VERTEX
  8
0
 10
5.13832304
 20
7.960479360000002
 30
0.0
  0
VERTEX
  8
0
 10
5.224596060000001
 20
7.856621040000001
 30
0.0
  0
VERTEX
  8
0
 10
5.312254720000001
 20
7.754196480000002
 30
0.0
  0
VERTEX
  8
0
 10
5.401302500000002
 20
7.653210000000001
 30
0.0
  0
VERTEX
  8
0
 10
5.49174288
 20
7.553665920000001
 30
0.0
  0
VERTEX
  8
0
 10
5.58357934
 20
7.455568560000001
 30
0.0
  0
VERTEX
  8
0
 10
5.676815360000001
 20
7.358922240000002
 30
0.0
  0
VERTEX
  8
0
 10
5.77145442
 20
7.263731279999999
 30
0.0
  0
VERTEX
  8
0
 10
5.8675
 20
7.17
 30
0.0
  0
VERTEX
  8
0
 10
5.964955580000001
 20
7.07773272
 30
0.0
  0
VERTEX
  8
0
 10
6.06382464
 20
6.986933759999999
 30
0.0
  0
VERTEX
  8
0
 10
6.16411066
 20
6.897607440000001
 30
0.0
  0
VERTEX
  8
0
 10
6.26581712
 20
6.809758079999999
 30
0.0
  0
VERTEX
  8
0
 10
6.368947500000001
 20
6.723389999999999
 30
0.0
  0
VERTEX
  8
0
 10
6.47350528
 20
6.638507519999999
 30
0.0
  0
VERTEX
  8
0
 10
6.57949394
 20
6.555114960000001
 30
0.0
  0
VERTEX
  8
0
 10
6.68691696
 20
6.4732166399999995
 30
0.0
  0
VERTEX
  8
0
 10
6.79577782
 20
6.392816880000001
 30
0.0
  0
VERTEX
  8
0
 10
6.906079999999999
 20
6.31392
 30
0.0
  0
VERTEX
  8
0
 10
7.01782698
 20
6.236530319999999
 30
0.0
  0
VERTEX
  8
0
 10
7.13102224
 20
6.16065216
 30
0.0
  0
VERTEX
  8
0
 10
7.24566926
 20
6.086289839999999
 30
0.0
  0
VERTEX
  8
0
 10
7.361771520000001
 20
6.0134476800000005
 30
0.0
  0
VERTEX
  8
0
 10
7.479332500000001
 20
5.94213
 30
0.0
  0
VERTEX
  8
0
 10
7.598355680000001
 20
5.87234112
 30
0.0
  0
VERTEX
  8
0
 10
7.71884454
 20
5.80408536
 30
0.0
  0
VERTEX
  8
0
 10
7.840802559999999
 20
5.737367039999999
 30
0.0
  0
VERTEX
  8
0
 10
7.96423322
 20
5.67219048
 30
0.0
  0
VERTEX
  8
0
 10
8.08914
 20
5.60856
 30
0.0
  0
VERTEX
  8
0
 10
8.215526379999998
 20
5.54647992
 30
0.0
  0
VERTEX
  8
0
 10
8.343395840000001
 20
5.48595456
 30
0.0
  0
VERTEX
  8
0
 10
8.472751859999999
 20
5.426988239999999
 30
0.0
  0
VERTEX
  8
0
 10
8.60359792
 20
5.36958528
 30
0.0
  0
VERTEX
  8
0
 10
8.7359375
 20
5.31375
 30
0.0
  0
VERTEX
  8
0
 10
8.86977408
 20
5.25948672
 30
0.0
  0
VERTEX
  8
0
 10
9.005111139999999
 20
5.20679976
 30
0.0
  0
VERTEX
  8
0
 10
9.141952159999999
 20
5.15569344
 30
0.0
  0
VERTEX
  8
0
 10
9.28030062
 20
5.10617208
 30
0.0
  0
VERTEX
  8
0
 10
9.420160000000001
 20
5.0582400000000005
 30
0.0
  0
VERTEX
  8
0
 10
9.56153378
 20
5.011901519999999
 30
0.0
  0
VERTEX
  8
0
 10
9.70442544
 20
4.96716096
 30
0.0
  0
VERTEX
  8
0
 10
9.84883846
 20
4.9240226400000005
 30
0.0
  0
VERTEX
  8
0
 10
9.994776319999998
 20
4.882490879999999
 30
0.0
  0
VERTEX
  8
0
 10
10.142242499999998
 20
4.84257
 30
0.0
  0
VERTEX
  8
0
 10
10.291240479999999
 20
4.804264320000001
 30
0.0
  0
VERTEX
  8
0
 10
10.441773739999999
 20
4.76757816
 30
0.0
  0
VERTEX
  8
0
 10
10.593845759999999
 20
4.73251584
 30
0.0
  0
VERTEX
  8
0
 10
10.74746002
 20
4.699081680000001
 30
0.0
  0
VERTEX
  8
0
 10
10.902620000000002
 20
4.66728
 30
0.0
  0
VERTEX
  8
0
 10
11.059329179999999
 20
4.63711512
 30
0.0
  0
VERTEX
  8
0
 10
11.21759104
 20
4.60859136
 30
0.0
  0
VERTEX
  8
0
 10
11.37740906
 20
4.5817130399999995
 30
0.0
  0
VERTEX
  8
0
 10
11.538786719999997
 20
4.55648448
 30
0.0
  0
VERTEX
  8
0
 10
11.701727499999999
 20
4.53291
 30
0.0
  0
VERTEX
  8
0
 10
11.866234879999997
 20
4.510993920000001
 30
0.0
  0
VERTEX
  8
0
 10
12.032312339999999
 20
4.490740560000001
 30
0.0
  0
VERTEX
  8
0
 10
12.199963359999996
 20
4.47215424
 30
0.0
  0
VERTEX
  8
0
 10
12.36919142
 20
4.455239280000001
 30
0.0
  0
SEQEND
  0
ENDSEC
  0
EOF
