  0
SECTION
  2
HEADER
  9
$ACADVER
  1
AC1009
  9
$INSBASE
 10
0.0
 20
0.0
 30
0.0
  9
$EXTMIN
 10
0.0
 20
0.0
 30
0.0
  9
$EXTMAX
 10
100.0
 20
100.0
 30
0.0
  9
$UNITMODE
 70
0
  9
$AUNITS
 70
0
  9
$ANGBASE
 50
0.0
  9
$ANGDIR
 70
0
  0
ENDSEC
  0
SECTION
  2
TABLES
  0
TABLE
  2
LTYPE
 70
19
  0
LTYPE
  2
CONTINUOUS
 70
0
  3
Solid
 72
65
 73
0
 40
0.0
  0
LTYPE
  2
CENTER
 70
0
  3
Center ____ _ ____ _ ____ _ ____ _ ____ _ ____
 72
65
 73
4
 40
2.0
 49
1.25
 49
-0.25
 49
0.25
 49
-0.25
  0
LTYPE
  2
CENTERX2
 70
0
  3
Center (2x) ________  __  ________  __  ________
 72
65
 73
4
 40
3.5
 49
2.5
 49
-0.25
 49
0.5
 49
-0.25
  0
LTYPE
  2
CENTER2
 70
0
  3
Center (.5x) ____ _ ____ _ ____ _ ____ _ ____
 72
65
 73
4
 40
1.0
 49
0.625
 49
-0.125
 49
0.125
 49
-0.125
  0
LTYPE
  2
DASHED
 70
0
  3
Dashed __ __ __ __ __ __ __ __ __ __ __ __ __ _
 72
65
 73
2
 40
0.6
 49
0.5
 49
-0.1
  0
LTYPE
  2
DASHEDX2
 70
0
  3
Dashed (2x) ____  ____  ____  ____  ____  ____
 72
65
 73
2
 40
1.2
 49
1.0
 49
-0.2
  0
LTYPE
  2
DASHED2
 70
0
  3
Dashed (.5x) _ _ _ _ _ _ _ _ _ _ _ _ _ _
 72
65
 73
2
 40
0.3
 49
0.25
 49
-0.05
  0
LTYPE
  2
PHANTOM
 70
0
  3
Phantom ______  __  __  ______  __  __  ______
 72
65
 73
6
 40
2.5
 49
1.25
 49
-0.25
 49
0.25
 49
-0.25
 49
0.25
 49
-0.25
  0
LTYPE
  2
PHANTOMX2
 70
0
  3
Phantom (2x)____________    ____    ____    ____________
 72
65
 73
6
 40
4.25
 49
2.5
 49
-0.25
 49
0.5
 49
-0.25
 49
0.5
 49
-0.25
  0
LTYPE
  2
PHANTOM2
 70
0
  3
Phantom (.5x) ___ _ _ ___ _ _ ___ _ _ ___ _ _ ___
 72
65
 73
6
 40
1.25
 49
0.625
 49
-0.125
 49
0.125
 49
-0.125
 49
0.125
 49
-0.125
  0
LTYPE
  2
DASHDOT
 70
0
  3
Dash dot __ . __ . __ . __ . __ . __ . __ . __
 72
65
 73
4
 40
1.4
 49
1.0
 49
-0.2
 49
0.0
 49
-0.2
  0
LTYPE
  2
DASHDOTX2
 70
0
  3
Dash dot (2x) ____  .  ____  .  ____  .  ____
 72
65
 73
4
 40
2.4
 49
2.0
 49
-0.2
 49
0.0
 49
-0.2
  0
LTYPE
  2
DASHDOT2
 70
0
  3
Dash dot (.5x) _ . _ . _ . _ . _ . _ . _ . _
 72
65
 73
4
 40
0.7
 49
0.5
 49
-0.1
 49
0.0
 49
-0.1
  0
LTYPE
  2
DOT
 70
0
  3
Dot .  .  .  .  .  .  .  .  .  .  .  .  .  .  .  .
 72
65
 73
2
 40
0.2
 49
0.0
 49
-0.2
  0
LTYPE
  2
DOTX2
 70
0
  3
Dot (2x) .    .    .    .    .    .    .    . 
 72
65
 73
2
 40
0.4
 49
0.0
 49
-0.4
  0
LTYPE
  2
DOT2
 70
0
  3
Dot (.5) . . . . . . . . . . . . . . . . . . . 
 72
65
 73
2
 40
0.1
 49
0.0
 49
-0.1
  0
LTYPE
  2
DIVIDE
 70
0
  3
Divide __ . . __ . . __ . . __ . . __ . . __
 72
65
 73
6
 40
1.6
 49
1.0
 49
-0.2
 49
0.0
 49
-0.2
 49
0.0
 49
-0.2
  0
LTYPE
  2
DIVIDEX2
 70
0
  3
Divide (2x) ____  . .  ____  . .  ____  . .  ____
 72
65
 73
6
 40
2.6
 49
2.0
 49
-0.2
 49
0.0
 49
-0.2
 49
0.0
 49
-0.2
  0
LTYPE
  2
DIVIDE2
 70
0
  3
Divide(.5x) _ . _ . _ . _ . _ . _ . _ . _
 72
65
 73
6
 40
0.8
 49
0.5
 49
-0.1
 49
0.0
 49
-0.1
 49
0.0
 49
-0.1
  0
ENDTAB
  0
TABLE
  2
LAYER
 70
5
  0
LAYER
  2
DIMENSIONS
 70
0
 62
1
  6
CONTINUOUS
  0
LAYER
  2
TABLEBACKGROUND
 70
0
 62
1
  6
CONTINUOUS
  0
LAYER
  2
TABLECONTENT
 70
0
 62
1
  6
CONTINUOUS
  0
LAYER
  2
TABLEGRID
 70
0
 62
1
  6
CONTINUOUS
  0
LAYER
  2
VIEWPORTS
 70
0
 62
7
  6
CONTINUOUS
  0
ENDTAB
  0
TABLE
  2
STYLE
 70
12
  0
STYLE
  2
STANDARD
 70
0
 40
0.0
 41
1.0
 42
1.0
 50
0.0
 71
0
  3
arial.ttf
  4

  0
STYLE
  2
ARIAL
 70
0
 40
0.0
 41
1.0
 42
1.0
 50
0.0
 71
0
  3
arial.ttf
  4

  0
STYLE
  2
ARIAL_BOLD
 70
0
 40
0.0
 41
1.0
 42
1.0
 50
0.0
 71
0
  3
arialbd.ttf
  4

  0
STYLE
  2
ARIAL_ITALIC
 70
0
 40
0.0
 41
1.0
 42
1.0
 50
0.0
 71
0
  3
ariali.ttf
  4

  0
STYLE
  2
ARIAL_BOLD_ITALIC
 70
0
 40
0.0
 41
1.0
 42
1.0
 50
0.0
 71
0
  3
arialbi.ttf
  4

  0
STYLE
  2
ARIAL_BLACK
 70
0
 40
0.0
 41
1.0
 42
1.0
 50
0.0
 71
0
  3
ariblk.ttf
  4

  0
STYLE
  2
ISOCPEUR
 70
0
 40
0.0
 41
1.0
 42
1.0
 50
0.0
 71
0
  3
isocpeur.ttf
  4

  0
STYLE
  2
ISOCPEUR_ITALIC
 70
0
 40
0.0
 41
1.0
 42
1.0
 50
0.0
 71
0
  3
isocpeui.ttf
  4

  0
STYLE
  2
TIMES
 70
0
 40
0.0
 41
1.0
 42
1.0
 50
0.0
 71
0
  3
times.ttf
  4

  0
STYLE
  2
TIMES_BOLD
 70
0
 40
0.0
 41
1.0
 42
1.0
 50
0.0
 71
0
  3
timesbd.ttf
  4

  0
STYLE
  2
TIMES_ITALIC
 70
0
 40
0.0
 41
1.0
 42
1.0
 50
0.0
 71
0
  3
timesi.ttf
  4

  0
STYLE
  2
TIMES_BOLD_ITALIC
 70
0
 40
0.0
 41
1.0
 42
1.0
 50
0.0
 71
0
  3
timesbi.ttf
  4

  0
ENDTAB
  0
TABLE
  2
VIEW
 70
0
  0
ENDTAB
  0
TABLE
  2
APPID
 70
1
  0
APPID
  2
DXFWRITE
 70
0
  0
ENDTAB
  0
TABLE
  2
VPORT
 70
0
  0
ENDTAB
  0
TABLE
  2
UCS
 70
0
  0
ENDTAB
  0
ENDSEC
  0
SECTION
  2
BLOCKS
  0
ENDSEC
  0
SECTION
  2
ENTITIES
  0
VIEWPORT
  8
VIEWPORTS
 67
1
 10
0.0
 20
0.0
 30
0.0
 40
1.0
 41
1.0
 68
1
 69
1
1001
ACAD
1000
MVIEW
1002
{
1070
16
1010
0.0
1020
0.0
1030
0.0
1010
0.0
1020
0.0
1030
0.0
1040
0.0
1040
1.0
1040
0.0
1040
0.0
1040
50.0
1040
0.0
1040
0.0
1070
0
1070
100
1070
1
1070
3
1070
0
1070
0
1070
0
1070
0
1040
0.0
1040
0.0
1040
0.0
1040
0.1
1040
0.1
1040
0.1
1040
0.1
1070
0
1002
{
1002
}
1002
}
  0
POLYLINE
  6
DOT
  8
0
 66
1
 10
0.0
 20
0.0
 30
0.0
 70
8
  0
VERTEX
  8
0
 10
24.5
 20
71.8
 30
0.0
  0
VERTEX
  8
0
 10
24.5
 20
71.9
 30
0.0
  0
VERTEX
  8
0
 10
24.5
 20
72.0
 30
0.0
  0
VERTEX
  8
0
 10
24.5
 20
72.1
 30
0.0
  0
VERTEX
  8
0
 10
24.5
 20
72.2
 30
0.0
  0
VERTEX
  8
0
 10
24.5
 20
72.3
 30
0.0
  0
VERTEX
  8
0
 10
24.5
 20
72.4
 30
0.0
  0
VERTEX
  8
0
 10
24.5
 20
72.5
 30
0.0
  0
VERTEX
  8
0
 10
24.5
 20
72.6
 30
0.0
  0
VERTEX
  8
0
 10
24.5
 20
71.0
 30
0.0
  0
VERTEX
  8
0
 10
24.5
 20
71.1
 30
0.0
  0
VERTEX
  8
0
 10
24.5
 20
71.2
 30
0.0
  0
VERTEX
  8
0
 10
24.5
 20
71.3
 30
0.0
  0
VERTEX
  8
0
 10
24.5
 20
71.4
 30
0.0
  0
VERTEX
  8
0
 10
24.5
 20
71.5
 30
0.0
  0
VERTEX
  8
0
 10
24.5
 20
71.6
 30
0.0
  0
VERTEX
  8
0
 10
24.5
 20
71.7
 30
0.0
  0
VERTEX
  8
0
 10
24.5
 20
71.8
 30
0.0
  0
VERTEX
  8
0
 10
24.6
 20
70.3
 30
0.0
  0
VERTEX
  8
0
 10
24.6
 20
70.4
 30
0.0
  0
VERTEX
  8
0
 10
24.6
 20
70.5
 30
0.0
  0
VERTEX
  8
0
 10
24.6
 20
70.6
 30
0.0
  0
VERTEX
  8
0
 10
24.5
 20
70.7
 30
0.0
  0
VERTEX
  8
0
 10
24.5
 20
70.8
 30
0.0
  0
VERTEX
  8
0
 10
24.5
 20
70.9
 30
0.0
  0
VERTEX
  8
0
 10
24.5
 20
71.0
 30
0.0
  0
VERTEX
  8
0
 10
24.6
 20
69.6
 30
0.0
  0
VERTEX
  8
0
 10
24.6
 20
69.7
 30
0.0
  0
VERTEX
  8
0
 10
24.6
 20
69.8
 30
0.0
  0
VERTEX
  8
0
 10
24.6
 20
69.9
 30
0.0
  0
VERTEX
  8
0
 10
24.6
 20
70.0
 30
0.0
  0
VERTEX
  8
0
 10
24.6
 20
70.1
 30
0.0
  0
VERTEX
  8
0
 10
24.6
 20
70.2
 30
0.0
  0
VERTEX
  8
0
 10
24.6
 20
70.3
 30
0.0
  0
VERTEX
  8
0
 10
24.7
 20
68.8
 30
0.0
  0
VERTEX
  8
0
 10
24.7
 20
68.9
 30
0.0
  0
VERTEX
  8
0
 10
24.7
 20
69.0
 30
0.0
  0
VERTEX
  8
0
 10
24.7
 20
69.1
 30
0.0
  0
VERTEX
  8
0
 10
24.6
 20
69.2
 30
0.0
  0
VERTEX
  8
0
 10
24.6
 20
69.3
 30
0.0
  0
VERTEX
  8
0
 10
24.6
 20
69.4
 30
0.0
  0
VERTEX
  8
0
 10
24.6
 20
69.5
 30
0.0
  0
VERTEX
  8
0
 10
24.6
 20
69.6
 30
0.0
  0
VERTEX
  8
0
 10
24.8
 20
68.1
 30
0.0
  0
VERTEX
  8
0
 10
24.8
 20
68.2
 30
0.0
  0
VERTEX
  8
0
 10
24.8
 20
68.3
 30
0.0
  0
VERTEX
  8
0
 10
24.8
 20
68.4
 30
0.0
  0
VERTEX
  8
0
 10
24.7
 20
68.5
 30
0.0
  0
VERTEX
  8
0
 10
24.7
 20
68.6
 30
0.0
  0
VERTEX
  8
0
 10
24.7
 20
68.7
 30
0.0
  0
VERTEX
  8
0
 10
24.7
 20
68.8
 30
0.0
  0
VERTEX
  8
0
 10
25.0
 20
67.4
 30
0.0
  0
VERTEX
  8
0
 10
25.0
 20
67.5
 30
0.0
  0
VERTEX
  8
0
 10
24.9
 20
67.6
 30
0.0
  0
VERTEX
  8
0
 10
24.9
 20
67.7
 30
0.0
  0
VERTEX
  8
0
 10
24.9
 20
67.8
 30
0.0
  0
VERTEX
  8
0
 10
24.9
 20
67.9
 30
0.0
  0
VERTEX
  8
0
 10
24.8
 20
68.0
 30
0.0
  0
VERTEX
  8
0
 10
24.8
 20
68.1
 30
0.0
  0
VERTEX
  8
0
 10
25.1
 20
66.7
 30
0.0
  0
VERTEX
  8
0
 10
25.1
 20
66.8
 30
0.0
  0
VERTEX
  8
0
 10
25.1
 20
66.9
 30
0.0
  0
VERTEX
  8
0
 10
25.1
 20
67.0
 30
0.0
  0
VERTEX
  8
0
 10
25.0
 20
67.1
 30
0.0
  0
VERTEX
  8
0
 10
25.0
 20
67.2
 30
0.0
  0
VERTEX
  8
0
 10
25.0
 20
67.3
 30
0.0
  0
VERTEX
  8
0
 10
25.0
 20
67.4
 30
0.0
  0
VERTEX
  8
0
 10
25.3
 20
66.0
 30
0.0
  0
VERTEX
  8
0
 10
25.3
 20
66.1
 30
0.0
  0
VERTEX
  8
0
 10
25.2
 20
66.2
 30
0.0
  0
VERTEX
  8
0
 10
25.2
 20
66.3
 30
0.0
  0
VERTEX
  8
0
 10
25.2
 20
66.4
 30
0.0
  0
VERTEX
  8
0
 10
25.2
 20
66.5
 30
0.0
  0
VERTEX
  8
0
 10
25.1
 20
66.6
 30
0.0
  0
VERTEX
  8
0
 10
25.1
 20
66.7
 30
0.0
  0
VERTEX
  8
0
 10
25.5
 20
65.3
 30
0.0
  0
VERTEX
  8
0
 10
25.5
 20
65.4
 30
0.0
  0
VERTEX
  8
0
 10
25.4
 20
65.5
 30
0.0
  0
VERTEX
  8
0
 10
25.4
 20
65.6
 30
0.0
  0
VERTEX
  8
0
 10
25.4
 20
65.7
 30
0.0
  0
VERTEX
  8
0
 10
25.4
 20
65.8
 30
0.0
  0
VERTEX
  8
0
 10
25.3
 20
65.9
 30
0.0
  0
VERTEX
  8
0
 10
25.3
 20
66.0
 30
0.0
  0
VERTEX
  8
0
 10
25.7
 20
64.6
 30
0.0
  0
VERTEX
  8
0
 10
25.7
 20
64.7
 30
0.0
  0
VERTEX
  8
0
 10
25.6
 20
64.8
 30
0.0
  0
VERTEX
  8
0
 10
25.6
 20
64.9
 30
0.0
  0
VERTEX
  8
0
 10
25.6
 20
65.0
 30
0.0
  0
VERTEX
  8
0
 10
25.6
 20
65.1
 30
0.0
  0
VERTEX
  8
0
 10
25.5
 20
65.2
 30
0.0
  0
VERTEX
  8
0
 10
25.5
 20
65.3
 30
0.0
  0
VERTEX
  8
0
 10
25.9
 20
63.9
 30
0.0
  0
VERTEX
  8
0
 10
25.9
 20
64.0
 30
0.0
  0
VERTEX
  8
0
 10
25.8
 20
64.1
 30
0.0
  0
VERTEX
  8
0
 10
25.8
 20
64.2
 30
0.0
  0
VERTEX
  8
0
 10
25.8
 20
64.3
 30
0.0
  0
VERTEX
  8
0
 10
25.8
 20
64.4
 30
0.0
  0
VERTEX
  8
0
 10
25.7
 20
64.5
 30
0.0
  0
VERTEX
  8
0
 10
25.7
 20
64.6
 30
0.0
  0
VERTEX
  8
0
 10
26.1
 20
63.2
 30
0.0
  0
VERTEX
  8
0
 10
26.1
 20
63.3
 30
0.0
  0
VERTEX
  8
0
 10
26.0
 20
63.4
 30
0.0
  0
VERTEX
  8
0
 10
26.0
 20
63.5
 30
0.0
  0
VERTEX
  8
0
 10
26.0
 20
63.6
 30
0.0
  0
VERTEX
  8
0
 10
26.0
 20
63.7
 30
0.0
  0
VERTEX
  8
0
 10
25.9
 20
63.8
 30
0.0
  0
VERTEX
  8
0
 10
25.9
 20
63.9
 30
0.0
  0
VERTEX
  8
0
 10
26.4
 20
62.5
 30
0.0
  0
VERTEX
  8
0
 10
26.4
 20
62.6
 30
0.0
  0
VERTEX
  8
0
 10
26.3
 20
62.7
 30
0.0
  0
VERTEX
  8
0
 10
26.3
 20
62.8
 30
0.0
  0
VERTEX
  8
0
 10
26.2
 20
62.9
 30
0.0
  0
VERTEX
  8
0
 10
26.2
 20
63.0
 30
0.0
  0
VERTEX
  8
0
 10
26.1
 20
63.1
 30
0.0
  0
VERTEX
  8
0
 10
26.1
 20
63.2
 30
0.0
  0
VERTEX
  8
0
 10
26.6
 20
61.9
 30
0.0
  0
VERTEX
  8
0
 10
26.6
 20
62.0
 30
0.0
  0
VERTEX
  8
0
 10
26.5
 20
62.1
 30
0.0
  0
VERTEX
  8
0
 10
26.5
 20
62.2
 30
0.0
  0
VERTEX
  8
0
 10
26.5
 20
62.3
 30
0.0
  0
VERTEX
  8
0
 10
26.4
 20
62.4
 30
0.0
  0
VERTEX
  8
0
 10
26.4
 20
62.5
 30
0.0
  0
VERTEX
  8
0
 10
26.9
 20
61.2
 30
0.0
  0
VERTEX
  8
0
 10
26.9
 20
61.3
 30
0.0
  0
VERTEX
  8
0
 10
26.8
 20
61.4
 30
0.0
  0
VERTEX
  8
0
 10
26.8
 20
61.5
 30
0.0
  0
VERTEX
  8
0
 10
26.7
 20
61.6
 30
0.0
  0
VERTEX
  8
0
 10
26.7
 20
61.7
 30
0.0
  0
VERTEX
  8
0
 10
26.6
 20
61.8
 30
0.0
  0
VERTEX
  8
0
 10
26.6
 20
61.9
 30
0.0
  0
VERTEX
  8
0
 10
27.2
 20
60.5
 30
0.0
  0
VERTEX
  8
0
 10
27.2
 20
60.6
 30
0.0
  0
VERTEX
  8
0
 10
27.1
 20
60.7
 30
0.0
  0
VERTEX
  8
0
 10
27.1
 20
60.8
 30
0.0
  0
VERTEX
  8
0
 10
27.0
 20
60.9
 30
0.0
  0
VERTEX
  8
0
 10
27.0
 20
61.0
 30
0.0
  0
VERTEX
  8
0
 10
26.9
 20
61.1
 30
0.0
  0
VERTEX
  8
0
 10
26.9
 20
61.2
 30
0.0
  0
VERTEX
  8
0
 10
27.5
 20
59.9
 30
0.0
  0
VERTEX
  8
0
 10
27.4
 20
60.0
 30
0.0
  0
VERTEX
  8
0
 10
27.4
 20
60.1
 30
0.0
  0
VERTEX
  8
0
 10
27.3
 20
60.2
 30
0.0
  0
VERTEX
  8
0
 10
27.3
 20
60.3
 30
0.0
  0
VERTEX
  8
0
 10
27.2
 20
60.4
 30
0.0
  0
VERTEX
  8
0
 10
27.2
 20
60.5
 30
0.0
  0
VERTEX
  8
0
 10
27.8
 20
59.2
 30
0.0
  0
VERTEX
  8
0
 10
27.8
 20
59.3
 30
0.0
  0
VERTEX
  8
0
 10
27.7
 20
59.4
 30
0.0
  0
VERTEX
  8
0
 10
27.7
 20
59.5
 30
0.0
  0
VERTEX
  8
0
 10
27.6
 20
59.6
 30
0.0
  0
VERTEX
  8
0
 10
27.6
 20
59.7
 30
0.0
  0
VERTEX
  8
0
 10
27.5
 20
59.8
 30
0.0
  0
VERTEX
  8
0
 10
27.5
 20
59.9
 30
0.0
  0
VERTEX
  8
0
 10
28.2
 20
58.6
 30
0.0
  0
VERTEX
  8
0
 10
28.1
 20
58.7
 30
0.0
  0
VERTEX
  8
0
 10
28.1
 20
58.8
 30
0.0
  0
VERTEX
  8
0
 10
28.0
 20
58.9
 30
0.0
  0
VERTEX
  8
0
 10
27.9
 20
59.0
 30
0.0
  0
VERTEX
  8
0
 10
27.9
 20
59.1
 30
0.0
  0
VERTEX
  8
0
 10
27.8
 20
59.2
 30
0.0
  0
VERTEX
  8
0
 10
28.5
 20
58.0
 30
0.0
  0
VERTEX
  8
0
 10
28.4
 20
58.1
 30
0.0
  0
VERTEX
  8
0
 10
28.4
 20
58.2
 30
0.0
  0
VERTEX
  8
0
 10
28.3
 20
58.3
 30
0.0
  0
VERTEX
  8
0
 10
28.3
 20
58.4
 30
0.0
  0
VERTEX
  8
0
 10
28.2
 20
58.5
 30
0.0
  0
VERTEX
  8
0
 10
28.2
 20
58.6
 30
0.0
  0
VERTEX
  8
0
 10
28.9
 20
57.4
 30
0.0
  0
VERTEX
  8
0
 10
28.8
 20
57.5
 30
0.0
  0
VERTEX
  8
0
 10
28.8
 20
57.6
 30
0.0
  0
VERTEX
  8
0
 10
28.7
 20
57.7
 30
0.0
  0
VERTEX
  8
0
 10
28.6
 20
57.8
 30
0.0
  0
VERTEX
  8
0
 10
28.6
 20
57.9
 30
0.0
  0
VERTEX
  8
0
 10
28.5
 20
58.0
 30
0.0
  0
VERTEX
  8
0
 10
29.2
 20
56.8
 30
0.0
  0
VERTEX
  8
0
 10
29.1
 20
56.9
 30
0.0
  0
VERTEX
  8
0
 10
29.1
 20
57.0
 30
0.0
  0
VERTEX
  8
0
 10
29.0
 20
57.1
 30
0.0
  0
VERTEX
  8
0
 10
29.0
 20
57.2
 30
0.0
  0
VERTEX
  8
0
 10
28.9
 20
57.3
 30
0.0
  0
VERTEX
  8
0
 10
28.9
 20
57.4
 30
0.0
  0
VERTEX
  8
0
 10
29.6
 20
56.2
 30
0.0
  0
VERTEX
  8
0
 10
29.5
 20
56.3
 30
0.0
  0
VERTEX
  8
0
 10
29.5
 20
56.4
 30
0.0
  0
VERTEX
  8
0
 10
29.4
 20
56.5
 30
0.0
  0
VERTEX
  8
0
 10
29.3
 20
56.6
 30
0.0
  0
VERTEX
  8
0
 10
29.3
 20
56.7
 30
0.0
  0
VERTEX
  8
0
 10
29.2
 20
56.8
 30
0.0
  0
VERTEX
  8
0
 10
30.0
 20
55.6
 30
0.0
  0
VERTEX
  8
0
 10
29.9
 20
55.7
 30
0.0
  0
VERTEX
  8
0
 10
29.9
 20
55.8
 30
0.0
  0
VERTEX
  8
0
 10
29.8
 20
55.9
 30
0.0
  0
VERTEX
  8
0
 10
29.7
 20
56.0
 30
0.0
  0
VERTEX
  8
0
 10
29.7
 20
56.1
 30
0.0
  0
VERTEX
  8
0
 10
29.6
 20
56.2
 30
0.0
  0
VERTEX
  8
0
 10
30.5
 20
55.0
 30
0.0
  0
VERTEX
  8
0
 10
30.4
 20
55.1
 30
0.0
  0
VERTEX
  8
0
 10
30.3
 20
55.2
 30
0.0
  0
VERTEX
  8
0
 10
30.2
 20
55.3
 30
0.0
  0
VERTEX
  8
0
 10
30.2
 20
55.4
 30
0.0
  0
VERTEX
  8
0
 10
30.1
 20
55.5
 30
0.0
  0
VERTEX
  8
0
 10
30.0
 20
55.6
 30
0.0
  0
VERTEX
  8
0
 10
30.9
 20
54.4
 30
0.0
  0
VERTEX
  8
0
 10
30.8
 20
54.5
 30
0.0
  0
VERTEX
  8
0
 10
30.8
 20
54.6
 30
0.0
  0
VERTEX
  8
0
 10
30.7
 20
54.7
 30
0.0
  0
VERTEX
  8
0
 10
30.6
 20
54.8
 30
0.0
  0
VERTEX
  8
0
 10
30.6
 20
54.9
 30
0.0
  0
VERTEX
  8
0
 10
30.5
 20
55.0
 30
0.0
  0
VERTEX
  8
0
 10
31.3
 20
53.8
 30
0.0
  0
VERTEX
  8
0
 10
31.2
 20
53.9
 30
0.0
  0
VERTEX
  8
0
 10
31.2
 20
54.0
 30
0.0
  0
VERTEX
  8
0
 10
31.1
 20
54.1
 30
0.0
  0
VERTEX
  8
0
 10
31.0
 20
54.2
 30
0.0
  0
VERTEX
  8
0
 10
31.0
 20
54.3
 30
0.0
  0
VERTEX
  8
0
 10
30.9
 20
54.4
 30
0.0
  0
VERTEX
  8
0
 10
31.3
 20
53.8
 30
0.0
  0
VERTEX
  8
0
 10
31.4
 20
53.7
 30
0.0
  0
VERTEX
  8
0
 10
31.5
 20
53.6
 30
0.0
  0
VERTEX
  8
0
 10
31.6
 20
53.5
 30
0.0
  0
VERTEX
  8
0
 10
31.7
 20
53.4
 30
0.0
  0
VERTEX
  8
0
 10
31.8
 20
53.3
 30
0.0
  0
VERTEX
  8
0
 10
32.2
 20
52.7
 30
0.0
  0
VERTEX
  8
0
 10
32.1
 20
52.8
 30
0.0
  0
VERTEX
  8
0
 10
32.1
 20
52.9
 30
0.0
  0
VERTEX
  8
0
 10
32.0
 20
53.0
 30
0.0
  0
VERTEX
  8
0
 10
31.9
 20
53.1
 30
0.0
  0
VERTEX
  8
0
 10
31.9
 20
53.2
 30
0.0
  0
VERTEX
  8
0
 10
31.8
 20
53.3
 30
0.0
  0
VERTEX
  8
0
 10
32.2
 20
52.7
 30
0.0
  0
VERTEX
  8
0
 10
32.3
 20
52.6
 30
0.0
  0
VERTEX
  8
0
 10
32.4
 20
52.5
 30
0.0
  0
VERTEX
  8
0
 10
32.5
 20
52.4
 30
0.0
  0
VERTEX
  8
0
 10
32.6
 20
52.3
 30
0.0
  0
VERTEX
  8
0
 10
32.7
 20
52.2
 30
0.0
  0
VERTEX
  8
0
 10
32.7
 20
52.2
 30
0.0
  0
VERTEX
  8
0
 10
32.8
 20
52.1
 30
0.0
  0
VERTEX
  8
0
 10
32.9
 20
52.0
 30
0.0
  0
VERTEX
  8
0
 10
33.0
 20
51.9
 30
0.0
  0
VERTEX
  8
0
 10
33.1
 20
51.8
 30
0.0
  0
VERTEX
  8
0
 10
33.2
 20
51.7
 30
0.0
  0
VERTEX
  8
0
 10
33.7
 20
51.1
 30
0.0
  0
VERTEX
  8
0
 10
33.6
 20
51.2
 30
0.0
  0
VERTEX
  8
0
 10
33.5
 20
51.3
 30
0.0
  0
VERTEX
  8
0
 10
33.4
 20
51.4
 30
0.0
  0
VERTEX
  8
0
 10
33.4
 20
51.5
 30
0.0
  0
VERTEX
  8
0
 10
33.3
 20
51.6
 30
0.0
  0
VERTEX
  8
0
 10
33.2
 20
51.7
 30
0.0
  0
VERTEX
  8
0
 10
33.7
 20
51.1
 30
0.0
  0
VERTEX
  8
0
 10
33.8
 20
51.0
 30
0.0
  0
VERTEX
  8
0
 10
33.9
 20
50.9
 30
0.0
  0
VERTEX
  8
0
 10
34.0
 20
50.8
 30
0.0
  0
VERTEX
  8
0
 10
34.1
 20
50.7
 30
0.0
  0
VERTEX
  8
0
 10
34.2
 20
50.6
 30
0.0
  0
VERTEX
  8
0
 10
34.2
 20
50.6
 30
0.0
  0
VERTEX
  8
0
 10
34.3
 20
50.5
 30
0.0
  0
VERTEX
  8
0
 10
34.4
 20
50.4
 30
0.0
  0
VERTEX
  8
0
 10
34.5
 20
50.3
 30
0.0
  0
VERTEX
  8
0
 10
34.6
 20
50.2
 30
0.0
  0
VERTEX
  8
0
 10
34.7
 20
50.1
 30
0.0
  0
VERTEX
  8
0
 10
34.7
 20
50.1
 30
0.0
  0
VERTEX
  8
0
 10
34.8
 20
50.0
 30
0.0
  0
VERTEX
  8
0
 10
34.9
 20
49.9
 30
0.0
  0
VERTEX
  8
0
 10
35.0
 20
49.8
 30
0.0
  0
VERTEX
  8
0
 10
35.1
 20
49.8
 30
0.0
  0
VERTEX
  8
0
 10
35.2
 20
49.7
 30
0.0
  0
VERTEX
  8
0
 10
35.3
 20
49.6
 30
0.0
  0
VERTEX
  8
0
 10
35.3
 20
49.6
 30
0.0
  0
VERTEX
  8
0
 10
35.4
 20
49.5
 30
0.0
  0
VERTEX
  8
0
 10
35.5
 20
49.4
 30
0.0
  0
VERTEX
  8
0
 10
35.6
 20
49.4
 30
0.0
  0
VERTEX
  8
0
 10
35.7
 20
49.3
 30
0.0
  0
VERTEX
  8
0
 10
35.8
 20
49.2
 30
0.0
  0
VERTEX
  8
0
 10
35.8
 20
49.2
 30
0.0
  0
VERTEX
  8
0
 10
35.9
 20
49.1
 30
0.0
  0
VERTEX
  8
0
 10
36.0
 20
49.0
 30
0.0
  0
VERTEX
  8
0
 10
36.1
 20
48.9
 30
0.0
  0
VERTEX
  8
0
 10
36.2
 20
48.9
 30
0.0
  0
VERTEX
  8
0
 10
36.3
 20
48.8
 30
0.0
  0
VERTEX
  8
0
 10
36.4
 20
48.7
 30
0.0
  0
VERTEX
  8
0
 10
36.4
 20
48.7
 30
0.0
  0
VERTEX
  8
0
 10
36.5
 20
48.6
 30
0.0
  0
VERTEX
  8
0
 10
36.6
 20
48.5
 30
0.0
  0
VERTEX
  8
0
 10
36.7
 20
48.4
 30
0.0
  0
VERTEX
  8
0
 10
36.8
 20
48.3
 30
0.0
  0
VERTEX
  8
0
 10
36.9
 20
48.2
 30
0.0
  0
VERTEX
  8
0
 10
36.9
 20
48.2
 30
0.0
  0
VERTEX
  8
0
 10
37.0
 20
48.1
 30
0.0
  0
VERTEX
  8
0
 10
37.1
 20
48.1
 30
0.0
  0
VERTEX
  8
0
 10
37.2
 20
48.0
 30
0.0
  0
VERTEX
  8
0
 10
37.3
 20
47.9
 30
0.0
  0
VERTEX
  8
0
 10
37.4
 20
47.9
 30
0.0
  0
VERTEX
  8
0
 10
37.5
 20
47.8
 30
0.0
  0
VERTEX
  8
0
 10
37.5
 20
47.8
 30
0.0
  0
VERTEX
  8
0
 10
37.6
 20
47.7
 30
0.0
  0
VERTEX
  8
0
 10
37.7
 20
47.6
 30
0.0
  0
VERTEX
  8
0
 10
37.8
 20
47.5
 30
0.0
  0
VERTEX
  8
0
 10
37.9
 20
47.5
 30
0.0
  0
VERTEX
  8
0
 10
38.0
 20
47.4
 30
0.0
  0
VERTEX
  8
0
 10
38.1
 20
47.3
 30
0.0
  0
VERTEX
  8
0
 10
38.1
 20
47.3
 30
0.0
  0
VERTEX
  8
0
 10
38.2
 20
47.2
 30
0.0
  0
VERTEX
  8
0
 10
38.3
 20
47.1
 30
0.0
  0
VERTEX
  8
0
 10
38.4
 20
47.1
 30
0.0
  0
VERTEX
  8
0
 10
38.5
 20
47.0
 30
0.0
  0
VERTEX
  8
0
 10
38.6
 20
46.9
 30
0.0
  0
VERTEX
  8
0
 10
38.6
 20
46.9
 30
0.0
  0
VERTEX
  8
0
 10
38.7
 20
46.8
 30
0.0
  0
VERTEX
  8
0
 10
38.8
 20
46.8
 30
0.0
  0
VERTEX
  8
0
 10
38.9
 20
46.7
 30
0.0
  0
VERTEX
  8
0
 10
39.0
 20
46.6
 30
0.0
  0
VERTEX
  8
0
 10
39.1
 20
46.6
 30
0.0
  0
VERTEX
  8
0
 10
39.2
 20
46.5
 30
0.0
  0
VERTEX
  8
0
 10
39.2
 20
46.5
 30
0.0
  0
VERTEX
  8
0
 10
39.3
 20
46.4
 30
0.0
  0
VERTEX
  8
0
 10
39.4
 20
46.4
 30
0.0
  0
VERTEX
  8
0
 10
39.5
 20
46.3
 30
0.0
  0
VERTEX
  8
0
 10
39.6
 20
46.2
 30
0.0
  0
VERTEX
  8
0
 10
39.7
 20
46.2
 30
0.0
  0
VERTEX
  8
0
 10
39.8
 20
46.1
 30
0.0
  0
VERTEX
  8
0
 10
39.8
 20
46.1
 30
0.0
  0
VERTEX
  8
0
 10
39.9
 20
46.0
 30
0.0
  0
VERTEX
  8
0
 10
40.0
 20
46.0
 30
0.0
  0
VERTEX
  8
0
 10
40.1
 20
45.9
 30
0.0
  0
VERTEX
  8
0
 10
40.2
 20
45.8
 30
0.0
  0
VERTEX
  8
0
 10
40.3
 20
45.8
 30
0.0
  0
VERTEX
  8
0
 10
40.4
 20
45.7
 30
0.0
  0
VERTEX
  8
0
 10
40.4
 20
45.7
 30
0.0
  0
VERTEX
  8
0
 10
40.5
 20
45.6
 30
0.0
  0
VERTEX
  8
0
 10
40.6
 20
45.6
 30
0.0
  0
VERTEX
  8
0
 10
40.7
 20
45.5
 30
0.0
  0
VERTEX
  8
0
 10
40.8
 20
45.5
 30
0.0
  0
VERTEX
  8
0
 10
40.9
 20
45.4
 30
0.0
  0
VERTEX
  8
0
 10
41.0
 20
45.4
 30
0.0
  0
VERTEX
  8
0
 10
41.1
 20
45.3
 30
0.0
  0
VERTEX
  8
0
 10
41.1
 20
45.3
 30
0.0
  0
VERTEX
  8
0
 10
41.2
 20
45.2
 30
0.0
  0
VERTEX
  8
0
 10
41.3
 20
45.2
 30
0.0
  0
VERTEX
  8
0
 10
41.4
 20
45.1
 30
0.0
  0
VERTEX
  8
0
 10
41.5
 20
45.0
 30
0.0
  0
VERTEX
  8
0
 10
41.6
 20
45.0
 30
0.0
  0
VERTEX
  8
0
 10
41.7
 20
44.9
 30
0.0
  0
VERTEX
  8
0
 10
41.7
 20
44.9
 30
0.0
  0
VERTEX
  8
0
 10
41.8
 20
44.8
 30
0.0
  0
VERTEX
  8
0
 10
41.9
 20
44.8
 30
0.0
  0
VERTEX
  8
0
 10
42.0
 20
44.7
 30
0.0
  0
VERTEX
  8
0
 10
42.1
 20
44.6
 30
0.0
  0
VERTEX
  8
0
 10
42.2
 20
44.6
 30
0.0
  0
VERTEX
  8
0
 10
42.3
 20
44.5
 30
0.0
  0
VERTEX
  8
0
 10
42.3
 20
44.5
 30
0.0
  0
VERTEX
  8
0
 10
42.4
 20
44.5
 30
0.0
  0
VERTEX
  8
0
 10
42.5
 20
44.4
 30
0.0
  0
VERTEX
  8
0
 10
42.6
 20
44.4
 30
0.0
  0
VERTEX
  8
0
 10
42.7
 20
44.3
 30
0.0
  0
VERTEX
  8
0
 10
42.8
 20
44.3
 30
0.0
  0
VERTEX
  8
0
 10
42.9
 20
44.2
 30
0.0
  0
VERTEX
  8
0
 10
43.0
 20
44.2
 30
0.0
  0
VERTEX
  8
0
 10
43.0
 20
44.2
 30
0.0
  0
VERTEX
  8
0
 10
43.1
 20
44.1
 30
0.0
  0
VERTEX
  8
0
 10
43.2
 20
44.1
 30
0.0
  0
VERTEX
  8
0
 10
43.3
 20
44.0
 30
0.0
  0
VERTEX
  8
0
 10
43.4
 20
43.9
 30
0.0
  0
VERTEX
  8
0
 10
43.5
 20
43.9
 30
0.0
  0
VERTEX
  8
0
 10
43.6
 20
43.8
 30
0.0
  0
VERTEX
  8
0
 10
43.6
 20
43.8
 30
0.0
  0
VERTEX
  8
0
 10
43.7
 20
43.7
 30
0.0
  0
VERTEX
  8
0
 10
43.8
 20
43.7
 30
0.0
  0
VERTEX
  8
0
 10
43.9
 20
43.6
 30
0.0
  0
VERTEX
  8
0
 10
44.0
 20
43.6
 30
0.0
  0
VERTEX
  8
0
 10
44.1
 20
43.5
 30
0.0
  0
VERTEX
  8
0
 10
44.2
 20
43.5
 30
0.0
  0
VERTEX
  8
0
 10
44.2
 20
43.5
 30
0.0
  0
VERTEX
  8
0
 10
44.3
 20
43.5
 30
0.0
  0
VERTEX
  8
0
 10
44.4
 20
43.4
 30
0.0
  0
VERTEX
  8
0
 10
44.5
 20
43.4
 30
0.0
  0
VERTEX
  8
0
 10
44.6
 20
43.3
 30
0.0
  0
VERTEX
  8
0
 10
44.7
 20
43.3
 30
0.0
  0
VERTEX
  8
0
 10
44.8
 20
43.2
 30
0.0
  0
VERTEX
  8
0
 10
44.9
 20
43.2
 30
0.0
  0
VERTEX
  8
0
 10
44.9
 20
43.2
 30
0.0
  0
VERTEX
  8
0
 10
45.0
 20
43.2
 30
0.0
  0
VERTEX
  8
0
 10
45.1
 20
43.1
 30
0.0
  0
VERTEX
  8
0
 10
45.2
 20
43.1
 30
0.0
  0
VERTEX
  8
0
 10
45.3
 20
43.0
 30
0.0
  0
VERTEX
  8
0
 10
45.4
 20
43.0
 30
0.0
  0
VERTEX
  8
0
 10
45.5
 20
42.9
 30
0.0
  0
VERTEX
  8
0
 10
45.6
 20
42.9
 30
0.0
  0
VERTEX
  8
0
 10
45.6
 20
42.9
 30
0.0
  0
VERTEX
  8
0
 10
45.7
 20
42.8
 30
0.0
  0
VERTEX
  8
0
 10
45.8
 20
42.8
 30
0.0
  0
VERTEX
  8
0
 10
45.9
 20
42.7
 30
0.0
  0
VERTEX
  8
0
 10
46.0
 20
42.7
 30
0.0
  0
VERTEX
  8
0
 10
46.1
 20
42.6
 30
0.0
  0
VERTEX
  8
0
 10
46.2
 20
42.6
 30
0.0
  0
VERTEX
  8
0
 10
46.2
 20
42.6
 30
0.0
  0
VERTEX
  8
0
 10
46.3
 20
42.6
 30
0.0
  0
VERTEX
  8
0
 10
46.4
 20
42.5
 30
0.0
  0
VERTEX
  8
0
 10
46.5
 20
42.5
 30
0.0
  0
VERTEX
  8
0
 10
46.6
 20
42.4
 30
0.0
  0
VERTEX
  8
0
 10
46.7
 20
42.4
 30
0.0
  0
VERTEX
  8
0
 10
46.8
 20
42.3
 30
0.0
  0
VERTEX
  8
0
 10
46.9
 20
42.3
 30
0.0
  0
VERTEX
  8
0
 10
46.9
 20
42.3
 30
0.0
  0
VERTEX
  8
0
 10
47.0
 20
42.3
 30
0.0
  0
VERTEX
  8
0
 10
47.1
 20
42.2
 30
0.0
  0
VERTEX
  8
0
 10
47.2
 20
42.2
 30
0.0
  0
VERTEX
  8
0
 10
47.3
 20
42.1
 30
0.0
  0
VERTEX
  8
0
 10
47.4
 20
42.1
 30
0.0
  0
VERTEX
  8
0
 10
47.5
 20
42.0
 30
0.0
  0
VERTEX
  8
0
 10
47.6
 20
42.0
 30
0.0
  0
VERTEX
  8
0
 10
47.6
 20
42.0
 30
0.0
  0
VERTEX
  8
0
 10
47.7
 20
42.0
 30
0.0
  0
VERTEX
  8
0
 10
47.8
 20
41.9
 30
0.0
  0
VERTEX
  8
0
 10
47.9
 20
41.9
 30
0.0
  0
VERTEX
  8
0
 10
48.0
 20
41.9
 30
0.0
  0
VERTEX
  8
0
 10
48.1
 20
41.9
 30
0.0
  0
VERTEX
  8
0
 10
48.2
 20
41.8
 30
0.0
  0
VERTEX
  8
0
 10
48.3
 20
41.8
 30
0.0
  0
VERTEX
  8
0
 10
48.3
 20
41.8
 30
0.0
  0
VERTEX
  8
0
 10
48.4
 20
41.7
 30
0.0
  0
VERTEX
  8
0
 10
48.5
 20
41.7
 30
0.0
  0
VERTEX
  8
0
 10
48.6
 20
41.6
 30
0.0
  0
VERTEX
  8
0
 10
48.7
 20
41.6
 30
0.0
  0
VERTEX
  8
0
 10
48.8
 20
41.5
 30
0.0
  0
VERTEX
  8
0
 10
48.9
 20
41.5
 30
0.0
  0
VERTEX
  8
0
 10
48.9
 20
41.5
 30
0.0
  0
VERTEX
  8
0
 10
49.0
 20
41.5
 30
0.0
  0
VERTEX
  8
0
 10
49.1
 20
41.4
 30
0.0
  0
VERTEX
  8
0
 10
49.2
 20
41.4
 30
0.0
  0
VERTEX
  8
0
 10
49.3
 20
41.4
 30
0.0
  0
VERTEX
  8
0
 10
49.4
 20
41.4
 30
0.0
  0
VERTEX
  8
0
 10
49.5
 20
41.3
 30
0.0
  0
VERTEX
  8
0
 10
49.6
 20
41.3
 30
0.0
  0
VERTEX
  8
0
 10
49.6
 20
41.3
 30
0.0
  0
VERTEX
  8
0
 10
49.7
 20
41.3
 30
0.0
  0
VERTEX
  8
0
 10
49.8
 20
41.2
 30
0.0
  0
VERTEX
  8
0
 10
49.9
 20
41.2
 30
0.0
  0
VERTEX
  8
0
 10
50.0
 20
41.2
 30
0.0
  0
VERTEX
  8
0
 10
50.1
 20
41.2
 30
0.0
  0
VERTEX
  8
0
 10
50.2
 20
41.1
 30
0.0
  0
VERTEX
  8
0
 10
50.3
 20
41.1
 30
0.0
  0
VERTEX
  8
0
 10
50.3
 20
41.1
 30
0.0
  0
VERTEX
  8
0
 10
50.4
 20
41.1
 30
0.0
  0
VERTEX
  8
0
 10
50.5
 20
41.0
 30
0.0
  0
VERTEX
  8
0
 10
50.6
 20
41.0
 30
0.0
  0
VERTEX
  8
0
 10
50.7
 20
41.0
 30
0.0
  0
VERTEX
  8
0
 10
50.8
 20
41.0
 30
0.0
  0
VERTEX
  8
0
 10
50.9
 20
40.9
 30
0.0
  0
VERTEX
  8
0
 10
51.0
 20
40.9
 30
0.0
  0
VERTEX
  8
0
 10
51.0
 20
40.9
 30
0.0
  0
VERTEX
  8
0
 10
51.1
 20
40.9
 30
0.0
  0
VERTEX
  8
0
 10
51.2
 20
40.8
 30
0.0
  0
VERTEX
  8
0
 10
51.3
 20
40.8
 30
0.0
  0
VERTEX
  8
0
 10
51.4
 20
40.8
 30
0.0
  0
VERTEX
  8
0
 10
51.5
 20
40.8
 30
0.0
  0
VERTEX
  8
0
 10
51.6
 20
40.7
 30
0.0
  0
VERTEX
  8
0
 10
51.7
 20
40.7
 30
0.0
  0
VERTEX
  8
0
 10
51.7
 20
40.7
 30
0.0
  0
VERTEX
  8
0
 10
51.8
 20
40.7
 30
0.0
  0
VERTEX
  8
0
 10
51.9
 20
40.6
 30
0.0
  0
VERTEX
  8
0
 10
52.0
 20
40.6
 30
0.0
  0
VERTEX
  8
0
 10
52.1
 20
40.6
 30
0.0
  0
VERTEX
  8
0
 10
52.2
 20
40.6
 30
0.0
  0
VERTEX
  8
0
 10
52.3
 20
40.5
 30
0.0
  0
VERTEX
  8
0
 10
52.4
 20
40.5
 30
0.0
  0
VERTEX
  8
0
 10
52.4
 20
40.5
 30
0.0
  0
VERTEX
  8
0
 10
52.5
 20
40.5
 30
0.0
  0
VERTEX
  8
0
 10
52.6
 20
40.4
 30
0.0
  0
VERTEX
  8
0
 10
52.7
 20
40.4
 30
0.0
  0
VERTEX
  8
0
 10
52.8
 20
40.4
 30
0.0
  0
VERTEX
  8
0
 10
52.9
 20
40.4
 30
0.0
  0
VERTEX
  8
0
 10
53.0
 20
40.3
 30
0.0
  0
VERTEX
  8
0
 10
53.1
 20
40.3
 30
0.0
  0
VERTEX
  8
0
 10
53.1
 20
40.3
 30
0.0
  0
VERTEX
  8
0
 10
53.2
 20
40.3
 30
0.0
  0
VERTEX
  8
0
 10
53.3
 20
40.3
 30
0.0
  0
VERTEX
  8
0
 10
53.4
 20
40.3
 30
0.0
  0
VERTEX
  8
0
 10
53.5
 20
40.2
 30
0.0
  0
VERTEX
  8
0
 10
53.6
 20
40.2
 30
0.0
  0
VERTEX
  8
0
 10
53.7
 20
40.2
 30
0.0
  0
VERTEX
  8
0
 10
53.8
 20
40.2
 30
0.0
  0
VERTEX
  8
0
 10
53.8
 20
40.2
 30
0.0
  0
VERTEX
  8
0
 10
53.9
 20
40.2
 30
0.0
  0
VERTEX
  8
0
 10
54.0
 20
40.1
 30
0.0
  0
VERTEX
  8
0
 10
54.1
 20
40.1
 30
0.0
  0
VERTEX
  8
0
 10
54.2
 20
40.1
 30
0.0
  0
VERTEX
  8
0
 10
54.3
 20
40.1
 30
0.0
  0
VERTEX
  8
0
 10
54.4
 20
40.0
 30
0.0
  0
VERTEX
  8
0
 10
54.5
 20
40.0
 30
0.0
  0
VERTEX
  8
0
 10
54.5
 20
40.0
 30
0.0
  0
VERTEX
  8
0
 10
54.6
 20
40.0
 30
0.0
  0
VERTEX
  8
0
 10
54.7
 20
40.0
 30
0.0
  0
VERTEX
  8
0
 10
54.8
 20
40.0
 30
0.0
  0
VERTEX
  8
0
 10
54.9
 20
39.9
 30
0.0
  0
VERTEX
  8
0
 10
55.0
 20
39.9
 30
0.0
  0
VERTEX
  8
0
 10
55.1
 20
39.9
 30
0.0
  0
VERTEX
  8
0
 10
55.2
 20
39.9
 30
0.0
  0
VERTEX
  8
0
 10
55.3
 20
39.9
 30
0.0
  0
VERTEX
  8
0
 10
55.3
 20
39.9
 30
0.0
  0
VERTEX
  8
0
 10
55.4
 20
39.9
 30
0.0
  0
VERTEX
  8
0
 10
55.5
 20
39.9
 30
0.0
  0
VERTEX
  8
0
 10
55.6
 20
39.9
 30
0.0
  0
VERTEX
  8
0
 10
55.7
 20
39.8
 30
0.0
  0
VERTEX
  8
0
 10
55.8
 20
39.8
 30
0.0
  0
VERTEX
  8
0
 10
55.9
 20
39.8
 30
0.0
  0
VERTEX
  8
0
 10
56.0
 20
39.8
 30
0.0
  0
VERTEX
  8
0
 10
56.0
 20
39.8
 30
0.0
  0
VERTEX
  8
0
 10
56.1
 20
39.8
 30
0.0
  0
VERTEX
  8
0
 10
56.2
 20
39.8
 30
0.0
  0
VERTEX
  8
0
 10
56.3
 20
39.8
 30
0.0
  0
VERTEX
  8
0
 10
56.4
 20
39.7
 30
0.0
  0
VERTEX
  8
0
 10
56.5
 20
39.7
 30
0.0
  0
VERTEX
  8
0
 10
56.6
 20
39.7
 30
0.0
  0
VERTEX
  8
0
 10
56.7
 20
39.7
 30
0.0
  0
VERTEX
  8
0
 10
56.7
 20
39.7
 30
0.0
  0
VERTEX
  8
0
 10
56.8
 20
39.7
 30
0.0
  0
VERTEX
  8
0
 10
56.9
 20
39.7
 30
0.0
  0
VERTEX
  8
0
 10
57.0
 20
39.7
 30
0.0
  0
VERTEX
  8
0
 10
57.1
 20
39.6
 30
0.0
  0
VERTEX
  8
0
 10
57.2
 20
39.6
 30
0.0
  0
VERTEX
  8
0
 10
57.3
 20
39.6
 30
0.0
  0
VERTEX
  8
0
 10
57.4
 20
39.6
 30
0.0
  0
VERTEX
  8
0
 10
57.4
 20
39.6
 30
0.0
  0
VERTEX
  8
0
 10
57.5
 20
39.6
 30
0.0
  0
VERTEX
  8
0
 10
57.6
 20
39.6
 30
0.0
  0
VERTEX
  8
0
 10
57.7
 20
39.6
 30
0.0
  0
VERTEX
  8
0
 10
57.8
 20
39.6
 30
0.0
  0
VERTEX
  8
0
 10
57.9
 20
39.6
 30
0.0
  0
VERTEX
  8
0
 10
58.0
 20
39.6
 30
0.0
  0
VERTEX
  8
0
 10
58.1
 20
39.6
 30
0.0
  0
VERTEX
  8
0
 10
58.1
 20
39.6
 30
0.0
  0
VERTEX
  8
0
 10
58.2
 20
39.6
 30
0.0
  0
VERTEX
  8
0
 10
58.3
 20
39.6
 30
0.0
  0
VERTEX
  8
0
 10
58.4
 20
39.6
 30
0.0
  0
VERTEX
  8
0
 10
58.5
 20
39.5
 30
0.0
  0
VERTEX
  8
0
 10
58.6
 20
39.5
 30
0.0
  0
VERTEX
  8
0
 10
58.7
 20
39.5
 30
0.0
  0
VERTEX
  8
0
 10
58.8
 20
39.5
 30
0.0
  0
VERTEX
  8
0
 10
58.8
 20
39.5
 30
0.0
  0
VERTEX
  8
0
 10
58.9
 20
39.5
 30
0.0
  0
VERTEX
  8
0
 10
59.0
 20
39.5
 30
0.0
  0
VERTEX
  8
0
 10
59.1
 20
39.5
 30
0.0
  0
VERTEX
  8
0
 10
59.2
 20
39.5
 30
0.0
  0
VERTEX
  8
0
 10
59.3
 20
39.5
 30
0.0
  0
VERTEX
  8
0
 10
59.4
 20
39.5
 30
0.0
  0
VERTEX
  8
0
 10
59.5
 20
39.5
 30
0.0
  0
VERTEX
  8
0
 10
59.6
 20
39.5
 30
0.0
  0
VERTEX
  8
0
 10
59.6
 20
39.5
 30
0.0
  0
VERTEX
  8
0
 10
59.7
 20
39.5
 30
0.0
  0
VERTEX
  8
0
 10
59.8
 20
39.5
 30
0.0
  0
VERTEX
  8
0
 10
59.9
 20
39.5
 30
0.0
  0
VERTEX
  8
0
 10
60.0
 20
39.4
 30
0.0
  0
VERTEX
  8
0
 10
60.1
 20
39.4
 30
0.0
  0
VERTEX
  8
0
 10
60.2
 20
39.4
 30
0.0
  0
VERTEX
  8
0
 10
60.3
 20
39.4
 30
0.0
  0
VERTEX
  8
0
 10
60.3
 20
39.4
 30
0.0
  0
VERTEX
  8
0
 10
60.4
 20
39.4
 30
0.0
  0
VERTEX
  8
0
 10
60.5
 20
39.4
 30
0.0
  0
VERTEX
  8
0
 10
60.6
 20
39.4
 30
0.0
  0
VERTEX
  8
0
 10
60.7
 20
39.4
 30
0.0
  0
VERTEX
  8
0
 10
60.8
 20
39.4
 30
0.0
  0
VERTEX
  8
0
 10
60.9
 20
39.4
 30
0.0
  0
VERTEX
  8
0
 10
61.0
 20
39.4
 30
0.0
  0
VERTEX
  8
0
 10
61.0
 20
39.4
 30
0.0
  0
VERTEX
  8
0
 10
61.1
 20
39.4
 30
0.0
  0
VERTEX
  8
0
 10
61.2
 20
39.4
 30
0.0
  0
VERTEX
  8
0
 10
61.3
 20
39.4
 30
0.0
  0
VERTEX
  8
0
 10
61.4
 20
39.4
 30
0.0
  0
VERTEX
  8
0
 10
61.5
 20
39.4
 30
0.0
  0
VERTEX
  8
0
 10
61.6
 20
39.4
 30
0.0
  0
VERTEX
  8
0
 10
61.7
 20
39.4
 30
0.0
  0
VERTEX
  8
0
 10
61.7
 20
39.4
 30
0.0
  0
VERTEX
  8
0
 10
61.8
 20
39.4
 30
0.0
  0
VERTEX
  8
0
 10
61.9
 20
39.4
 30
0.0
  0
VERTEX
  8
0
 10
62.0
 20
39.4
 30
0.0
  0
VERTEX
  8
0
 10
62.1
 20
39.5
 30
0.0
  0
VERTEX
  8
0
 10
62.2
 20
39.5
 30
0.0
  0
VERTEX
  8
0
 10
62.3
 20
39.5
 30
0.0
  0
VERTEX
  8
0
 10
62.4
 20
39.5
 30
0.0
  0
VERTEX
  8
0
 10
62.4
 20
39.5
 30
0.0
  0
VERTEX
  8
0
 10
62.5
 20
39.5
 30
0.0
  0
VERTEX
  8
0
 10
62.6
 20
39.5
 30
0.0
  0
VERTEX
  8
0
 10
62.7
 20
39.5
 30
0.0
  0
VERTEX
  8
0
 10
62.8
 20
39.5
 30
0.0
  0
VERTEX
  8
0
 10
62.9
 20
39.5
 30
0.0
  0
VERTEX
  8
0
 10
63.0
 20
39.5
 30
0.0
  0
VERTEX
  8
0
 10
63.1
 20
39.5
 30
0.0
  0
VERTEX
  8
0
 10
63.1
 20
39.5
 30
0.0
  0
VERTEX
  8
0
 10
63.2
 20
39.5
 30
0.0
  0
VERTEX
  8
0
 10
63.3
 20
39.5
 30
0.0
  0
VERTEX
  8
0
 10
63.4
 20
39.5
 30
0.0
  0
VERTEX
  8
0
 10
63.5
 20
39.5
 30
0.0
  0
VERTEX
  8
0
 10
63.6
 20
39.5
 30
0.0
  0
VERTEX
  8
0
 10
63.7
 20
39.5
 30
0.0
  0
VERTEX
  8
0
 10
63.8
 20
39.5
 30
0.0
  0
VERTEX
  8
0
 10
63.8
 20
39.5
 30
0.0
  0
VERTEX
  8
0
 10
63.9
 20
39.5
 30
0.0
  0
VERTEX
  8
0
 10
64.0
 20
39.5
 30
0.0
  0
VERTEX
  8
0
 10
64.1
 20
39.5
 30
0.0
  0
VERTEX
  8
0
 10
64.2
 20
39.6
 30
0.0
  0
VERTEX
  8
0
 10
64.3
 20
39.6
 30
0.0
  0
VERTEX
  8
0
 10
64.4
 20
39.6
 30
0.0
  0
VERTEX
  8
0
 10
64.5
 20
39.6
 30
0.0
  0
VERTEX
  8
0
 10
64.6
 20
39.6
 30
0.0
  0
VERTEX
  8
0
 10
64.6
 20
39.6
 30
0.0
  0
VERTEX
  8
0
 10
64.7
 20
39.6
 30
0.0
  0
VERTEX
  8
0
 10
64.8
 20
39.6
 30
0.0
  0
VERTEX
  8
0
 10
64.9
 20
39.6
 30
0.0
  0
VERTEX
  8
0
 10
65.0
 20
39.7
 30
0.0
  0
VERTEX
  8
0
 10
65.1
 20
39.7
 30
0.0
  0
VERTEX
  8
0
 10
65.2
 20
39.7
 30
0.0
  0
VERTEX
  8
0
 10
65.3
 20
39.7
 30
0.0
  0
VERTEX
  8
0
 10
65.3
 20
39.7
 30
0.0
  0
VERTEX
  8
0
 10
65.4
 20
39.7
 30
0.0
  0
VERTEX
  8
0
 10
65.5
 20
39.7
 30
0.0
  0
VERTEX
  8
0
 10
65.6
 20
39.7
 30
0.0
  0
VERTEX
  8
0
 10
65.7
 20
39.8
 30
0.0
  0
VERTEX
  8
0
 10
65.8
 20
39.8
 30
0.0
  0
VERTEX
  8
0
 10
65.9
 20
39.8
 30
0.0
  0
VERTEX
  8
0
 10
66.0
 20
39.8
 30
0.0
  0
VERTEX
  8
0
 10
66.0
 20
39.8
 30
0.0
  0
VERTEX
  8
0
 10
66.1
 20
39.8
 30
0.0
  0
VERTEX
  8
0
 10
66.2
 20
39.8
 30
0.0
  0
VERTEX
  8
0
 10
66.3
 20
39.8
 30
0.0
  0
VERTEX
  8
0
 10
66.4
 20
39.9
 30
0.0
  0
VERTEX
  8
0
 10
66.5
 20
39.9
 30
0.0
  0
VERTEX
  8
0
 10
66.6
 20
39.9
 30
0.0
  0
VERTEX
  8
0
 10
66.7
 20
39.9
 30
0.0
  0
VERTEX
  8
0
 10
66.7
 20
39.9
 30
0.0
  0
VERTEX
  8
0
 10
66.8
 20
39.9
 30
0.0
  0
VERTEX
  8
0
 10
66.9
 20
39.9
 30
0.0
  0
VERTEX
  8
0
 10
67.0
 20
39.9
 30
0.0
  0
VERTEX
  8
0
 10
67.1
 20
40.0
 30
0.0
  0
VERTEX
  8
0
 10
67.2
 20
40.0
 30
0.0
  0
VERTEX
  8
0
 10
67.3
 20
40.0
 30
0.0
  0
VERTEX
  8
0
 10
67.4
 20
40.0
 30
0.0
  0
VERTEX
  8
0
 10
67.4
 20
40.0
 30
0.0
  0
VERTEX
  8
0
 10
67.5
 20
40.0
 30
0.0
  0
VERTEX
  8
0
 10
67.6
 20
40.1
 30
0.0
  0
VERTEX
  8
0
 10
67.7
 20
40.1
 30
0.0
  0
VERTEX
  8
0
 10
67.8
 20
40.1
 30
0.0
  0
VERTEX
  8
0
 10
67.9
 20
40.1
 30
0.0
  0
VERTEX
  8
0
 10
68.0
 20
40.2
 30
0.0
  0
VERTEX
  8
0
 10
68.1
 20
40.2
 30
0.0
  0
VERTEX
  8
0
 10
68.1
 20
40.2
 30
0.0
  0
VERTEX
  8
0
 10
68.2
 20
40.2
 30
0.0
  0
VERTEX
  8
0
 10
68.3
 20
40.3
 30
0.0
  0
VERTEX
  8
0
 10
68.4
 20
40.3
 30
0.0
  0
VERTEX
  8
0
 10
68.5
 20
40.3
 30
0.0
  0
VERTEX
  8
0
 10
68.6
 20
40.3
 30
0.0
  0
VERTEX
  8
0
 10
68.7
 20
40.4
 30
0.0
  0
VERTEX
  8
0
 10
68.8
 20
40.4
 30
0.0
  0
VERTEX
  8
0
 10
68.8
 20
40.4
 30
0.0
  0
VERTEX
  8
0
 10
68.9
 20
40.4
 30
0.0
  0
VERTEX
  8
0
 10
69.0
 20
40.4
 30
0.0
  0
VERTEX
  8
0
 10
69.1
 20
40.4
 30
0.0
  0
VERTEX
  8
0
 10
69.2
 20
40.5
 30
0.0
  0
VERTEX
  8
0
 10
69.3
 20
40.5
 30
0.0
  0
VERTEX
  8
0
 10
69.4
 20
40.5
 30
0.0
  0
VERTEX
  8
0
 10
69.5
 20
40.5
 30
0.0
  0
VERTEX
  8
0
 10
69.5
 20
40.5
 30
0.0
  0
VERTEX
  8
0
 10
69.6
 20
40.5
 30
0.0
  0
VERTEX
  8
0
 10
69.7
 20
40.6
 30
0.0
  0
VERTEX
  8
0
 10
69.8
 20
40.6
 30
0.0
  0
VERTEX
  8
0
 10
69.9
 20
40.6
 30
0.0
  0
VERTEX
  8
0
 10
70.0
 20
40.6
 30
0.0
  0
VERTEX
  8
0
 10
70.1
 20
40.7
 30
0.0
  0
VERTEX
  8
0
 10
70.2
 20
40.7
 30
0.0
  0
VERTEX
  8
0
 10
70.2
 20
40.7
 30
0.0
  0
VERTEX
  8
0
 10
70.3
 20
40.7
 30
0.0
  0
VERTEX
  8
0
 10
70.4
 20
40.8
 30
0.0
  0
VERTEX
  8
0
 10
70.5
 20
40.8
 30
0.0
  0
VERTEX
  8
0
 10
70.6
 20
40.8
 30
0.0
  0
VERTEX
  8
0
 10
70.7
 20
40.9
 30
0.0
  0
VERTEX
  8
0
 10
70.8
 20
40.9
 30
0.0
  0
VERTEX
  8
0
 10
70.8
 20
40.9
 30
0.0
  0
VERTEX
  8
0
 10
70.9
 20
40.9
 30
0.0
  0
VERTEX
  8
0
 10
71.0
 20
41.0
 30
0.0
  0
VERTEX
  8
0
 10
71.1
 20
41.0
 30
0.0
  0
VERTEX
  8
0
 10
71.2
 20
41.1
 30
0.0
  0
VERTEX
  8
0
 10
71.3
 20
41.1
 30
0.0
  0
VERTEX
  8
0
 10
71.4
 20
41.2
 30
0.0
  0
VERTEX
  8
0
 10
71.5
 20
41.2
 30
0.0
  0
VERTEX
  8
0
 10
71.5
 20
41.2
 30
0.0
  0
VERTEX
  8
0
 10
71.6
 20
41.2
 30
0.0
  0
VERTEX
  8
0
 10
71.7
 20
41.3
 30
0.0
  0
VERTEX
  8
0
 10
71.8
 20
41.3
 30
0.0
  0
VERTEX
  8
0
 10
71.9
 20
41.3
 30
0.0
  0
VERTEX
  8
0
 10
72.0
 20
41.3
 30
0.0
  0
VERTEX
  8
0
 10
72.1
 20
41.4
 30
0.0
  0
VERTEX
  8
0
 10
72.2
 20
41.4
 30
0.0
  0
VERTEX
  8
0
 10
72.2
 20
41.4
 30
0.0
  0
VERTEX
  8
0
 10
72.3
 20
41.4
 30
0.0
  0
VERTEX
  8
0
 10
72.4
 20
41.5
 30
0.0
  0
VERTEX
  8
0
 10
72.5
 20
41.5
 30
0.0
  0
VERTEX
  8
0
 10
72.6
 20
41.6
 30
0.0
  0
VERTEX
  8
0
 10
72.7
 20
41.6
 30
0.0
  0
VERTEX
  8
0
 10
72.8
 20
41.7
 30
0.0
  0
VERTEX
  8
0
 10
72.9
 20
41.7
 30
0.0
  0
VERTEX
  8
0
 10
72.9
 20
41.7
 30
0.0
  0
VERTEX
  8
0
 10
73.0
 20
41.8
 30
0.0
  0
VERTEX
  8
0
 10
73.1
 20
41.8
 30
0.0
  0
VERTEX
  8
0
 10
73.2
 20
41.9
 30
0.0
  0
VERTEX
  8
0
 10
73.3
 20
41.9
 30
0.0
  0
VERTEX
  8
0
 10
73.4
 20
42.0
 30
0.0
  0
VERTEX
  8
0
 10
73.5
 20
42.0
 30
0.0
  0
VERTEX
  8
0
 10
73.5
 20
42.0
 30
0.0
  0
VERTEX
  8
0
 10
73.6
 20
42.0
 30
0.0
  0
VERTEX
  8
0
 10
73.7
 20
42.1
 30
0.0
  0
VERTEX
  8
0
 10
73.8
 20
42.1
 30
0.0
  0
VERTEX
  8
0
 10
73.9
 20
42.2
 30
0.0
  0
VERTEX
  8
0
 10
74.0
 20
42.2
 30
0.0
  0
VERTEX
  8
0
 10
74.1
 20
42.3
 30
0.0
  0
VERTEX
  8
0
 10
74.2
 20
42.3
 30
0.0
  0
VERTEX
  8
0
 10
74.2
 20
42.3
 30
0.0
  0
VERTEX
  8
0
 10
74.3
 20
42.3
 30
0.0
  0
VERTEX
  8
0
 10
74.4
 20
42.4
 30
0.0
  0
VERTEX
  8
0
 10
74.5
 20
42.4
 30
0.0
  0
VERTEX
  8
0
 10
74.6
 20
42.5
 30
0.0
  0
VERTEX
  8
0
 10
74.7
 20
42.5
 30
0.0
  0
VERTEX
  8
0
 10
74.8
 20
42.6
 30
0.0
  0
VERTEX
  8
0
 10
74.9
 20
42.6
 30
0.0
  0
VERTEX
  8
0
 10
74.9
 20
42.6
 30
0.0
  0
VERTEX
  8
0
 10
75.0
 20
42.7
 30
0.0
  0
VERTEX
  8
0
 10
75.1
 20
42.7
 30
0.0
  0
VERTEX
  8
0
 10
75.2
 20
42.8
 30
0.0
  0
VERTEX
  8
0
 10
75.3
 20
42.8
 30
0.0
  0
VERTEX
  8
0
 10
75.4
 20
42.9
 30
0.0
  0
VERTEX
  8
0
 10
75.5
 20
42.9
 30
0.0
  0
VERTEX
  8
0
 10
75.5
 20
42.9
 30
0.0
  0
VERTEX
  8
0
 10
75.6
 20
43.0
 30
0.0
  0
VERTEX
  8
0
 10
75.7
 20
43.0
 30
0.0
  0
VERTEX
  8
0
 10
75.8
 20
43.1
 30
0.0
  0
VERTEX
  8
0
 10
75.9
 20
43.1
 30
0.0
  0
VERTEX
  8
0
 10
76.0
 20
43.2
 30
0.0
  0
VERTEX
  8
0
 10
76.1
 20
43.2
 30
0.0
  0
VERTEX
  8
0
 10
76.2
 20
43.3
 30
0.0
  0
VERTEX
  8
0
 10
76.2
 20
43.3
 30
0.0
  0
VERTEX
  8
0
 10
76.3
 20
43.4
 30
0.0
  0
VERTEX
  8
0
 10
76.4
 20
43.4
 30
0.0
  0
VERTEX
  8
0
 10
76.5
 20
43.5
 30
0.0
  0
VERTEX
  8
0
 10
76.6
 20
43.6
 30
0.0
  0
VERTEX
  8
0
 10
76.7
 20
43.6
 30
0.0
  0
VERTEX
  8
0
 10
76.8
 20
43.7
 30
0.0
  0
VERTEX
  8
0
 10
76.8
 20
43.7
 30
0.0
  0
VERTEX
  8
0
 10
76.9
 20
43.8
 30
0.0
  0
VERTEX
  8
0
 10
77.0
 20
43.8
 30
0.0
  0
VERTEX
  8
0
 10
77.1
 20
43.9
 30
0.0
  0
VERTEX
  8
0
 10
77.2
 20
43.9
 30
0.0
  0
VERTEX
  8
0
 10
77.3
 20
44.0
 30
0.0
  0
VERTEX
  8
0
 10
77.4
 20
44.0
 30
0.0
  0
VERTEX
  8
0
 10
77.4
 20
44.0
 30
0.0
  0
VERTEX
  8
0
 10
77.5
 20
44.1
 30
0.0
  0
VERTEX
  8
0
 10
77.6
 20
44.1
 30
0.0
  0
VERTEX
  8
0
 10
77.7
 20
44.2
 30
0.0
  0
VERTEX
  8
0
 10
77.8
 20
44.3
 30
0.0
  0
VERTEX
  8
0
 10
77.9
 20
44.4
 30
0.0
  0
VERTEX
  8
0
 10
78.0
 20
44.4
 30
0.0
  0
VERTEX
  8
0
 10
78.1
 20
44.5
 30
0.0
  0
SEQEND
  0
ENDSEC
  0
EOF
