  0
SECTION
  2
HEADER
  9
$ACADVER
  1
AC1009
  9
$INSBASE
 10
0.0
 20
0.0
 30
0.0
  9
$EXTMIN
 10
0.0
 20
0.0
 30
0.0
  9
$EXTMAX
 10
100.0
 20
100.0
 30
0.0
  9
$UNITMODE
 70
0
  9
$AUNITS
 70
0
  9
$ANGBASE
 50
0.0
  9
$ANGDIR
 70
0
  0
ENDSEC
  0
SECTION
  2
TABLES
  0
TABLE
  2
LTYPE
 70
19
  0
LTYPE
  2
CONTINUOUS
 70
0
  3
Solid
 72
65
 73
0
 40
0.0
  0
LTYPE
  2
CENTER
 70
0
  3
Center ____ _ ____ _ ____ _ ____ _ ____ _ ____
 72
65
 73
4
 40
2.0
 49
1.25
 49
-0.25
 49
0.25
 49
-0.25
  0
LTYPE
  2
CENTERX2
 70
0
  3
Center (2x) ________  __  ________  __  ________
 72
65
 73
4
 40
3.5
 49
2.5
 49
-0.25
 49
0.5
 49
-0.25
  0
LTYPE
  2
CENTER2
 70
0
  3
Center (.5x) ____ _ ____ _ ____ _ ____ _ ____
 72
65
 73
4
 40
1.0
 49
0.625
 49
-0.125
 49
0.125
 49
-0.125
  0
LTYPE
  2
DASHED
 70
0
  3
Dashed __ __ __ __ __ __ __ __ __ __ __ __ __ _
 72
65
 73
2
 40
0.6
 49
0.5
 49
-0.1
  0
LTYPE
  2
DASHEDX2
 70
0
  3
Dashed (2x) ____  ____  ____  ____  ____  ____
 72
65
 73
2
 40
1.2
 49
1.0
 49
-0.2
  0
LTYPE
  2
DASHED2
 70
0
  3
Dashed (.5x) _ _ _ _ _ _ _ _ _ _ _ _ _ _
 72
65
 73
2
 40
0.3
 49
0.25
 49
-0.05
  0
LTYPE
  2
PHANTOM
 70
0
  3
Phantom ______  __  __  ______  __  __  ______
 72
65
 73
6
 40
2.5
 49
1.25
 49
-0.25
 49
0.25
 49
-0.25
 49
0.25
 49
-0.25
  0
LTYPE
  2
PHANTOMX2
 70
0
  3
Phantom (2x)____________    ____    ____    ____________
 72
65
 73
6
 40
4.25
 49
2.5
 49
-0.25
 49
0.5
 49
-0.25
 49
0.5
 49
-0.25
  0
LTYPE
  2
PHANTOM2
 70
0
  3
Phantom (.5x) ___ _ _ ___ _ _ ___ _ _ ___ _ _ ___
 72
65
 73
6
 40
1.25
 49
0.625
 49
-0.125
 49
0.125
 49
-0.125
 49
0.125
 49
-0.125
  0
LTYPE
  2
DASHDOT
 70
0
  3
Dash dot __ . __ . __ . __ . __ . __ . __ . __
 72
65
 73
4
 40
1.4
 49
1.0
 49
-0.2
 49
0.0
 49
-0.2
  0
LTYPE
  2
DASHDOTX2
 70
0
  3
Dash dot (2x) ____  .  ____  .  ____  .  ____
 72
65
 73
4
 40
2.4
 49
2.0
 49
-0.2
 49
0.0
 49
-0.2
  0
LTYPE
  2
DASHDOT2
 70
0
  3
Dash dot (.5x) _ . _ . _ . _ . _ . _ . _ . _
 72
65
 73
4
 40
0.7
 49
0.5
 49
-0.1
 49
0.0
 49
-0.1
  0
LTYPE
  2
DOT
 70
0
  3
Dot .  .  .  .  .  .  .  .  .  .  .  .  .  .  .  .
 72
65
 73
2
 40
0.2
 49
0.0
 49
-0.2
  0
LTYPE
  2
DOTX2
 70
0
  3
Dot (2x) .    .    .    .    .    .    .    . 
 72
65
 73
2
 40
0.4
 49
0.0
 49
-0.4
  0
LTYPE
  2
DOT2
 70
0
  3
Dot (.5) . . . . . . . . . . . . . . . . . . . 
 72
65
 73
2
 40
0.1
 49
0.0
 49
-0.1
  0
LTYPE
  2
DIVIDE
 70
0
  3
Divide __ . . __ . . __ . . __ . . __ . . __
 72
65
 73
6
 40
1.6
 49
1.0
 49
-0.2
 49
0.0
 49
-0.2
 49
0.0
 49
-0.2
  0
LTYPE
  2
DIVIDEX2
 70
0
  3
Divide (2x) ____  . .  ____  . .  ____  . .  ____
 72
65
 73
6
 40
2.6
 49
2.0
 49
-0.2
 49
0.0
 49
-0.2
 49
0.0
 49
-0.2
  0
LTYPE
  2
DIVIDE2
 70
0
  3
Divide(.5x) _ . _ . _ . _ . _ . _ . _ . _
 72
65
 73
6
 40
0.8
 49
0.5
 49
-0.1
 49
0.0
 49
-0.1
 49
0.0
 49
-0.1
  0
ENDTAB
  0
TABLE
  2
LAYER
 70
5
  0
LAYER
  2
DIMENSIONS
 70
0
 62
1
  6
CONTINUOUS
  0
LAYER
  2
TABLEBACKGROUND
 70
0
 62
1
  6
CONTINUOUS
  0
LAYER
  2
TABLECONTENT
 70
0
 62
1
  6
CONTINUOUS
  0
LAYER
  2
TABLEGRID
 70
0
 62
1
  6
CONTINUOUS
  0
LAYER
  2
VIEWPORTS
 70
0
 62
7
  6
CONTINUOUS
  0
ENDTAB
  0
TABLE
  2
STYLE
 70
12
  0
STYLE
  2
STANDARD
 70
0
 40
0.0
 41
1.0
 42
1.0
 50
0.0
 71
0
  3
arial.ttf
  4

  0
STYLE
  2
ARIAL
 70
0
 40
0.0
 41
1.0
 42
1.0
 50
0.0
 71
0
  3
arial.ttf
  4

  0
STYLE
  2
ARIAL_BOLD
 70
0
 40
0.0
 41
1.0
 42
1.0
 50
0.0
 71
0
  3
arialbd.ttf
  4

  0
STYLE
  2
ARIAL_ITALIC
 70
0
 40
0.0
 41
1.0
 42
1.0
 50
0.0
 71
0
  3
ariali.ttf
  4

  0
STYLE
  2
ARIAL_BOLD_ITALIC
 70
0
 40
0.0
 41
1.0
 42
1.0
 50
0.0
 71
0
  3
arialbi.ttf
  4

  0
STYLE
  2
ARIAL_BLACK
 70
0
 40
0.0
 41
1.0
 42
1.0
 50
0.0
 71
0
  3
ariblk.ttf
  4

  0
STYLE
  2
ISOCPEUR
 70
0
 40
0.0
 41
1.0
 42
1.0
 50
0.0
 71
0
  3
isocpeur.ttf
  4

  0
STYLE
  2
ISOCPEUR_ITALIC
 70
0
 40
0.0
 41
1.0
 42
1.0
 50
0.0
 71
0
  3
isocpeui.ttf
  4

  0
STYLE
  2
TIMES
 70
0
 40
0.0
 41
1.0
 42
1.0
 50
0.0
 71
0
  3
times.ttf
  4

  0
STYLE
  2
TIMES_BOLD
 70
0
 40
0.0
 41
1.0
 42
1.0
 50
0.0
 71
0
  3
timesbd.ttf
  4

  0
STYLE
  2
TIMES_ITALIC
 70
0
 40
0.0
 41
1.0
 42
1.0
 50
0.0
 71
0
  3
timesi.ttf
  4

  0
STYLE
  2
TIMES_BOLD_ITALIC
 70
0
 40
0.0
 41
1.0
 42
1.0
 50
0.0
 71
0
  3
timesbi.ttf
  4

  0
ENDTAB
  0
TABLE
  2
VIEW
 70
0
  0
ENDTAB
  0
TABLE
  2
APPID
 70
1
  0
APPID
  2
DXFWRITE
 70
0
  0
ENDTAB
  0
TABLE
  2
VPORT
 70
0
  0
ENDTAB
  0
TABLE
  2
UCS
 70
0
  0
ENDTAB
  0
ENDSEC
  0
SECTION
  2
BLOCKS
  0
ENDSEC
  0
SECTION
  2
ENTITIES
  0
VIEWPORT
  8
VIEWPORTS
 67
1
 10
0.0
 20
0.0
 30
0.0
 40
1.0
 41
1.0
 68
1
 69
1
1001
ACAD
1000
MVIEW
1002
{
1070
16
1010
0.0
1020
0.0
1030
0.0
1010
0.0
1020
0.0
1030
0.0
1040
0.0
1040
1.0
1040
0.0
1040
0.0
1040
50.0
1040
0.0
1040
0.0
1070
0
1070
100
1070
1
1070
3
1070
0
1070
0
1070
0
1070
0
1040
0.0
1040
0.0
1040
0.0
1040
0.1
1040
0.1
1040
0.1
1040
0.1
1070
0
1002
{
1002
}
1002
}
  0
POLYLINE
  6
DOT
  8
0
 66
1
 10
0.0
 20
0.0
 30
0.0
 70
8
  0
VERTEX
  8
0
 10
5.92
 20
9.18
 30
0.0
  0
VERTEX
  8
0
 10
6.0510943
 20
9.17342166
 30
0.0
  0
VERTEX
  8
0
 10
6.176850399999999
 20
9.16570128
 30
0.0
  0
VERTEX
  8
0
 10
6.2973780999999995
 20
9.156860819999999
 30
0.0
  0
VERTEX
  8
0
 10
6.4127871999999995
 20
9.146922239999999
 30
0.0
  0
VERTEX
  8
0
 10
6.523187500000001
 20
9.1359075
 30
0.0
  0
VERTEX
  8
0
 10
6.628688799999999
 20
9.123838560000001
 30
0.0
  0
VERTEX
  8
0
 10
6.729400899999999
 20
9.110737379999998
 30
0.0
  0
VERTEX
  8
0
 10
6.825433600000001
 20
9.096625920000001
 30
0.0
  0
VERTEX
  8
0
 10
6.916896700000001
 20
9.081526140000001
 30
0.0
  0
VERTEX
  8
0
 10
7.003900000000001
 20
9.065460000000002
 30
0.0
  0
VERTEX
  8
0
 10
7.0865533
 20
9.04844946
 30
0.0
  0
VERTEX
  8
0
 10
7.1649664
 20
9.03051648
 30
0.0
  0
VERTEX
  8
0
 10
7.239249099999999
 20
9.01168302
 30
0.0
  0
VERTEX
  8
0
 10
7.3095112
 20
8.991971040000001
 30
0.0
  0
VERTEX
  8
0
 10
7.375862499999998
 20
8.971402499999998
 30
0.0
  0
VERTEX
  8
0
 10
7.438412799999998
 20
8.949999359999998
 30
0.0
  0
VERTEX
  8
0
 10
7.497271899999999
 20
8.927783579999998
 30
0.0
  0
VERTEX
  8
0
 10
7.5525496000000025
 20
8.90477712
 30
0.0
  0
VERTEX
  8
0
 10
7.604355700000001
 20
8.88100194
 30
0.0
  0
VERTEX
  8
0
 10
7.652800000000002
 20
8.856480000000001
 30
0.0
  0
VERTEX
  8
0
 10
7.697992299999999
 20
8.831233260000001
 30
0.0
  0
VERTEX
  8
0
 10
7.740042400000001
 20
8.80528368
 30
0.0
  0
VERTEX
  8
0
 10
7.779060100000001
 20
8.77865322
 30
0.0
  0
VERTEX
  8
0
 10
7.8151551999999995
 20
8.75136384
 30
0.0
  0
VERTEX
  8
0
 10
7.8484375
 20
8.7234375
 30
0.0
  0
VERTEX
  8
0
 10
7.8790168
 20
8.694896159999999
 30
0.0
  0
VERTEX
  8
0
 10
7.907002899999998
 20
8.665761779999999
 30
0.0
  0
VERTEX
  8
0
 10
7.9325056
 20
8.63605632
 30
0.0
  0
VERTEX
  8
0
 10
7.955634699999999
 20
8.605801739999999
 30
0.0
  0
VERTEX
  8
0
 10
7.976499999999999
 20
8.575019999999999
 30
0.0
  0
VERTEX
  8
0
 10
7.9952112999999985
 20
8.543733059999997
 30
0.0
  0
VERTEX
  8
0
 10
8.011878399999999
 20
8.511962879999999
 30
0.0
  0
VERTEX
  8
0
 10
8.026611099999998
 20
8.479731419999997
 30
0.0
  0
VERTEX
  8
0
 10
8.039519199999997
 20
8.447060639999997
 30
0.0
  0
VERTEX
  8
0
 10
8.0507125
 20
8.4139725
 30
0.0
  0
VERTEX
  8
0
 10
8.0603008
 20
8.380488960000003
 30
0.0
  0
VERTEX
  8
0
 10
8.0683939
 20
8.34663198
 30
0.0
  0
VERTEX
  8
0
 10
8.0751016
 20
8.312423520000001
 30
0.0
  0
VERTEX
  8
0
 10
8.080533699999998
 20
8.27788554
 30
0.0
  0
VERTEX
  8
0
 10
8.0848
 20
8.24304
 30
0.0
  0
VERTEX
  8
0
 10
8.0880103
 20
8.207908860000002
 30
0.0
  0
VERTEX
  8
0
 10
8.090274400000002
 20
8.172514080000001
 30
0.0
  0
VERTEX
  8
0
 10
8.091702100000001
 20
8.136877620000002
 30
0.0
  0
VERTEX
  8
0
 10
8.092403200000001
 20
8.101021440000002
 30
0.0
  0
VERTEX
  8
0
 10
8.092487500000002
 20
8.064967500000002
 30
0.0
  0
VERTEX
  8
0
 10
8.092064800000001
 20
8.028737760000002
 30
0.0
  0
VERTEX
  8
0
 10
8.0912449
 20
7.9923541799999995
 30
0.0
  0
VERTEX
  8
0
 10
8.0901376
 20
7.95583872
 30
0.0
  0
VERTEX
  8
0
 10
8.0888527
 20
7.91921334
 30
0.0
  0
VERTEX
  8
0
 10
8.0875
 20
7.8825
 30
0.0
  0
VERTEX
  8
0
 10
8.086189300000001
 20
7.84572066
 30
0.0
  0
VERTEX
  8
0
 10
8.0850304
 20
7.808897280000001
 30
0.0
  0
VERTEX
  8
0
 10
8.0841331
 20
7.772051820000001
 30
0.0
  0
VERTEX
  8
0
 10
8.0836072
 20
7.73520624
 30
0.0
  0
VERTEX
  8
0
 10
8.0835625
 20
7.6983825
 30
0.0
  0
VERTEX
  8
0
 10
8.084108800000001
 20
7.66160256
 30
0.0
  0
VERTEX
  8
0
 10
8.085355900000001
 20
7.62488838
 30
0.0
  0
VERTEX
  8
0
 10
8.0874136
 20
7.588261919999999
 30
0.0
  0
VERTEX
  8
0
 10
8.090391700000001
 20
7.5517451399999995
 30
0.0
  0
VERTEX
  8
0
 10
8.0944
 20
7.51536
 30
0.0
  0
VERTEX
  8
0
 10
8.099548299999999
 20
7.479128459999999
 30
0.0
  0
VERTEX
  8
0
 10
8.1059464
 20
7.44307248
 30
0.0
  0
VERTEX
  8
0
 10
8.1137041
 20
7.407214019999999
 30
0.0
  0
VERTEX
  8
0
 10
8.1229312
 20
7.37157504
 30
0.0
  0
VERTEX
  8
0
 10
8.1337375
 20
7.3361775
 30
0.0
  0
VERTEX
  8
0
 10
8.1462328
 20
7.3010433599999995
 30
0.0
  0
VERTEX
  8
0
 10
8.1605269
 20
7.2661945800000005
 30
0.0
  0
VERTEX
  8
0
 10
8.1767296
 20
7.23165312
 30
0.0
  0
VERTEX
  8
0
 10
8.1949507
 20
7.197440939999999
 30
0.0
  0
VERTEX
  8
0
 10
8.2153
 20
7.16358
 30
0.0
  0
VERTEX
  8
0
 10
8.2378873
 20
7.130092260000001
 30
0.0
  0
VERTEX
  8
0
 10
8.2628224
 20
7.096999679999999
 30
0.0
  0
VERTEX
  8
0
 10
8.290215100000001
 20
7.064324219999999
 30
0.0
  0
VERTEX
  8
0
 10
8.3201752
 20
7.032087839999999
 30
0.0
  0
VERTEX
  8
0
 10
8.3528125
 20
7.0003125
 30
0.0
  0
VERTEX
  8
0
 10
8.388236800000001
 20
6.96902016
 30
0.0
  0
VERTEX
  8
0
 10
8.426557899999999
 20
6.93823278
 30
0.0
  0
VERTEX
  8
0
 10
8.467885599999999
 20
6.90797232
 30
0.0
  0
VERTEX
  8
0
 10
8.5123297
 20
6.878260740000001
 30
0.0
  0
VERTEX
  8
0
 10
8.56
 20
6.84912
 30
0.0
  0
VERTEX
  8
0
 10
8.6110063
 20
6.82057206
 30
0.0
  0
VERTEX
  8
0
 10
8.665458399999999
 20
6.792638880000001
 30
0.0
  0
VERTEX
  8
0
 10
8.723466100000001
 20
6.7653424200000005
 30
0.0
  0
VERTEX
  8
0
 10
8.785139199999998
 20
6.73870464
 30
0.0
  0
VERTEX
  8
0
 10
8.8505875
 20
6.712747500000001
 30
0.0
  0
VERTEX
  8
0
 10
8.9199208
 20
6.687492959999999
 30
0.0
  0
VERTEX
  8
0
 10
8.9932489
 20
6.66296298
 30
0.0
  0
VERTEX
  8
0
 10
9.0706816
 20
6.63917952
 30
0.0
  0
VERTEX
  8
0
 10
9.1523287
 20
6.616164540000001
 30
0.0
  0
VERTEX
  8
0
 10
9.238300000000002
 20
6.59394
 30
0.0
  0
VERTEX
  8
0
 10
9.328705300000001
 20
6.57252786
 30
0.0
  0
VERTEX
  8
0
 10
9.423654399999998
 20
6.551950079999999
 30
0.0
  0
VERTEX
  8
0
 10
9.5232571
 20
6.53222862
 30
0.0
  0
VERTEX
  8
0
 10
9.627623199999999
 20
6.51338544
 30
0.0
  0
VERTEX
  8
0
 10
9.736862499999999
 20
6.4954425
 30
0.0
  0
VERTEX
  8
0
 10
9.8510848
 20
6.47842176
 30
0.0
  0
VERTEX
  8
0
 10
9.9703999
 20
6.46234518
 30
0.0
  0
VERTEX
  8
0
 10
10.0949176
 20
6.447234719999999
 30
0.0
  0
VERTEX
  8
0
 10
10.2247477
 20
6.43311234
 30
0.0
  0
SEQEND
  0
ENDSEC
  0
EOF
