  0
SECTION
  2
HEADER
  9
$ACADVER
  1
AC1009
  9
$INSBASE
 10
0.0
 20
0.0
 30
0.0
  9
$EXTMIN
 10
0.0
 20
0.0
 30
0.0
  9
$EXTMAX
 10
100.0
 20
100.0
 30
0.0
  9
$UNITMODE
 70
0
  9
$AUNITS
 70
0
  9
$ANGBASE
 50
0.0
  9
$ANGDIR
 70
0
  0
ENDSEC
  0
SECTION
  2
TABLES
  0
TABLE
  2
LTYPE
 70
19
  0
LTYPE
  2
CONTINUOUS
 70
0
  3
Solid
 72
65
 73
0
 40
0.0
  0
LTYPE
  2
CENTER
 70
0
  3
Center ____ _ ____ _ ____ _ ____ _ ____ _ ____
 72
65
 73
4
 40
2.0
 49
1.25
 49
-0.25
 49
0.25
 49
-0.25
  0
LTYPE
  2
CENTERX2
 70
0
  3
Center (2x) ________  __  ________  __  ________
 72
65
 73
4
 40
3.5
 49
2.5
 49
-0.25
 49
0.5
 49
-0.25
  0
LTYPE
  2
CENTER2
 70
0
  3
Center (.5x) ____ _ ____ _ ____ _ ____ _ ____
 72
65
 73
4
 40
1.0
 49
0.625
 49
-0.125
 49
0.125
 49
-0.125
  0
LTYPE
  2
DASHED
 70
0
  3
Dashed __ __ __ __ __ __ __ __ __ __ __ __ __ _
 72
65
 73
2
 40
0.6
 49
0.5
 49
-0.1
  0
LTYPE
  2
DASHEDX2
 70
0
  3
Dashed (2x) ____  ____  ____  ____  ____  ____
 72
65
 73
2
 40
1.2
 49
1.0
 49
-0.2
  0
LTYPE
  2
DASHED2
 70
0
  3
Dashed (.5x) _ _ _ _ _ _ _ _ _ _ _ _ _ _
 72
65
 73
2
 40
0.3
 49
0.25
 49
-0.05
  0
LTYPE
  2
PHANTOM
 70
0
  3
Phantom ______  __  __  ______  __  __  ______
 72
65
 73
6
 40
2.5
 49
1.25
 49
-0.25
 49
0.25
 49
-0.25
 49
0.25
 49
-0.25
  0
LTYPE
  2
PHANTOMX2
 70
0
  3
Phantom (2x)____________    ____    ____    ____________
 72
65
 73
6
 40
4.25
 49
2.5
 49
-0.25
 49
0.5
 49
-0.25
 49
0.5
 49
-0.25
  0
LTYPE
  2
PHANTOM2
 70
0
  3
Phantom (.5x) ___ _ _ ___ _ _ ___ _ _ ___ _ _ ___
 72
65
 73
6
 40
1.25
 49
0.625
 49
-0.125
 49
0.125
 49
-0.125
 49
0.125
 49
-0.125
  0
LTYPE
  2
DASHDOT
 70
0
  3
Dash dot __ . __ . __ . __ . __ . __ . __ . __
 72
65
 73
4
 40
1.4
 49
1.0
 49
-0.2
 49
0.0
 49
-0.2
  0
LTYPE
  2
DASHDOTX2
 70
0
  3
Dash dot (2x) ____  .  ____  .  ____  .  ____
 72
65
 73
4
 40
2.4
 49
2.0
 49
-0.2
 49
0.0
 49
-0.2
  0
LTYPE
  2
DASHDOT2
 70
0
  3
Dash dot (.5x) _ . _ . _ . _ . _ . _ . _ . _
 72
65
 73
4
 40
0.7
 49
0.5
 49
-0.1
 49
0.0
 49
-0.1
  0
LTYPE
  2
DOT
 70
0
  3
Dot .  .  .  .  .  .  .  .  .  .  .  .  .  .  .  .
 72
65
 73
2
 40
0.2
 49
0.0
 49
-0.2
  0
LTYPE
  2
DOTX2
 70
0
  3
Dot (2x) .    .    .    .    .    .    .    . 
 72
65
 73
2
 40
0.4
 49
0.0
 49
-0.4
  0
LTYPE
  2
DOT2
 70
0
  3
Dot (.5) . . . . . . . . . . . . . . . . . . . 
 72
65
 73
2
 40
0.1
 49
0.0
 49
-0.1
  0
LTYPE
  2
DIVIDE
 70
0
  3
Divide __ . . __ . . __ . . __ . . __ . . __
 72
65
 73
6
 40
1.6
 49
1.0
 49
-0.2
 49
0.0
 49
-0.2
 49
0.0
 49
-0.2
  0
LTYPE
  2
DIVIDEX2
 70
0
  3
Divide (2x) ____  . .  ____  . .  ____  . .  ____
 72
65
 73
6
 40
2.6
 49
2.0
 49
-0.2
 49
0.0
 49
-0.2
 49
0.0
 49
-0.2
  0
LTYPE
  2
DIVIDE2
 70
0
  3
Divide(.5x) _ . _ . _ . _ . _ . _ . _ . _
 72
65
 73
6
 40
0.8
 49
0.5
 49
-0.1
 49
0.0
 49
-0.1
 49
0.0
 49
-0.1
  0
ENDTAB
  0
TABLE
  2
LAYER
 70
6
  0
LAYER
  2
DIMENSIONS
 70
0
 62
1
  6
CONTINUOUS
  0
LAYER
  2
TABLEBACKGROUND
 70
0
 62
1
  6
CONTINUOUS
  0
LAYER
  2
TABLECONTENT
 70
0
 62
1
  6
CONTINUOUS
  0
LAYER
  2
TABLEGRID
 70
0
 62
1
  6
CONTINUOUS
  0
LAYER
  2
VIEWPORTS
 70
0
 62
7
  6
CONTINUOUS
  0
LAYER
  2
LINES
 70
0
 62
1
  6
CONTINUOUS
  0
ENDTAB
  0
TABLE
  2
STYLE
 70
12
  0
STYLE
  2
STANDARD
 70
0
 40
0.0
 41
1.0
 42
1.0
 50
0.0
 71
0
  3
arial.ttf
  4

  0
STYLE
  2
ARIAL
 70
0
 40
0.0
 41
1.0
 42
1.0
 50
0.0
 71
0
  3
arial.ttf
  4

  0
STYLE
  2
ARIAL_BOLD
 70
0
 40
0.0
 41
1.0
 42
1.0
 50
0.0
 71
0
  3
arialbd.ttf
  4

  0
STYLE
  2
ARIAL_ITALIC
 70
0
 40
0.0
 41
1.0
 42
1.0
 50
0.0
 71
0
  3
ariali.ttf
  4

  0
STYLE
  2
ARIAL_BOLD_ITALIC
 70
0
 40
0.0
 41
1.0
 42
1.0
 50
0.0
 71
0
  3
arialbi.ttf
  4

  0
STYLE
  2
ARIAL_BLACK
 70
0
 40
0.0
 41
1.0
 42
1.0
 50
0.0
 71
0
  3
ariblk.ttf
  4

  0
STYLE
  2
ISOCPEUR
 70
0
 40
0.0
 41
1.0
 42
1.0
 50
0.0
 71
0
  3
isocpeur.ttf
  4

  0
STYLE
  2
ISOCPEUR_ITALIC
 70
0
 40
0.0
 41
1.0
 42
1.0
 50
0.0
 71
0
  3
isocpeui.ttf
  4

  0
STYLE
  2
TIMES
 70
0
 40
0.0
 41
1.0
 42
1.0
 50
0.0
 71
0
  3
times.ttf
  4

  0
STYLE
  2
TIMES_BOLD
 70
0
 40
0.0
 41
1.0
 42
1.0
 50
0.0
 71
0
  3
timesbd.ttf
  4

  0
STYLE
  2
TIMES_ITALIC
 70
0
 40
0.0
 41
1.0
 42
1.0
 50
0.0
 71
0
  3
timesi.ttf
  4

  0
STYLE
  2
TIMES_BOLD_ITALIC
 70
0
 40
0.0
 41
1.0
 42
1.0
 50
0.0
 71
0
  3
timesbi.ttf
  4

  0
ENDTAB
  0
TABLE
  2
VIEW
 70
0
  0
ENDTAB
  0
TABLE
  2
APPID
 70
1
  0
APPID
  2
DXFWRITE
 70
0
  0
ENDTAB
  0
TABLE
  2
VPORT
 70
0
  0
ENDTAB
  0
TABLE
  2
UCS
 70
0
  0
ENDTAB
  0
ENDSEC
  0
SECTION
  2
BLOCKS
  0
ENDSEC
  0
SECTION
  2
ENTITIES
  0
VIEWPORT
  8
VIEWPORTS
 67
1
 10
0.0
 20
0.0
 30
0.0
 40
1.0
 41
1.0
 68
1
 69
1
1001
ACAD
1000
MVIEW
1002
{
1070
16
1010
0.0
1020
0.0
1030
0.0
1010
0.0
1020
0.0
1030
0.0
1040
0.0
1040
1.0
1040
0.0
1040
0.0
1040
50.0
1040
0.0
1040
0.0
1070
0
1070
100
1070
1
1070
3
1070
0
1070
0
1070
0
1070
0
1040
0.0
1040
0.0
1040
0.0
1040
0.1
1040
0.1
1040
0.1
1040
0.1
1070
0
1002
{
1002
}
1002
}
  0
LINE
 62
7
  8
LINES
 10
1.3
 20
1.3
 30
0.0
 11
1.3
 21
1.3
 31
0.0
  0
LINE
 62
7
  8
LINES
 10
1.3
 20
1.3
 30
0.0
 11
1.3
 21
1.3
 31
0.0
  0
LINE
 62
7
  8
LINES
 10
1.3
 20
1.3
 30
0.0
 11
1.3
 21
1.3
 31
0.0
  0
LINE
 62
7
  8
LINES
 10
1.3
 20
1.3
 30
0.0
 11
1.3
 21
1.3
 31
0.0
  0
LINE
 62
7
  8
LINES
 10
1.3
 20
1.3
 30
0.0
 11
1.3
 21
1.3
 31
0.0
  0
LINE
 62
7
  8
LINES
 10
1.3
 20
1.3
 30
0.0
 11
1.3
 21
1.3
 31
0.0
  0
LINE
 62
7
  8
LINES
 10
1.3
 20
1.3
 30
0.0
 11
1.3
 21
1.3
 31
0.0
  0
LINE
 62
7
  8
LINES
 10
1.3
 20
1.3
 30
0.0
 11
1.3
 21
1.3
 31
0.0
  0
LINE
 62
7
  8
LINES
 10
1.3
 20
1.3
 30
0.0
 11
1.3
 21
1.3
 31
0.0
  0
LINE
 62
7
  8
LINES
 10
1.3
 20
1.3
 30
0.0
 11
1.31
 21
1.31
 31
0.0
  0
LINE
 62
7
  8
LINES
 10
1.31
 20
1.31
 30
0.0
 11
1.31
 21
1.31
 31
0.0
  0
LINE
 62
7
  8
LINES
 10
1.31
 20
1.31
 30
0.0
 11
1.31
 21
1.31
 31
0.0
  0
LINE
 62
7
  8
LINES
 10
1.3
 20
1.3
 30
0.0
 11
1.3
 21
1.3
 31
0.0
  0
LINE
 62
7
  8
LINES
 10
1.3
 20
1.3
 30
0.0
 11
1.3
 21
1.3
 31
0.0
  0
LINE
 62
7
  8
LINES
 10
1.3
 20
1.3
 30
0.0
 11
1.32
 21
1.32
 31
0.0
  0
LINE
 62
7
  8
LINES
 10
1.32
 20
1.32
 30
0.0
 11
1.32
 21
1.32
 31
0.0
  0
LINE
 62
7
  8
LINES
 10
1.32
 20
1.32
 30
0.0
 11
1.31
 21
1.31
 31
0.0
  0
LINE
 62
7
  8
LINES
 10
1.31
 20
1.31
 30
0.0
 11
1.31
 21
1.31
 31
0.0
  0
LINE
 62
7
  8
LINES
 10
1.31
 20
1.31
 30
0.0
 11
1.31
 21
1.31
 31
0.0
  0
LINE
 62
7
  8
LINES
 10
1.33
 20
1.33
 30
0.0
 11
1.33
 21
1.33
 31
0.0
  0
LINE
 62
7
  8
LINES
 10
1.33
 20
1.33
 30
0.0
 11
1.33
 21
1.33
 31
0.0
  0
LINE
 62
7
  8
LINES
 10
1.32
 20
1.32
 30
0.0
 11
1.32
 21
1.32
 31
0.0
  0
LINE
 62
7
  8
LINES
 10
1.32
 20
1.32
 30
0.0
 11
1.32
 21
1.32
 31
0.0
  0
LINE
 62
7
  8
LINES
 10
1.32
 20
1.32
 30
0.0
 11
1.34
 21
1.34
 31
0.0
  0
LINE
 62
7
  8
LINES
 10
1.34
 20
1.34
 30
0.0
 11
1.34
 21
1.34
 31
0.0
  0
LINE
 62
7
  8
LINES
 10
1.34
 20
1.34
 30
0.0
 11
1.33
 21
1.33
 31
0.0
  0
LINE
 62
7
  8
LINES
 10
1.33
 20
1.33
 30
0.0
 11
1.33
 21
1.33
 31
0.0
  0
LINE
 62
7
  8
LINES
 10
1.33
 20
1.33
 30
0.0
 11
1.33
 21
1.33
 31
0.0
  0
LINE
 62
7
  8
LINES
 10
1.36
 20
1.36
 30
0.0
 11
1.36
 21
1.36
 31
0.0
  0
LINE
 62
7
  8
LINES
 10
1.35
 20
1.35
 30
0.0
 11
1.35
 21
1.35
 31
0.0
  0
LINE
 62
7
  8
LINES
 10
1.35
 20
1.35
 30
0.0
 11
1.35
 21
1.35
 31
0.0
  0
LINE
 62
7
  8
LINES
 10
1.34
 20
1.34
 30
0.0
 11
1.34
 21
1.34
 31
0.0
  0
LINE
 62
7
  8
LINES
 10
1.38
 20
1.38
 30
0.0
 11
1.38
 21
1.38
 31
0.0
  0
LINE
 62
7
  8
LINES
 10
1.37
 20
1.37
 30
0.0
 11
1.37
 21
1.37
 31
0.0
  0
LINE
 62
7
  8
LINES
 10
1.37
 20
1.37
 30
0.0
 11
1.37
 21
1.37
 31
0.0
  0
LINE
 62
7
  8
LINES
 10
1.36
 20
1.36
 30
0.0
 11
1.36
 21
1.36
 31
0.0
  0
LINE
 62
7
  8
LINES
 10
1.36
 20
1.36
 30
0.0
 11
1.4
 21
1.4
 31
0.0
  0
LINE
 62
7
  8
LINES
 10
1.4
 20
1.4
 30
0.0
 11
1.39
 21
1.39
 31
0.0
  0
LINE
 62
7
  8
LINES
 10
1.39
 20
1.39
 30
0.0
 11
1.39
 21
1.39
 31
0.0
  0
LINE
 62
7
  8
LINES
 10
1.39
 20
1.39
 30
0.0
 11
1.38
 21
1.38
 31
0.0
  0
LINE
 62
7
  8
LINES
 10
1.38
 20
1.38
 30
0.0
 11
1.38
 21
1.38
 31
0.0
  0
LINE
 62
7
  8
LINES
 10
1.43
 20
1.43
 30
0.0
 11
1.43
 21
1.43
 31
0.0
  0
LINE
 62
7
  8
LINES
 10
1.42
 20
1.42
 30
0.0
 11
1.42
 21
1.42
 31
0.0
  0
LINE
 62
7
  8
LINES
 10
1.41
 20
1.41
 30
0.0
 11
1.41
 21
1.41
 31
0.0
  0
LINE
 62
7
  8
LINES
 10
1.4
 20
1.4
 30
0.0
 11
1.4
 21
1.4
 31
0.0
  0
LINE
 62
7
  8
LINES
 10
1.45
 20
1.45
 30
0.0
 11
1.45
 21
1.45
 31
0.0
  0
LINE
 62
7
  8
LINES
 10
1.44
 20
1.44
 30
0.0
 11
1.44
 21
1.44
 31
0.0
  0
LINE
 62
7
  8
LINES
 10
1.44
 20
1.44
 30
0.0
 11
1.44
 21
1.44
 31
0.0
  0
LINE
 62
7
  8
LINES
 10
1.43
 20
1.43
 30
0.0
 11
1.43
 21
1.43
 31
0.0
  0
LINE
 62
7
  8
LINES
 10
1.43
 20
1.43
 30
0.0
 11
1.48
 21
1.48
 31
0.0
  0
LINE
 62
7
  8
LINES
 10
1.48
 20
1.48
 30
0.0
 11
1.47
 21
1.47
 31
0.0
  0
LINE
 62
7
  8
LINES
 10
1.47
 20
1.47
 30
0.0
 11
1.46
 21
1.46
 31
0.0
  0
LINE
 62
7
  8
LINES
 10
1.46
 20
1.46
 30
0.0
 11
1.45
 21
1.45
 31
0.0
  0
LINE
 62
7
  8
LINES
 10
1.45
 20
1.45
 30
0.0
 11
1.51
 21
1.51
 31
0.0
  0
LINE
 62
7
  8
LINES
 10
1.51
 20
1.51
 30
0.0
 11
1.5
 21
1.5
 31
0.0
  0
LINE
 62
7
  8
LINES
 10
1.5
 20
1.5
 30
0.0
 11
1.49
 21
1.49
 31
0.0
  0
LINE
 62
7
  8
LINES
 10
1.49
 20
1.49
 30
0.0
 11
1.48
 21
1.48
 31
0.0
  0
LINE
 62
7
  8
LINES
 10
1.48
 20
1.48
 30
0.0
 11
1.54
 21
1.54
 31
0.0
  0
LINE
 62
7
  8
LINES
 10
1.54
 20
1.54
 30
0.0
 11
1.53
 21
1.53
 31
0.0
  0
LINE
 62
7
  8
LINES
 10
1.53
 20
1.53
 30
0.0
 11
1.52
 21
1.52
 31
0.0
  0
LINE
 62
7
  8
LINES
 10
1.52
 20
1.52
 30
0.0
 11
1.51
 21
1.51
 31
0.0
  0
LINE
 62
7
  8
LINES
 10
1.51
 20
1.51
 30
0.0
 11
1.57
 21
1.57
 31
0.0
  0
LINE
 62
7
  8
LINES
 10
1.57
 20
1.57
 30
0.0
 11
1.56
 21
1.56
 31
0.0
  0
LINE
 62
7
  8
LINES
 10
1.56
 20
1.56
 30
0.0
 11
1.55
 21
1.55
 31
0.0
  0
LINE
 62
7
  8
LINES
 10
1.55
 20
1.55
 30
0.0
 11
1.54
 21
1.54
 31
0.0
  0
LINE
 62
7
  8
LINES
 10
1.54
 20
1.54
 30
0.0
 11
1.61
 21
1.61
 31
0.0
  0
LINE
 62
7
  8
LINES
 10
1.6
 20
1.6
 30
0.0
 11
1.6
 21
1.6
 31
0.0
  0
LINE
 62
7
  8
LINES
 10
1.59
 20
1.59
 30
0.0
 11
1.59
 21
1.59
 31
0.0
  0
LINE
 62
7
  8
LINES
 10
1.58
 20
1.58
 30
0.0
 11
1.58
 21
1.58
 31
0.0
  0
LINE
 62
7
  8
LINES
 10
1.57
 20
1.57
 30
0.0
 11
1.65
 21
1.65
 31
0.0
  0
LINE
 62
7
  8
LINES
 10
1.64
 20
1.64
 30
0.0
 11
1.64
 21
1.64
 31
0.0
  0
LINE
 62
7
  8
LINES
 10
1.63
 20
1.63
 30
0.0
 11
1.63
 21
1.63
 31
0.0
  0
LINE
 62
7
  8
LINES
 10
1.62
 20
1.62
 30
0.0
 11
1.62
 21
1.62
 31
0.0
  0
LINE
 62
7
  8
LINES
 10
1.61
 20
1.61
 30
0.0
 11
1.69
 21
1.69
 31
0.0
  0
LINE
 62
7
  8
LINES
 10
1.68
 20
1.68
 30
0.0
 11
1.68
 21
1.68
 31
0.0
  0
LINE
 62
7
  8
LINES
 10
1.67
 20
1.67
 30
0.0
 11
1.67
 21
1.67
 31
0.0
  0
LINE
 62
7
  8
LINES
 10
1.66
 20
1.66
 30
0.0
 11
1.66
 21
1.66
 31
0.0
  0
LINE
 62
7
  8
LINES
 10
1.65
 20
1.65
 30
0.0
 11
1.73
 21
1.73
 31
0.0
  0
LINE
 62
7
  8
LINES
 10
1.72
 20
1.72
 30
0.0
 11
1.72
 21
1.72
 31
0.0
  0
LINE
 62
7
  8
LINES
 10
1.71
 20
1.71
 30
0.0
 11
1.7
 21
1.7
 31
0.0
  0
LINE
 62
7
  8
LINES
 10
1.7
 20
1.7
 30
0.0
 11
1.69
 21
1.69
 31
0.0
  0
LINE
 62
7
  8
LINES
 10
1.77
 20
1.77
 30
0.0
 11
1.76
 21
1.76
 31
0.0
  0
LINE
 62
7
  8
LINES
 10
1.76
 20
1.76
 30
0.0
 11
1.75
 21
1.75
 31
0.0
  0
LINE
 62
7
  8
LINES
 10
1.75
 20
1.75
 30
0.0
 11
1.74
 21
1.74
 31
0.0
  0
LINE
 62
7
  8
LINES
 10
1.74
 20
1.74
 30
0.0
 11
1.73
 21
1.73
 31
0.0
  0
LINE
 62
7
  8
LINES
 10
1.82
 20
1.82
 30
0.0
 11
1.81
 21
1.81
 31
0.0
  0
LINE
 62
7
  8
LINES
 10
1.8
 20
1.8
 30
0.0
 11
1.79
 21
1.79
 31
0.0
  0
LINE
 62
7
  8
LINES
 10
1.79
 20
1.79
 30
0.0
 11
1.78
 21
1.78
 31
0.0
  0
LINE
 62
7
  8
LINES
 10
1.77
 20
1.77
 30
0.0
 11
1.86
 21
1.86
 31
0.0
  0
LINE
 62
7
  8
LINES
 10
1.85
 20
1.85
 30
0.0
 11
1.85
 21
1.85
 31
0.0
  0
LINE
 62
7
  8
LINES
 10
1.84
 20
1.84
 30
0.0
 11
1.84
 21
1.84
 31
0.0
  0
LINE
 62
7
  8
LINES
 10
1.83
 20
1.83
 30
0.0
 11
1.83
 21
1.83
 31
0.0
  0
LINE
 62
7
  8
LINES
 10
1.82
 20
1.82
 30
0.0
 11
1.91
 21
1.91
 31
0.0
  0
LINE
 62
7
  8
LINES
 10
1.9
 20
1.9
 30
0.0
 11
1.89
 21
1.89
 31
0.0
  0
LINE
 62
7
  8
LINES
 10
1.88
 20
1.88
 30
0.0
 11
1.88
 21
1.88
 31
0.0
  0
LINE
 62
7
  8
LINES
 10
1.87
 20
1.87
 30
0.0
 11
1.86
 21
1.86
 31
0.0
  0
LINE
 62
7
  8
LINES
 10
1.96
 20
1.96
 30
0.0
 11
1.95
 21
1.95
 31
0.0
  0
LINE
 62
7
  8
LINES
 10
1.94
 20
1.94
 30
0.0
 11
1.93
 21
1.93
 31
0.0
  0
LINE
 62
7
  8
LINES
 10
1.93
 20
1.93
 30
0.0
 11
1.92
 21
1.92
 31
0.0
  0
LINE
 62
7
  8
LINES
 10
1.91
 20
1.91
 30
0.0
 11
2.01
 21
2.01
 31
0.0
  0
LINE
 62
7
  8
LINES
 10
2.0
 20
2.0
 30
0.0
 11
1.99
 21
1.99
 31
0.0
  0
LINE
 62
7
  8
LINES
 10
1.98
 20
1.98
 30
0.0
 11
1.98
 21
1.98
 31
0.0
  0
LINE
 62
7
  8
LINES
 10
1.97
 20
1.97
 30
0.0
 11
1.96
 21
1.96
 31
0.0
  0
LINE
 62
7
  8
LINES
 10
2.01
 20
2.01
 30
0.0
 11
2.02
 21
2.02
 31
0.0
  0
LINE
 62
7
  8
LINES
 10
2.03
 20
2.03
 30
0.0
 11
2.04
 21
2.04
 31
0.0
  0
LINE
 62
7
  8
LINES
 10
2.05
 20
2.05
 30
0.0
 11
2.06
 21
2.06
 31
0.0
  0
LINE
 62
7
  8
LINES
 10
2.07
 20
2.07
 30
0.0
 11
2.12
 21
2.12
 31
0.0
  0
LINE
 62
7
  8
LINES
 10
2.11
 20
2.11
 30
0.0
 11
2.1
 21
2.1
 31
0.0
  0
LINE
 62
7
  8
LINES
 10
2.09
 20
2.09
 30
0.0
 11
2.09
 21
2.09
 31
0.0
  0
LINE
 62
7
  8
LINES
 10
2.08
 20
2.08
 30
0.0
 11
2.07
 21
2.07
 31
0.0
  0
LINE
 62
7
  8
LINES
 10
2.12
 20
2.12
 30
0.0
 11
2.13
 21
2.13
 31
0.0
  0
LINE
 62
7
  8
LINES
 10
2.14
 20
2.14
 30
0.0
 11
2.15
 21
2.15
 31
0.0
  0
LINE
 62
7
  8
LINES
 10
2.16
 20
2.16
 30
0.0
 11
2.17
 21
2.17
 31
0.0
  0
LINE
 62
7
  8
LINES
 10
2.18
 20
2.18
 30
0.0
 11
2.18
 21
2.18
 31
0.0
  0
LINE
 62
7
  8
LINES
 10
2.19
 20
2.19
 30
0.0
 11
2.2
 21
2.2
 31
0.0
  0
LINE
 62
7
  8
LINES
 10
2.21
 20
2.21
 30
0.0
 11
2.22
 21
2.22
 31
0.0
  0
LINE
 62
7
  8
LINES
 10
2.23
 20
2.23
 30
0.0
 11
2.24
 21
2.24
 31
0.0
  0
LINE
 62
7
  8
LINES
 10
2.24
 20
2.24
 30
0.0
 11
2.25
 21
2.25
 31
0.0
  0
LINE
 62
7
  8
LINES
 10
2.26
 20
2.26
 30
0.0
 11
2.27
 21
2.27
 31
0.0
  0
LINE
 62
7
  8
LINES
 10
2.28
 20
2.28
 30
0.0
 11
2.29
 21
2.29
 31
0.0
  0
LINE
 62
7
  8
LINES
 10
2.3
 20
2.3
 30
0.0
 11
2.3
 21
2.3
 31
0.0
  0
LINE
 62
7
  8
LINES
 10
2.31
 20
2.31
 30
0.0
 11
2.32
 21
2.32
 31
0.0
  0
LINE
 62
7
  8
LINES
 10
2.33
 20
2.33
 30
0.0
 11
2.34
 21
2.34
 31
0.0
  0
LINE
 62
7
  8
LINES
 10
2.35
 20
2.35
 30
0.0
 11
2.36
 21
2.36
 31
0.0
  0
LINE
 62
7
  8
LINES
 10
2.36
 20
2.36
 30
0.0
 11
2.37
 21
2.37
 31
0.0
  0
LINE
 62
7
  8
LINES
 10
2.38
 20
2.38
 30
0.0
 11
2.39
 21
2.39
 31
0.0
  0
LINE
 62
7
  8
LINES
 10
2.4
 20
2.4
 30
0.0
 11
2.41
 21
2.41
 31
0.0
  0
LINE
 62
7
  8
LINES
 10
2.42
 20
2.42
 30
0.0
 11
2.42
 21
2.42
 31
0.0
  0
LINE
 62
7
  8
LINES
 10
2.43
 20
2.43
 30
0.0
 11
2.44
 21
2.44
 31
0.0
  0
LINE
 62
7
  8
LINES
 10
2.45
 20
2.45
 30
0.0
 11
2.46
 21
2.46
 31
0.0
  0
LINE
 62
7
  8
LINES
 10
2.47
 20
2.47
 30
0.0
 11
2.48
 21
2.48
 31
0.0
  0
LINE
 62
7
  8
LINES
 10
2.48
 20
2.48
 30
0.0
 11
2.49
 21
2.49
 31
0.0
  0
LINE
 62
7
  8
LINES
 10
2.5
 20
2.5
 30
0.0
 11
2.51
 21
2.51
 31
0.0
  0
LINE
 62
7
  8
LINES
 10
2.52
 20
2.52
 30
0.0
 11
2.53
 21
2.53
 31
0.0
  0
LINE
 62
7
  8
LINES
 10
2.54
 20
2.54
 30
0.0
 11
2.55
 21
2.55
 31
0.0
  0
LINE
 62
7
  8
LINES
 10
2.55
 20
2.55
 30
0.0
 11
2.56
 21
2.56
 31
0.0
  0
LINE
 62
7
  8
LINES
 10
2.57
 20
2.57
 30
0.0
 11
2.58
 21
2.58
 31
0.0
  0
LINE
 62
7
  8
LINES
 10
2.59
 20
2.59
 30
0.0
 11
2.6
 21
2.6
 31
0.0
  0
LINE
 62
7
  8
LINES
 10
2.61
 20
2.61
 30
0.0
 11
2.61
 21
2.61
 31
0.0
  0
LINE
 62
7
  8
LINES
 10
2.62
 20
2.62
 30
0.0
 11
2.63
 21
2.63
 31
0.0
  0
LINE
 62
7
  8
LINES
 10
2.64
 20
2.64
 30
0.0
 11
2.65
 21
2.65
 31
0.0
  0
LINE
 62
7
  8
LINES
 10
2.66
 20
2.66
 30
0.0
 11
2.67
 21
2.67
 31
0.0
  0
LINE
 62
7
  8
LINES
 10
2.68
 20
2.68
 30
0.0
 11
2.68
 21
2.68
 31
0.0
  0
LINE
 62
7
  8
LINES
 10
2.69
 20
2.69
 30
0.0
 11
2.7
 21
2.7
 31
0.0
  0
LINE
 62
7
  8
LINES
 10
2.71
 20
2.71
 30
0.0
 11
2.72
 21
2.72
 31
0.0
  0
LINE
 62
7
  8
LINES
 10
2.73
 20
2.73
 30
0.0
 11
2.74
 21
2.74
 31
0.0
  0
LINE
 62
7
  8
LINES
 10
2.75
 20
2.75
 30
0.0
 11
2.75
 21
2.75
 31
0.0
  0
LINE
 62
7
  8
LINES
 10
2.76
 20
2.76
 30
0.0
 11
2.77
 21
2.77
 31
0.0
  0
LINE
 62
7
  8
LINES
 10
2.78
 20
2.78
 30
0.0
 11
2.79
 21
2.79
 31
0.0
  0
LINE
 62
7
  8
LINES
 10
2.8
 20
2.8
 30
0.0
 11
2.81
 21
2.81
 31
0.0
  0
LINE
 62
7
  8
LINES
 10
2.82
 20
2.82
 30
0.0
 11
2.82
 21
2.82
 31
0.0
  0
LINE
 62
7
  8
LINES
 10
2.83
 20
2.83
 30
0.0
 11
2.84
 21
2.84
 31
0.0
  0
LINE
 62
7
  8
LINES
 10
2.85
 20
2.85
 30
0.0
 11
2.86
 21
2.86
 31
0.0
  0
LINE
 62
7
  8
LINES
 10
2.87
 20
2.87
 30
0.0
 11
2.88
 21
2.88
 31
0.0
  0
LINE
 62
7
  8
LINES
 10
2.89
 20
2.89
 30
0.0
 11
2.89
 21
2.89
 31
0.0
  0
LINE
 62
7
  8
LINES
 10
2.9
 20
2.9
 30
0.0
 11
2.91
 21
2.91
 31
0.0
  0
LINE
 62
7
  8
LINES
 10
2.92
 20
2.92
 30
0.0
 11
2.93
 21
2.93
 31
0.0
  0
LINE
 62
7
  8
LINES
 10
2.94
 20
2.94
 30
0.0
 11
2.95
 21
2.95
 31
0.0
  0
LINE
 62
7
  8
LINES
 10
2.96
 20
2.96
 30
0.0
 11
2.96
 21
2.96
 31
0.0
  0
LINE
 62
7
  8
LINES
 10
2.97
 20
2.97
 30
0.0
 11
2.98
 21
2.98
 31
0.0
  0
LINE
 62
7
  8
LINES
 10
2.99
 20
2.99
 30
0.0
 11
3.0
 21
3.0
 31
0.0
  0
LINE
 62
7
  8
LINES
 10
3.01
 20
3.01
 30
0.0
 11
3.02
 21
3.02
 31
0.0
  0
LINE
 62
7
  8
LINES
 10
3.03
 20
3.03
 30
0.0
 11
3.03
 21
3.03
 31
0.0
  0
LINE
 62
7
  8
LINES
 10
3.04
 20
3.04
 30
0.0
 11
3.05
 21
3.05
 31
0.0
  0
LINE
 62
7
  8
LINES
 10
3.06
 20
3.06
 30
0.0
 11
3.07
 21
3.07
 31
0.0
  0
LINE
 62
7
  8
LINES
 10
3.08
 20
3.08
 30
0.0
 11
3.09
 21
3.09
 31
0.0
  0
LINE
 62
7
  8
LINES
 10
3.1
 20
3.1
 30
0.0
 11
3.1
 21
3.1
 31
0.0
  0
LINE
 62
7
  8
LINES
 10
3.11
 20
3.11
 30
0.0
 11
3.12
 21
3.12
 31
0.0
  0
LINE
 62
7
  8
LINES
 10
3.13
 20
3.13
 30
0.0
 11
3.14
 21
3.14
 31
0.0
  0
LINE
 62
7
  8
LINES
 10
3.15
 20
3.15
 30
0.0
 11
3.16
 21
3.16
 31
0.0
  0
LINE
 62
7
  8
LINES
 10
3.17
 20
3.17
 30
0.0
 11
3.18
 21
3.18
 31
0.0
  0
LINE
 62
7
  8
LINES
 10
3.18
 20
3.18
 30
0.0
 11
3.19
 21
3.19
 31
0.0
  0
LINE
 62
7
  8
LINES
 10
3.2
 20
3.2
 30
0.0
 11
3.21
 21
3.21
 31
0.0
  0
LINE
 62
7
  8
LINES
 10
3.22
 20
3.22
 30
0.0
 11
3.23
 21
3.23
 31
0.0
  0
LINE
 62
7
  8
LINES
 10
3.24
 20
3.24
 30
0.0
 11
3.25
 21
3.25
 31
0.0
  0
LINE
 62
7
  8
LINES
 10
3.25
 20
3.25
 30
0.0
 11
3.26
 21
3.26
 31
0.0
  0
LINE
 62
7
  8
LINES
 10
3.27
 20
3.27
 30
0.0
 11
3.28
 21
3.28
 31
0.0
  0
LINE
 62
7
  8
LINES
 10
3.29
 20
3.29
 30
0.0
 11
3.3
 21
3.3
 31
0.0
  0
LINE
 62
7
  8
LINES
 10
3.31
 20
3.31
 30
0.0
 11
3.32
 21
3.32
 31
0.0
  0
LINE
 62
7
  8
LINES
 10
3.33
 20
3.33
 30
0.0
 11
3.33
 21
3.33
 31
0.0
  0
LINE
 62
7
  8
LINES
 10
3.34
 20
3.34
 30
0.0
 11
3.35
 21
3.35
 31
0.0
  0
LINE
 62
7
  8
LINES
 10
3.36
 20
3.36
 30
0.0
 11
3.37
 21
3.37
 31
0.0
  0
LINE
 62
7
  8
LINES
 10
3.38
 20
3.38
 30
0.0
 11
3.39
 21
3.39
 31
0.0
  0
LINE
 62
7
  8
LINES
 10
3.4
 20
3.4
 30
0.0
 11
3.41
 21
3.41
 31
0.0
  0
LINE
 62
7
  8
LINES
 10
3.41
 20
3.41
 30
0.0
 11
3.42
 21
3.42
 31
0.0
  0
LINE
 62
7
  8
LINES
 10
3.43
 20
3.43
 30
0.0
 11
3.44
 21
3.44
 31
0.0
  0
LINE
 62
7
  8
LINES
 10
3.45
 20
3.45
 30
0.0
 11
3.46
 21
3.46
 31
0.0
  0
LINE
 62
7
  8
LINES
 10
3.47
 20
3.47
 30
0.0
 11
3.48
 21
3.48
 31
0.0
  0
LINE
 62
7
  8
LINES
 10
3.48
 20
3.48
 30
0.0
 11
3.49
 21
3.49
 31
0.0
  0
LINE
 62
7
  8
LINES
 10
3.5
 20
3.5
 30
0.0
 11
3.51
 21
3.51
 31
0.0
  0
LINE
 62
7
  8
LINES
 10
3.52
 20
3.52
 30
0.0
 11
3.53
 21
3.53
 31
0.0
  0
LINE
 62
7
  8
LINES
 10
3.54
 20
3.54
 30
0.0
 11
3.55
 21
3.55
 31
0.0
  0
LINE
 62
7
  8
LINES
 10
3.56
 20
3.56
 30
0.0
 11
3.56
 21
3.56
 31
0.0
  0
LINE
 62
7
  8
LINES
 10
3.57
 20
3.57
 30
0.0
 11
3.58
 21
3.58
 31
0.0
  0
LINE
 62
7
  8
LINES
 10
3.59
 20
3.59
 30
0.0
 11
3.6
 21
3.6
 31
0.0
  0
LINE
 62
7
  8
LINES
 10
3.61
 20
3.61
 30
0.0
 11
3.62
 21
3.62
 31
0.0
  0
LINE
 62
7
  8
LINES
 10
3.63
 20
3.63
 30
0.0
 11
3.64
 21
3.64
 31
0.0
  0
LINE
 62
7
  8
LINES
 10
3.64
 20
3.64
 30
0.0
 11
3.65
 21
3.65
 31
0.0
  0
LINE
 62
7
  8
LINES
 10
3.66
 20
3.66
 30
0.0
 11
3.67
 21
3.67
 31
0.0
  0
LINE
 62
7
  8
LINES
 10
3.68
 20
3.68
 30
0.0
 11
3.69
 21
3.69
 31
0.0
  0
LINE
 62
7
  8
LINES
 10
3.7
 20
3.7
 30
0.0
 11
3.71
 21
3.71
 31
0.0
  0
LINE
 62
7
  8
LINES
 10
3.72
 20
3.72
 30
0.0
 11
3.72
 21
3.72
 31
0.0
  0
LINE
 62
7
  8
LINES
 10
3.73
 20
3.73
 30
0.0
 11
3.74
 21
3.74
 31
0.0
  0
LINE
 62
7
  8
LINES
 10
3.75
 20
3.75
 30
0.0
 11
3.76
 21
3.76
 31
0.0
  0
LINE
 62
7
  8
LINES
 10
3.77
 20
3.77
 30
0.0
 11
3.78
 21
3.78
 31
0.0
  0
LINE
 62
7
  8
LINES
 10
3.79
 20
3.79
 30
0.0
 11
3.8
 21
3.8
 31
0.0
  0
LINE
 62
7
  8
LINES
 10
3.8
 20
3.8
 30
0.0
 11
3.81
 21
3.81
 31
0.0
  0
LINE
 62
7
  8
LINES
 10
3.82
 20
3.82
 30
0.0
 11
3.83
 21
3.83
 31
0.0
  0
LINE
 62
7
  8
LINES
 10
3.84
 20
3.84
 30
0.0
 11
3.85
 21
3.85
 31
0.0
  0
LINE
 62
7
  8
LINES
 10
3.86
 20
3.86
 30
0.0
 11
3.87
 21
3.87
 31
0.0
  0
LINE
 62
7
  8
LINES
 10
3.88
 20
3.88
 30
0.0
 11
3.88
 21
3.88
 31
0.0
  0
LINE
 62
7
  8
LINES
 10
3.89
 20
3.89
 30
0.0
 11
3.9
 21
3.9
 31
0.0
  0
LINE
 62
7
  8
LINES
 10
3.91
 20
3.91
 30
0.0
 11
3.92
 21
3.92
 31
0.0
  0
LINE
 62
7
  8
LINES
 10
3.93
 20
3.93
 30
0.0
 11
3.94
 21
3.94
 31
0.0
  0
LINE
 62
7
  8
LINES
 10
3.95
 20
3.95
 30
0.0
 11
3.96
 21
3.96
 31
0.0
  0
LINE
 62
7
  8
LINES
 10
3.96
 20
3.96
 30
0.0
 11
3.97
 21
3.97
 31
0.0
  0
LINE
 62
7
  8
LINES
 10
3.98
 20
3.98
 30
0.0
 11
3.99
 21
3.99
 31
0.0
  0
LINE
 62
7
  8
LINES
 10
4.0
 20
4.0
 30
0.0
 11
4.01
 21
4.01
 31
0.0
  0
LINE
 62
7
  8
LINES
 10
4.02
 20
4.02
 30
0.0
 11
4.03
 21
4.03
 31
0.0
  0
LINE
 62
7
  8
LINES
 10
4.04
 20
4.04
 30
0.0
 11
4.05
 21
4.05
 31
0.0
  0
LINE
 62
7
  8
LINES
 10
4.05
 20
4.05
 30
0.0
 11
4.06
 21
4.06
 31
0.0
  0
LINE
 62
7
  8
LINES
 10
4.07
 20
4.07
 30
0.0
 11
4.08
 21
4.08
 31
0.0
  0
LINE
 62
7
  8
LINES
 10
4.09
 20
4.09
 30
0.0
 11
4.1
 21
4.1
 31
0.0
  0
LINE
 62
7
  8
LINES
 10
4.11
 20
4.11
 30
0.0
 11
4.12
 21
4.12
 31
0.0
  0
LINE
 62
7
  8
LINES
 10
4.13
 20
4.13
 30
0.0
 11
4.13
 21
4.13
 31
0.0
  0
LINE
 62
7
  8
LINES
 10
4.14
 20
4.14
 30
0.0
 11
4.15
 21
4.15
 31
0.0
  0
LINE
 62
7
  8
LINES
 10
4.16
 20
4.16
 30
0.0
 11
4.17
 21
4.17
 31
0.0
  0
LINE
 62
7
  8
LINES
 10
4.18
 20
4.18
 30
0.0
 11
4.19
 21
4.19
 31
0.0
  0
LINE
 62
7
  8
LINES
 10
4.2
 20
4.2
 30
0.0
 11
4.21
 21
4.21
 31
0.0
  0
LINE
 62
7
  8
LINES
 10
4.21
 20
4.21
 30
0.0
 11
4.22
 21
4.22
 31
0.0
  0
LINE
 62
7
  8
LINES
 10
4.23
 20
4.23
 30
0.0
 11
4.24
 21
4.24
 31
0.0
  0
LINE
 62
7
  8
LINES
 10
4.25
 20
4.25
 30
0.0
 11
4.26
 21
4.26
 31
0.0
  0
LINE
 62
7
  8
LINES
 10
4.27
 20
4.27
 30
0.0
 11
4.28
 21
4.28
 31
0.0
  0
LINE
 62
7
  8
LINES
 10
4.29
 20
4.29
 30
0.0
 11
4.29
 21
4.29
 31
0.0
  0
LINE
 62
7
  8
LINES
 10
4.3
 20
4.3
 30
0.0
 11
4.31
 21
4.31
 31
0.0
  0
LINE
 62
7
  8
LINES
 10
4.32
 20
4.32
 30
0.0
 11
4.33
 21
4.33
 31
0.0
  0
LINE
 62
7
  8
LINES
 10
4.34
 20
4.34
 30
0.0
 11
4.35
 21
4.35
 31
0.0
  0
LINE
 62
7
  8
LINES
 10
4.36
 20
4.36
 30
0.0
 11
4.37
 21
4.37
 31
0.0
  0
LINE
 62
7
  8
LINES
 10
4.38
 20
4.38
 30
0.0
 11
4.38
 21
4.38
 31
0.0
  0
LINE
 62
7
  8
LINES
 10
4.39
 20
4.39
 30
0.0
 11
4.4
 21
4.4
 31
0.0
  0
LINE
 62
7
  8
LINES
 10
4.41
 20
4.41
 30
0.0
 11
4.42
 21
4.42
 31
0.0
  0
LINE
 62
7
  8
LINES
 10
4.43
 20
4.43
 30
0.0
 11
4.44
 21
4.44
 31
0.0
  0
LINE
 62
7
  8
LINES
 10
4.45
 20
4.45
 30
0.0
 11
4.46
 21
4.46
 31
0.0
  0
LINE
 62
7
  8
LINES
 10
4.46
 20
4.46
 30
0.0
 11
4.47
 21
4.47
 31
0.0
  0
LINE
 62
7
  8
LINES
 10
4.48
 20
4.48
 30
0.0
 11
4.49
 21
4.49
 31
0.0
  0
LINE
 62
7
  8
LINES
 10
4.5
 20
4.5
 30
0.0
 11
4.51
 21
4.51
 31
0.0
  0
LINE
 62
7
  8
LINES
 10
4.52
 20
4.52
 30
0.0
 11
4.53
 21
4.53
 31
0.0
  0
LINE
 62
7
  8
LINES
 10
4.54
 20
4.54
 30
0.0
 11
4.55
 21
4.55
 31
0.0
  0
LINE
 62
7
  8
LINES
 10
4.55
 20
4.55
 30
0.0
 11
4.56
 21
4.56
 31
0.0
  0
LINE
 62
7
  8
LINES
 10
4.57
 20
4.57
 30
0.0
 11
4.58
 21
4.58
 31
0.0
  0
LINE
 62
7
  8
LINES
 10
4.59
 20
4.59
 30
0.0
 11
4.6
 21
4.6
 31
0.0
  0
LINE
 62
7
  8
LINES
 10
4.61
 20
4.61
 30
0.0
 11
4.62
 21
4.62
 31
0.0
  0
LINE
 62
7
  8
LINES
 10
4.63
 20
4.63
 30
0.0
 11
4.63
 21
4.63
 31
0.0
  0
LINE
 62
7
  8
LINES
 10
4.64
 20
4.64
 30
0.0
 11
4.65
 21
4.65
 31
0.0
  0
LINE
 62
7
  8
LINES
 10
4.66
 20
4.66
 30
0.0
 11
4.67
 21
4.67
 31
0.0
  0
LINE
 62
7
  8
LINES
 10
4.68
 20
4.68
 30
0.0
 11
4.69
 21
4.69
 31
0.0
  0
LINE
 62
7
  8
LINES
 10
4.7
 20
4.7
 30
0.0
 11
4.71
 21
4.71
 31
0.0
  0
LINE
 62
7
  8
LINES
 10
4.71
 20
4.71
 30
0.0
 11
4.72
 21
4.72
 31
0.0
  0
LINE
 62
7
  8
LINES
 10
4.73
 20
4.73
 30
0.0
 11
4.74
 21
4.74
 31
0.0
  0
LINE
 62
7
  8
LINES
 10
4.75
 20
4.75
 30
0.0
 11
4.76
 21
4.76
 31
0.0
  0
LINE
 62
7
  8
LINES
 10
4.77
 20
4.77
 30
0.0
 11
4.78
 21
4.78
 31
0.0
  0
LINE
 62
7
  8
LINES
 10
4.79
 20
4.79
 30
0.0
 11
4.8
 21
4.8
 31
0.0
  0
LINE
 62
7
  8
LINES
 10
4.8
 20
4.8
 30
0.0
 11
4.81
 21
4.81
 31
0.0
  0
LINE
 62
7
  8
LINES
 10
4.82
 20
4.82
 30
0.0
 11
4.83
 21
4.83
 31
0.0
  0
LINE
 62
7
  8
LINES
 10
4.84
 20
4.84
 30
0.0
 11
4.85
 21
4.85
 31
0.0
  0
LINE
 62
7
  8
LINES
 10
4.86
 20
4.86
 30
0.0
 11
4.87
 21
4.87
 31
0.0
  0
LINE
 62
7
  8
LINES
 10
4.88
 20
4.88
 30
0.0
 11
4.88
 21
4.88
 31
0.0
  0
LINE
 62
7
  8
LINES
 10
4.89
 20
4.89
 30
0.0
 11
4.9
 21
4.9
 31
0.0
  0
LINE
 62
7
  8
LINES
 10
4.91
 20
4.91
 30
0.0
 11
4.92
 21
4.92
 31
0.0
  0
LINE
 62
7
  8
LINES
 10
4.93
 20
4.93
 30
0.0
 11
4.94
 21
4.94
 31
0.0
  0
LINE
 62
7
  8
LINES
 10
4.95
 20
4.95
 30
0.0
 11
4.96
 21
4.96
 31
0.0
  0
LINE
 62
7
  8
LINES
 10
4.97
 20
4.97
 30
0.0
 11
4.97
 21
4.97
 31
0.0
  0
LINE
 62
7
  8
LINES
 10
4.98
 20
4.98
 30
0.0
 11
4.99
 21
4.99
 31
0.0
  0
LINE
 62
7
  8
LINES
 10
5.0
 20
5.0
 30
0.0
 11
5.01
 21
5.01
 31
0.0
  0
LINE
 62
7
  8
LINES
 10
5.02
 20
5.02
 30
0.0
 11
5.03
 21
5.03
 31
0.0
  0
LINE
 62
7
  8
LINES
 10
5.04
 20
5.04
 30
0.0
 11
5.05
 21
5.05
 31
0.0
  0
LINE
 62
7
  8
LINES
 10
5.05
 20
5.05
 30
0.0
 11
5.06
 21
5.06
 31
0.0
  0
LINE
 62
7
  8
LINES
 10
5.07
 20
5.07
 30
0.0
 11
5.08
 21
5.08
 31
0.0
  0
LINE
 62
7
  8
LINES
 10
5.09
 20
5.09
 30
0.0
 11
5.1
 21
5.1
 31
0.0
  0
LINE
 62
7
  8
LINES
 10
5.11
 20
5.11
 30
0.0
 11
5.12
 21
5.12
 31
0.0
  0
LINE
 62
7
  8
LINES
 10
5.13
 20
5.13
 30
0.0
 11
5.14
 21
5.14
 31
0.0
  0
LINE
 62
7
  8
LINES
 10
5.14
 20
5.14
 30
0.0
 11
5.15
 21
5.15
 31
0.0
  0
LINE
 62
7
  8
LINES
 10
5.16
 20
5.16
 30
0.0
 11
5.17
 21
5.17
 31
0.0
  0
LINE
 62
7
  8
LINES
 10
5.18
 20
5.18
 30
0.0
 11
5.19
 21
5.19
 31
0.0
  0
LINE
 62
7
  8
LINES
 10
5.2
 20
5.2
 30
0.0
 11
5.21
 21
5.21
 31
0.0
  0
LINE
 62
7
  8
LINES
 10
5.22
 20
5.22
 30
0.0
 11
5.22
 21
5.22
 31
0.0
  0
LINE
 62
7
  8
LINES
 10
5.23
 20
5.23
 30
0.0
 11
5.24
 21
5.24
 31
0.0
  0
LINE
 62
7
  8
LINES
 10
5.25
 20
5.25
 30
0.0
 11
5.26
 21
5.26
 31
0.0
  0
LINE
 62
7
  8
LINES
 10
5.27
 20
5.27
 30
0.0
 11
5.28
 21
5.28
 31
0.0
  0
LINE
 62
7
  8
LINES
 10
5.29
 20
5.29
 30
0.0
 11
5.3
 21
5.3
 31
0.0
  0
LINE
 62
7
  8
LINES
 10
5.31
 20
5.31
 30
0.0
 11
5.31
 21
5.31
 31
0.0
  0
LINE
 62
7
  8
LINES
 10
5.32
 20
5.32
 30
0.0
 11
5.33
 21
5.33
 31
0.0
  0
LINE
 62
7
  8
LINES
 10
5.34
 20
5.34
 30
0.0
 11
5.35
 21
5.35
 31
0.0
  0
LINE
 62
7
  8
LINES
 10
5.36
 20
5.36
 30
0.0
 11
5.37
 21
5.37
 31
0.0
  0
LINE
 62
7
  8
LINES
 10
5.38
 20
5.38
 30
0.0
 11
5.39
 21
5.39
 31
0.0
  0
LINE
 62
7
  8
LINES
 10
5.39
 20
5.39
 30
0.0
 11
5.4
 21
5.4
 31
0.0
  0
LINE
 62
7
  8
LINES
 10
5.41
 20
5.41
 30
0.0
 11
5.42
 21
5.42
 31
0.0
  0
LINE
 62
7
  8
LINES
 10
5.43
 20
5.43
 30
0.0
 11
5.44
 21
5.44
 31
0.0
  0
LINE
 62
7
  8
LINES
 10
5.45
 20
5.45
 30
0.0
 11
5.46
 21
5.46
 31
0.0
  0
LINE
 62
7
  8
LINES
 10
5.47
 20
5.47
 30
0.0
 11
5.48
 21
5.48
 31
0.0
  0
LINE
 62
7
  8
LINES
 10
5.48
 20
5.48
 30
0.0
 11
5.49
 21
5.49
 31
0.0
  0
LINE
 62
7
  8
LINES
 10
5.5
 20
5.5
 30
0.0
 11
5.51
 21
5.51
 31
0.0
  0
LINE
 62
7
  8
LINES
 10
5.52
 20
5.52
 30
0.0
 11
5.53
 21
5.53
 31
0.0
  0
LINE
 62
7
  8
LINES
 10
5.54
 20
5.54
 30
0.0
 11
5.55
 21
5.55
 31
0.0
  0
LINE
 62
7
  8
LINES
 10
5.56
 20
5.56
 30
0.0
 11
5.56
 21
5.56
 31
0.0
  0
LINE
 62
7
  8
LINES
 10
5.57
 20
5.57
 30
0.0
 11
5.58
 21
5.58
 31
0.0
  0
LINE
 62
7
  8
LINES
 10
5.59
 20
5.59
 30
0.0
 11
5.6
 21
5.6
 31
0.0
  0
LINE
 62
7
  8
LINES
 10
5.61
 20
5.61
 30
0.0
 11
5.62
 21
5.62
 31
0.0
  0
LINE
 62
7
  8
LINES
 10
5.63
 20
5.63
 30
0.0
 11
5.64
 21
5.64
 31
0.0
  0
LINE
 62
7
  8
LINES
 10
5.65
 20
5.65
 30
0.0
 11
5.65
 21
5.65
 31
0.0
  0
LINE
 62
7
  8
LINES
 10
5.66
 20
5.66
 30
0.0
 11
5.67
 21
5.67
 31
0.0
  0
LINE
 62
7
  8
LINES
 10
5.68
 20
5.68
 30
0.0
 11
5.69
 21
5.69
 31
0.0
  0
LINE
 62
7
  8
LINES
 10
5.7
 20
5.7
 30
0.0
 11
5.71
 21
5.71
 31
0.0
  0
LINE
 62
7
  8
LINES
 10
5.72
 20
5.72
 30
0.0
 11
5.73
 21
5.73
 31
0.0
  0
LINE
 62
7
  8
LINES
 10
5.73
 20
5.73
 30
0.0
 11
5.74
 21
5.74
 31
0.0
  0
LINE
 62
7
  8
LINES
 10
5.75
 20
5.75
 30
0.0
 11
5.76
 21
5.76
 31
0.0
  0
LINE
 62
7
  8
LINES
 10
5.77
 20
5.77
 30
0.0
 11
5.78
 21
5.78
 31
0.0
  0
LINE
 62
7
  8
LINES
 10
5.79
 20
5.79
 30
0.0
 11
5.8
 21
5.8
 31
0.0
  0
LINE
 62
7
  8
LINES
 10
5.81
 20
5.81
 30
0.0
 11
5.81
 21
5.81
 31
0.0
  0
LINE
 62
7
  8
LINES
 10
5.82
 20
5.82
 30
0.0
 11
5.83
 21
5.83
 31
0.0
  0
LINE
 62
7
  8
LINES
 10
5.84
 20
5.84
 30
0.0
 11
5.85
 21
5.85
 31
0.0
  0
LINE
 62
7
  8
LINES
 10
5.86
 20
5.86
 30
0.0
 11
5.87
 21
5.87
 31
0.0
  0
LINE
 62
7
  8
LINES
 10
5.88
 20
5.88
 30
0.0
 11
5.89
 21
5.89
 31
0.0
  0
LINE
 62
7
  8
LINES
 10
5.9
 20
5.9
 30
0.0
 11
5.9
 21
5.9
 31
0.0
  0
LINE
 62
7
  8
LINES
 10
5.91
 20
5.91
 30
0.0
 11
5.92
 21
5.92
 31
0.0
  0
LINE
 62
7
  8
LINES
 10
5.93
 20
5.93
 30
0.0
 11
5.94
 21
5.94
 31
0.0
  0
LINE
 62
7
  8
LINES
 10
5.95
 20
5.95
 30
0.0
 11
5.96
 21
5.96
 31
0.0
  0
LINE
 62
7
  8
LINES
 10
5.97
 20
5.97
 30
0.0
 11
5.98
 21
5.98
 31
0.0
  0
LINE
 62
7
  8
LINES
 10
5.98
 20
5.98
 30
0.0
 11
5.99
 21
5.99
 31
0.0
  0
LINE
 62
7
  8
LINES
 10
6.0
 20
6.0
 30
0.0
 11
6.01
 21
6.01
 31
0.0
  0
LINE
 62
7
  8
LINES
 10
6.02
 20
6.02
 30
0.0
 11
6.03
 21
6.03
 31
0.0
  0
LINE
 62
7
  8
LINES
 10
6.04
 20
6.04
 30
0.0
 11
6.05
 21
6.05
 31
0.0
  0
LINE
 62
7
  8
LINES
 10
6.06
 20
6.06
 30
0.0
 11
6.06
 21
6.06
 31
0.0
  0
LINE
 62
7
  8
LINES
 10
6.07
 20
6.07
 30
0.0
 11
6.08
 21
6.08
 31
0.0
  0
LINE
 62
7
  8
LINES
 10
6.09
 20
6.09
 30
0.0
 11
6.1
 21
6.1
 31
0.0
  0
LINE
 62
7
  8
LINES
 10
6.11
 20
6.11
 30
0.0
 11
6.12
 21
6.12
 31
0.0
  0
LINE
 62
7
  8
LINES
 10
6.13
 20
6.13
 30
0.0
 11
6.14
 21
6.14
 31
0.0
  0
LINE
 62
7
  8
LINES
 10
6.14
 20
6.14
 30
0.0
 11
6.15
 21
6.15
 31
0.0
  0
LINE
 62
7
  8
LINES
 10
6.16
 20
6.16
 30
0.0
 11
6.17
 21
6.17
 31
0.0
  0
LINE
 62
7
  8
LINES
 10
6.18
 20
6.18
 30
0.0
 11
6.19
 21
6.19
 31
0.0
  0
LINE
 62
7
  8
LINES
 10
6.2
 20
6.2
 30
0.0
 11
6.21
 21
6.21
 31
0.0
  0
LINE
 62
7
  8
LINES
 10
6.22
 20
6.22
 30
0.0
 11
6.22
 21
6.22
 31
0.0
  0
LINE
 62
7
  8
LINES
 10
6.23
 20
6.23
 30
0.0
 11
6.24
 21
6.24
 31
0.0
  0
LINE
 62
7
  8
LINES
 10
6.25
 20
6.25
 30
0.0
 11
6.26
 21
6.26
 31
0.0
  0
LINE
 62
7
  8
LINES
 10
6.27
 20
6.27
 30
0.0
 11
6.28
 21
6.28
 31
0.0
  0
LINE
 62
7
  8
LINES
 10
6.29
 20
6.29
 30
0.0
 11
6.3
 21
6.3
 31
0.0
  0
LINE
 62
7
  8
LINES
 10
6.31
 20
6.31
 30
0.0
 11
6.31
 21
6.31
 31
0.0
  0
LINE
 62
7
  8
LINES
 10
6.32
 20
6.32
 30
0.0
 11
6.33
 21
6.33
 31
0.0
  0
LINE
 62
7
  8
LINES
 10
6.34
 20
6.34
 30
0.0
 11
6.35
 21
6.35
 31
0.0
  0
LINE
 62
7
  8
LINES
 10
6.36
 20
6.36
 30
0.0
 11
6.37
 21
6.37
 31
0.0
  0
LINE
 62
7
  8
LINES
 10
6.38
 20
6.38
 30
0.0
 11
6.39
 21
6.39
 31
0.0
  0
LINE
 62
7
  8
LINES
 10
6.39
 20
6.39
 30
0.0
 11
6.4
 21
6.4
 31
0.0
  0
LINE
 62
7
  8
LINES
 10
6.41
 20
6.41
 30
0.0
 11
6.42
 21
6.42
 31
0.0
  0
LINE
 62
7
  8
LINES
 10
6.43
 20
6.43
 30
0.0
 11
6.44
 21
6.44
 31
0.0
  0
LINE
 62
7
  8
LINES
 10
6.45
 20
6.45
 30
0.0
 11
6.46
 21
6.46
 31
0.0
  0
LINE
 62
7
  8
LINES
 10
6.47
 20
6.47
 30
0.0
 11
6.47
 21
6.47
 31
0.0
  0
LINE
 62
7
  8
LINES
 10
6.48
 20
6.48
 30
0.0
 11
6.49
 21
6.49
 31
0.0
  0
LINE
 62
7
  8
LINES
 10
6.5
 20
6.5
 30
0.0
 11
6.51
 21
6.51
 31
0.0
  0
LINE
 62
7
  8
LINES
 10
6.52
 20
6.52
 30
0.0
 11
6.53
 21
6.53
 31
0.0
  0
LINE
 62
7
  8
LINES
 10
6.54
 20
6.54
 30
0.0
 11
6.54
 21
6.54
 31
0.0
  0
LINE
 62
7
  8
LINES
 10
6.55
 20
6.55
 30
0.0
 11
6.56
 21
6.56
 31
0.0
  0
LINE
 62
7
  8
LINES
 10
6.57
 20
6.57
 30
0.0
 11
6.58
 21
6.58
 31
0.0
  0
LINE
 62
7
  8
LINES
 10
6.59
 20
6.59
 30
0.0
 11
6.6
 21
6.6
 31
0.0
  0
LINE
 62
7
  8
LINES
 10
6.61
 20
6.61
 30
0.0
 11
6.62
 21
6.62
 31
0.0
  0
LINE
 62
7
  8
LINES
 10
6.62
 20
6.62
 30
0.0
 11
6.63
 21
6.63
 31
0.0
  0
LINE
 62
7
  8
LINES
 10
6.64
 20
6.64
 30
0.0
 11
6.65
 21
6.65
 31
0.0
  0
LINE
 62
7
  8
LINES
 10
6.66
 20
6.66
 30
0.0
 11
6.67
 21
6.67
 31
0.0
  0
LINE
 62
7
  8
LINES
 10
6.68
 20
6.68
 30
0.0
 11
6.69
 21
6.69
 31
0.0
  0
LINE
 62
7
  8
LINES
 10
6.7
 20
6.7
 30
0.0
 11
6.7
 21
6.7
 31
0.0
  0
LINE
 62
7
  8
LINES
 10
6.71
 20
6.71
 30
0.0
 11
6.72
 21
6.72
 31
0.0
  0
LINE
 62
7
  8
LINES
 10
6.73
 20
6.73
 30
0.0
 11
6.74
 21
6.74
 31
0.0
  0
LINE
 62
7
  8
LINES
 10
6.75
 20
6.75
 30
0.0
 11
6.76
 21
6.76
 31
0.0
  0
LINE
 62
7
  8
LINES
 10
6.77
 20
6.77
 30
0.0
 11
6.78
 21
6.78
 31
0.0
  0
LINE
 62
7
  8
LINES
 10
6.78
 20
6.78
 30
0.0
 11
6.79
 21
6.79
 31
0.0
  0
LINE
 62
7
  8
LINES
 10
6.8
 20
6.8
 30
0.0
 11
6.81
 21
6.81
 31
0.0
  0
LINE
 62
7
  8
LINES
 10
6.82
 20
6.82
 30
0.0
 11
6.83
 21
6.83
 31
0.0
  0
LINE
 62
7
  8
LINES
 10
6.84
 20
6.84
 30
0.0
 11
6.85
 21
6.85
 31
0.0
  0
LINE
 62
7
  8
LINES
 10
6.85
 20
6.85
 30
0.0
 11
6.86
 21
6.86
 31
0.0
  0
LINE
 62
7
  8
LINES
 10
6.87
 20
6.87
 30
0.0
 11
6.88
 21
6.88
 31
0.0
  0
LINE
 62
7
  8
LINES
 10
6.89
 20
6.89
 30
0.0
 11
6.9
 21
6.9
 31
0.0
  0
LINE
 62
7
  8
LINES
 10
6.91
 20
6.91
 30
0.0
 11
6.92
 21
6.92
 31
0.0
  0
LINE
 62
7
  8
LINES
 10
6.93
 20
6.93
 30
0.0
 11
6.93
 21
6.93
 31
0.0
  0
LINE
 62
7
  8
LINES
 10
6.94
 20
6.94
 30
0.0
 11
6.95
 21
6.95
 31
0.0
  0
LINE
 62
7
  8
LINES
 10
6.96
 20
6.96
 30
0.0
 11
6.97
 21
6.97
 31
0.0
  0
LINE
 62
7
  8
LINES
 10
6.98
 20
6.98
 30
0.0
 11
6.99
 21
6.99
 31
0.0
  0
LINE
 62
7
  8
LINES
 10
7.0
 20
7.0
 30
0.0
 11
7.0
 21
7.0
 31
0.0
  0
LINE
 62
7
  8
LINES
 10
7.01
 20
7.01
 30
0.0
 11
7.02
 21
7.02
 31
0.0
  0
LINE
 62
7
  8
LINES
 10
7.03
 20
7.03
 30
0.0
 11
7.04
 21
7.04
 31
0.0
  0
LINE
 62
7
  8
LINES
 10
7.05
 20
7.05
 30
0.0
 11
7.06
 21
7.06
 31
0.0
  0
LINE
 62
7
  8
LINES
 10
7.07
 20
7.07
 30
0.0
 11
7.07
 21
7.07
 31
0.0
  0
LINE
 62
7
  8
LINES
 10
7.08
 20
7.08
 30
0.0
 11
7.09
 21
7.09
 31
0.0
  0
LINE
 62
7
  8
LINES
 10
7.1
 20
7.1
 30
0.0
 11
7.11
 21
7.11
 31
0.0
  0
LINE
 62
7
  8
LINES
 10
7.12
 20
7.12
 30
0.0
 11
7.13
 21
7.13
 31
0.0
  0
LINE
 62
7
  8
LINES
 10
7.14
 20
7.14
 30
0.0
 11
7.15
 21
7.15
 31
0.0
  0
LINE
 62
7
  8
LINES
 10
7.15
 20
7.15
 30
0.0
 11
7.16
 21
7.16
 31
0.0
  0
LINE
 62
7
  8
LINES
 10
7.17
 20
7.17
 30
0.0
 11
7.18
 21
7.18
 31
0.0
  0
LINE
 62
7
  8
LINES
 10
7.19
 20
7.19
 30
0.0
 11
7.2
 21
7.2
 31
0.0
  0
LINE
 62
7
  8
LINES
 10
7.21
 20
7.21
 30
0.0
 11
7.22
 21
7.22
 31
0.0
  0
LINE
 62
7
  8
LINES
 10
7.22
 20
7.22
 30
0.0
 11
7.23
 21
7.23
 31
0.0
  0
LINE
 62
7
  8
LINES
 10
7.24
 20
7.24
 30
0.0
 11
7.25
 21
7.25
 31
0.0
  0
LINE
 62
7
  8
LINES
 10
7.26
 20
7.26
 30
0.0
 11
7.27
 21
7.27
 31
0.0
  0
LINE
 62
7
  8
LINES
 10
7.28
 20
7.28
 30
0.0
 11
7.29
 21
7.29
 31
0.0
  0
LINE
 62
7
  8
LINES
 10
7.29
 20
7.29
 30
0.0
 11
7.3
 21
7.3
 31
0.0
  0
LINE
 62
7
  8
LINES
 10
7.31
 20
7.31
 30
0.0
 11
7.32
 21
7.32
 31
0.0
  0
LINE
 62
7
  8
LINES
 10
7.33
 20
7.33
 30
0.0
 11
7.34
 21
7.34
 31
0.0
  0
LINE
 62
7
  8
LINES
 10
7.35
 20
7.35
 30
0.0
 11
7.36
 21
7.36
 31
0.0
  0
LINE
 62
7
  8
LINES
 10
7.36
 20
7.36
 30
0.0
 11
7.37
 21
7.37
 31
0.0
  0
LINE
 62
7
  8
LINES
 10
7.38
 20
7.38
 30
0.0
 11
7.39
 21
7.39
 31
0.0
  0
LINE
 62
7
  8
LINES
 10
7.4
 20
7.4
 30
0.0
 11
7.41
 21
7.41
 31
0.0
  0
LINE
 62
7
  8
LINES
 10
7.42
 20
7.42
 30
0.0
 11
7.43
 21
7.43
 31
0.0
  0
LINE
 62
7
  8
LINES
 10
7.43
 20
7.43
 30
0.0
 11
7.44
 21
7.44
 31
0.0
  0
LINE
 62
7
  8
LINES
 10
7.45
 20
7.45
 30
0.0
 11
7.46
 21
7.46
 31
0.0
  0
LINE
 62
7
  8
LINES
 10
7.47
 20
7.47
 30
0.0
 11
7.48
 21
7.48
 31
0.0
  0
LINE
 62
7
  8
LINES
 10
7.49
 20
7.49
 30
0.0
 11
7.49
 21
7.49
 31
0.0
  0
LINE
 62
7
  8
LINES
 10
7.5
 20
7.5
 30
0.0
 11
7.51
 21
7.51
 31
0.0
  0
LINE
 62
7
  8
LINES
 10
7.52
 20
7.52
 30
0.0
 11
7.53
 21
7.53
 31
0.0
  0
LINE
 62
7
  8
LINES
 10
7.54
 20
7.54
 30
0.0
 11
7.55
 21
7.55
 31
0.0
  0
LINE
 62
7
  8
LINES
 10
7.56
 20
7.56
 30
0.0
 11
7.56
 21
7.56
 31
0.0
  0
LINE
 62
7
  8
LINES
 10
7.57
 20
7.57
 30
0.0
 11
7.58
 21
7.58
 31
0.0
  0
LINE
 62
7
  8
LINES
 10
7.59
 20
7.59
 30
0.0
 11
7.6
 21
7.6
 31
0.0
  0
LINE
 62
7
  8
LINES
 10
7.61
 20
7.61
 30
0.0
 11
7.62
 21
7.62
 31
0.0
  0
LINE
 62
7
  8
LINES
 10
7.62
 20
7.62
 30
0.0
 11
7.63
 21
7.63
 31
0.0
  0
LINE
 62
7
  8
LINES
 10
7.64
 20
7.64
 30
0.0
 11
7.65
 21
7.65
 31
0.0
  0
LINE
 62
7
  8
LINES
 10
7.66
 20
7.66
 30
0.0
 11
7.67
 21
7.67
 31
0.0
  0
LINE
 62
7
  8
LINES
 10
7.68
 20
7.68
 30
0.0
 11
7.69
 21
7.69
 31
0.0
  0
ENDSEC
  0
EOF
