  0
SECTION
  2
HEADER
  9
$ACADVER
  1
AC1009
  9
$INSBASE
 10
0.0
 20
0.0
 30
0.0
  9
$EXTMIN
 10
0.0
 20
0.0
 30
0.0
  9
$EXTMAX
 10
100.0
 20
100.0
 30
0.0
  9
$UNITMODE
 70
0
  9
$AUNITS
 70
0
  9
$ANGBASE
 50
0.0
  9
$ANGDIR
 70
0
  0
ENDSEC
  0
SECTION
  2
TABLES
  0
TABLE
  2
LTYPE
 70
19
  0
LTYPE
  2
CONTINUOUS
 70
0
  3
Solid
 72
65
 73
0
 40
0.0
  0
LTYPE
  2
CENTER
 70
0
  3
Center ____ _ ____ _ ____ _ ____ _ ____ _ ____
 72
65
 73
4
 40
2.0
 49
1.25
 49
-0.25
 49
0.25
 49
-0.25
  0
LTYPE
  2
CENTERX2
 70
0
  3
Center (2x) ________  __  ________  __  ________
 72
65
 73
4
 40
3.5
 49
2.5
 49
-0.25
 49
0.5
 49
-0.25
  0
LTYPE
  2
CENTER2
 70
0
  3
Center (.5x) ____ _ ____ _ ____ _ ____ _ ____
 72
65
 73
4
 40
1.0
 49
0.625
 49
-0.125
 49
0.125
 49
-0.125
  0
LTYPE
  2
DASHED
 70
0
  3
Dashed __ __ __ __ __ __ __ __ __ __ __ __ __ _
 72
65
 73
2
 40
0.6
 49
0.5
 49
-0.1
  0
LTYPE
  2
DASHEDX2
 70
0
  3
Dashed (2x) ____  ____  ____  ____  ____  ____
 72
65
 73
2
 40
1.2
 49
1.0
 49
-0.2
  0
LTYPE
  2
DASHED2
 70
0
  3
Dashed (.5x) _ _ _ _ _ _ _ _ _ _ _ _ _ _
 72
65
 73
2
 40
0.3
 49
0.25
 49
-0.05
  0
LTYPE
  2
PHANTOM
 70
0
  3
Phantom ______  __  __  ______  __  __  ______
 72
65
 73
6
 40
2.5
 49
1.25
 49
-0.25
 49
0.25
 49
-0.25
 49
0.25
 49
-0.25
  0
LTYPE
  2
PHANTOMX2
 70
0
  3
Phantom (2x)____________    ____    ____    ____________
 72
65
 73
6
 40
4.25
 49
2.5
 49
-0.25
 49
0.5
 49
-0.25
 49
0.5
 49
-0.25
  0
LTYPE
  2
PHANTOM2
 70
0
  3
Phantom (.5x) ___ _ _ ___ _ _ ___ _ _ ___ _ _ ___
 72
65
 73
6
 40
1.25
 49
0.625
 49
-0.125
 49
0.125
 49
-0.125
 49
0.125
 49
-0.125
  0
LTYPE
  2
DASHDOT
 70
0
  3
Dash dot __ . __ . __ . __ . __ . __ . __ . __
 72
65
 73
4
 40
1.4
 49
1.0
 49
-0.2
 49
0.0
 49
-0.2
  0
LTYPE
  2
DASHDOTX2
 70
0
  3
Dash dot (2x) ____  .  ____  .  ____  .  ____
 72
65
 73
4
 40
2.4
 49
2.0
 49
-0.2
 49
0.0
 49
-0.2
  0
LTYPE
  2
DASHDOT2
 70
0
  3
Dash dot (.5x) _ . _ . _ . _ . _ . _ . _ . _
 72
65
 73
4
 40
0.7
 49
0.5
 49
-0.1
 49
0.0
 49
-0.1
  0
LTYPE
  2
DOT
 70
0
  3
Dot .  .  .  .  .  .  .  .  .  .  .  .  .  .  .  .
 72
65
 73
2
 40
0.2
 49
0.0
 49
-0.2
  0
LTYPE
  2
DOTX2
 70
0
  3
Dot (2x) .    .    .    .    .    .    .    . 
 72
65
 73
2
 40
0.4
 49
0.0
 49
-0.4
  0
LTYPE
  2
DOT2
 70
0
  3
Dot (.5) . . . . . . . . . . . . . . . . . . . 
 72
65
 73
2
 40
0.1
 49
0.0
 49
-0.1
  0
LTYPE
  2
DIVIDE
 70
0
  3
Divide __ . . __ . . __ . . __ . . __ . . __
 72
65
 73
6
 40
1.6
 49
1.0
 49
-0.2
 49
0.0
 49
-0.2
 49
0.0
 49
-0.2
  0
LTYPE
  2
DIVIDEX2
 70
0
  3
Divide (2x) ____  . .  ____  . .  ____  . .  ____
 72
65
 73
6
 40
2.6
 49
2.0
 49
-0.2
 49
0.0
 49
-0.2
 49
0.0
 49
-0.2
  0
LTYPE
  2
DIVIDE2
 70
0
  3
Divide(.5x) _ . _ . _ . _ . _ . _ . _ . _
 72
65
 73
6
 40
0.8
 49
0.5
 49
-0.1
 49
0.0
 49
-0.1
 49
0.0
 49
-0.1
  0
ENDTAB
  0
TABLE
  2
LAYER
 70
6
  0
LAYER
  2
DIMENSIONS
 70
0
 62
1
  6
CONTINUOUS
  0
LAYER
  2
TABLEBACKGROUND
 70
0
 62
1
  6
CONTINUOUS
  0
LAYER
  2
TABLECONTENT
 70
0
 62
1
  6
CONTINUOUS
  0
LAYER
  2
TABLEGRID
 70
0
 62
1
  6
CONTINUOUS
  0
LAYER
  2
VIEWPORTS
 70
0
 62
7
  6
CONTINUOUS
  0
LAYER
  2
LINES
 70
0
 62
1
  6
CONTINUOUS
  0
ENDTAB
  0
TABLE
  2
STYLE
 70
12
  0
STYLE
  2
STANDARD
 70
0
 40
0.0
 41
1.0
 42
1.0
 50
0.0
 71
0
  3
arial.ttf
  4

  0
STYLE
  2
ARIAL
 70
0
 40
0.0
 41
1.0
 42
1.0
 50
0.0
 71
0
  3
arial.ttf
  4

  0
STYLE
  2
ARIAL_BOLD
 70
0
 40
0.0
 41
1.0
 42
1.0
 50
0.0
 71
0
  3
arialbd.ttf
  4

  0
STYLE
  2
ARIAL_ITALIC
 70
0
 40
0.0
 41
1.0
 42
1.0
 50
0.0
 71
0
  3
ariali.ttf
  4

  0
STYLE
  2
ARIAL_BOLD_ITALIC
 70
0
 40
0.0
 41
1.0
 42
1.0
 50
0.0
 71
0
  3
arialbi.ttf
  4

  0
STYLE
  2
ARIAL_BLACK
 70
0
 40
0.0
 41
1.0
 42
1.0
 50
0.0
 71
0
  3
ariblk.ttf
  4

  0
STYLE
  2
ISOCPEUR
 70
0
 40
0.0
 41
1.0
 42
1.0
 50
0.0
 71
0
  3
isocpeur.ttf
  4

  0
STYLE
  2
ISOCPEUR_ITALIC
 70
0
 40
0.0
 41
1.0
 42
1.0
 50
0.0
 71
0
  3
isocpeui.ttf
  4

  0
STYLE
  2
TIMES
 70
0
 40
0.0
 41
1.0
 42
1.0
 50
0.0
 71
0
  3
times.ttf
  4

  0
STYLE
  2
TIMES_BOLD
 70
0
 40
0.0
 41
1.0
 42
1.0
 50
0.0
 71
0
  3
timesbd.ttf
  4

  0
STYLE
  2
TIMES_ITALIC
 70
0
 40
0.0
 41
1.0
 42
1.0
 50
0.0
 71
0
  3
timesi.ttf
  4

  0
STYLE
  2
TIMES_BOLD_ITALIC
 70
0
 40
0.0
 41
1.0
 42
1.0
 50
0.0
 71
0
  3
timesbi.ttf
  4

  0
ENDTAB
  0
TABLE
  2
VIEW
 70
0
  0
ENDTAB
  0
TABLE
  2
APPID
 70
1
  0
APPID
  2
DXFWRITE
 70
0
  0
ENDTAB
  0
TABLE
  2
VPORT
 70
0
  0
ENDTAB
  0
TABLE
  2
UCS
 70
0
  0
ENDTAB
  0
ENDSEC
  0
SECTION
  2
BLOCKS
  0
ENDSEC
  0
SECTION
  2
ENTITIES
  0
VIEWPORT
  8
VIEWPORTS
 67
1
 10
0.0
 20
0.0
 30
0.0
 40
1.0
 41
1.0
 68
1
 69
1
1001
ACAD
1000
MVIEW
1002
{
1070
16
1010
0.0
1020
0.0
1030
0.0
1010
0.0
1020
0.0
1030
0.0
1040
0.0
1040
1.0
1040
0.0
1040
0.0
1040
50.0
1040
0.0
1040
0.0
1070
0
1070
100
1070
1
1070
3
1070
0
1070
0
1070
0
1070
0
1040
0.0
1040
0.0
1040
0.0
1040
0.1
1040
0.1
1040
0.1
1040
0.1
1070
0
1002
{
1002
}
1002
}
  0
LINE
 62
7
  8
LINES
 10
18.1
 20
66.7
 30
0.0
 11
18.1
 21
66.8
 31
0.0
  0
LINE
 62
7
  8
LINES
 10
18.1
 20
66.9
 30
0.0
 11
18.1
 21
67.0
 31
0.0
  0
LINE
 62
7
  8
LINES
 10
18.2
 20
67.1
 30
0.0
 11
18.2
 21
67.2
 31
0.0
  0
LINE
 62
7
  8
LINES
 10
18.2
 20
67.3
 30
0.0
 11
18.2
 21
67.4
 31
0.0
  0
LINE
 62
7
  8
LINES
 10
18.2
 20
67.5
 30
0.0
 11
18.0
 21
65.9
 31
0.0
  0
LINE
 62
7
  8
LINES
 10
18.0
 20
66.0
 30
0.0
 11
18.0
 21
66.1
 31
0.0
  0
LINE
 62
7
  8
LINES
 10
18.0
 20
66.2
 30
0.0
 11
18.1
 21
66.3
 31
0.0
  0
LINE
 62
7
  8
LINES
 10
18.1
 20
66.4
 30
0.0
 11
18.1
 21
66.5
 31
0.0
  0
LINE
 62
7
  8
LINES
 10
18.1
 20
66.6
 30
0.0
 11
18.1
 21
66.7
 31
0.0
  0
LINE
 62
7
  8
LINES
 10
18.0
 20
65.2
 30
0.0
 11
18.0
 21
65.3
 31
0.0
  0
LINE
 62
7
  8
LINES
 10
18.0
 20
65.4
 30
0.0
 11
18.0
 21
65.5
 31
0.0
  0
LINE
 62
7
  8
LINES
 10
18.0
 20
65.6
 30
0.0
 11
18.0
 21
65.7
 31
0.0
  0
LINE
 62
7
  8
LINES
 10
18.0
 20
65.8
 30
0.0
 11
18.0
 21
65.9
 31
0.0
  0
LINE
 62
7
  8
LINES
 10
17.9
 20
64.5
 30
0.0
 11
17.9
 21
64.6
 31
0.0
  0
LINE
 62
7
  8
LINES
 10
17.9
 20
64.7
 30
0.0
 11
17.9
 21
64.8
 31
0.0
  0
LINE
 62
7
  8
LINES
 10
18.0
 20
64.9
 30
0.0
 11
18.0
 21
65.0
 31
0.0
  0
LINE
 62
7
  8
LINES
 10
18.0
 20
65.1
 30
0.0
 11
18.0
 21
65.2
 31
0.0
  0
LINE
 62
7
  8
LINES
 10
17.9
 20
63.7
 30
0.0
 11
17.9
 21
63.8
 31
0.0
  0
LINE
 62
7
  8
LINES
 10
17.9
 20
63.9
 30
0.0
 11
17.9
 21
64.0
 31
0.0
  0
LINE
 62
7
  8
LINES
 10
17.9
 20
64.1
 30
0.0
 11
17.9
 21
64.2
 31
0.0
  0
LINE
 62
7
  8
LINES
 10
17.9
 20
64.3
 30
0.0
 11
17.9
 21
64.4
 31
0.0
  0
LINE
 62
7
  8
LINES
 10
17.9
 20
64.5
 30
0.0
 11
17.9
 21
63.0
 31
0.0
  0
LINE
 62
7
  8
LINES
 10
17.9
 20
63.1
 30
0.0
 11
17.9
 21
63.2
 31
0.0
  0
LINE
 62
7
  8
LINES
 10
17.9
 20
63.3
 30
0.0
 11
17.9
 21
63.4
 31
0.0
  0
LINE
 62
7
  8
LINES
 10
17.9
 20
63.5
 30
0.0
 11
17.9
 21
63.6
 31
0.0
  0
LINE
 62
7
  8
LINES
 10
17.9
 20
63.7
 30
0.0
 11
17.8
 21
62.3
 31
0.0
  0
LINE
 62
7
  8
LINES
 10
17.8
 20
62.4
 30
0.0
 11
17.8
 21
62.5
 31
0.0
  0
LINE
 62
7
  8
LINES
 10
17.8
 20
62.6
 30
0.0
 11
17.9
 21
62.7
 31
0.0
  0
LINE
 62
7
  8
LINES
 10
17.9
 20
62.8
 30
0.0
 11
17.9
 21
62.9
 31
0.0
  0
LINE
 62
7
  8
LINES
 10
17.9
 20
63.0
 30
0.0
 11
17.8
 21
61.6
 31
0.0
  0
LINE
 62
7
  8
LINES
 10
17.8
 20
61.7
 30
0.0
 11
17.8
 21
61.8
 31
0.0
  0
LINE
 62
7
  8
LINES
 10
17.8
 20
61.9
 30
0.0
 11
17.8
 21
62.0
 31
0.0
  0
LINE
 62
7
  8
LINES
 10
17.8
 20
62.1
 30
0.0
 11
17.8
 21
62.2
 31
0.0
  0
LINE
 62
7
  8
LINES
 10
17.8
 20
62.3
 30
0.0
 11
17.8
 21
60.8
 31
0.0
  0
LINE
 62
7
  8
LINES
 10
17.8
 20
60.9
 30
0.0
 11
17.8
 21
61.0
 31
0.0
  0
LINE
 62
7
  8
LINES
 10
17.8
 20
61.1
 30
0.0
 11
17.8
 21
61.2
 31
0.0
  0
LINE
 62
7
  8
LINES
 10
17.8
 20
61.3
 30
0.0
 11
17.8
 21
61.4
 31
0.0
  0
LINE
 62
7
  8
LINES
 10
17.8
 20
61.5
 30
0.0
 11
17.8
 21
61.6
 31
0.0
  0
LINE
 62
7
  8
LINES
 10
17.8
 20
60.1
 30
0.0
 11
17.8
 21
60.2
 31
0.0
  0
LINE
 62
7
  8
LINES
 10
17.8
 20
60.3
 30
0.0
 11
17.8
 21
60.4
 31
0.0
  0
LINE
 62
7
  8
LINES
 10
17.8
 20
60.5
 30
0.0
 11
17.8
 21
60.6
 31
0.0
  0
LINE
 62
7
  8
LINES
 10
17.8
 20
60.7
 30
0.0
 11
17.8
 21
60.8
 31
0.0
  0
LINE
 62
7
  8
LINES
 10
17.8
 20
59.4
 30
0.0
 11
17.8
 21
59.5
 31
0.0
  0
LINE
 62
7
  8
LINES
 10
17.8
 20
59.6
 30
0.0
 11
17.8
 21
59.7
 31
0.0
  0
LINE
 62
7
  8
LINES
 10
17.8
 20
59.8
 30
0.0
 11
17.8
 21
59.9
 31
0.0
  0
LINE
 62
7
  8
LINES
 10
17.8
 20
60.0
 30
0.0
 11
17.8
 21
60.1
 31
0.0
  0
LINE
 62
7
  8
LINES
 10
17.9
 20
58.7
 30
0.0
 11
17.9
 21
58.8
 31
0.0
  0
LINE
 62
7
  8
LINES
 10
17.9
 20
58.9
 30
0.0
 11
17.9
 21
59.0
 31
0.0
  0
LINE
 62
7
  8
LINES
 10
17.8
 20
59.1
 30
0.0
 11
17.8
 21
59.2
 31
0.0
  0
LINE
 62
7
  8
LINES
 10
17.8
 20
59.3
 30
0.0
 11
17.8
 21
59.4
 31
0.0
  0
LINE
 62
7
  8
LINES
 10
17.9
 20
58.1
 30
0.0
 11
17.9
 21
58.2
 31
0.0
  0
LINE
 62
7
  8
LINES
 10
17.9
 20
58.3
 30
0.0
 11
17.9
 21
58.4
 31
0.0
  0
LINE
 62
7
  8
LINES
 10
17.9
 20
58.5
 30
0.0
 11
17.9
 21
58.6
 31
0.0
  0
LINE
 62
7
  8
LINES
 10
17.9
 20
58.7
 30
0.0
 11
17.9
 21
57.4
 31
0.0
  0
LINE
 62
7
  8
LINES
 10
17.9
 20
57.5
 30
0.0
 11
17.9
 21
57.6
 31
0.0
  0
LINE
 62
7
  8
LINES
 10
17.9
 20
57.7
 30
0.0
 11
17.9
 21
57.8
 31
0.0
  0
LINE
 62
7
  8
LINES
 10
17.9
 20
57.9
 30
0.0
 11
17.9
 21
58.0
 31
0.0
  0
LINE
 62
7
  8
LINES
 10
17.9
 20
58.1
 30
0.0
 11
18.0
 21
56.7
 31
0.0
  0
LINE
 62
7
  8
LINES
 10
18.0
 20
56.8
 30
0.0
 11
18.0
 21
56.9
 31
0.0
  0
LINE
 62
7
  8
LINES
 10
18.0
 20
57.0
 30
0.0
 11
17.9
 21
57.1
 31
0.0
  0
LINE
 62
7
  8
LINES
 10
17.9
 20
57.2
 30
0.0
 11
17.9
 21
57.3
 31
0.0
  0
LINE
 62
7
  8
LINES
 10
17.9
 20
57.4
 30
0.0
 11
18.0
 21
56.0
 31
0.0
  0
LINE
 62
7
  8
LINES
 10
18.0
 20
56.1
 30
0.0
 11
18.0
 21
56.2
 31
0.0
  0
LINE
 62
7
  8
LINES
 10
18.0
 20
56.3
 30
0.0
 11
18.0
 21
56.4
 31
0.0
  0
LINE
 62
7
  8
LINES
 10
18.0
 20
56.5
 30
0.0
 11
18.0
 21
56.6
 31
0.0
  0
LINE
 62
7
  8
LINES
 10
18.0
 20
56.7
 30
0.0
 11
18.1
 21
55.4
 31
0.0
  0
LINE
 62
7
  8
LINES
 10
18.1
 20
55.5
 30
0.0
 11
18.1
 21
55.6
 31
0.0
  0
LINE
 62
7
  8
LINES
 10
18.0
 20
55.7
 30
0.0
 11
18.0
 21
55.8
 31
0.0
  0
LINE
 62
7
  8
LINES
 10
18.0
 20
55.9
 30
0.0
 11
18.0
 21
56.0
 31
0.0
  0
LINE
 62
7
  8
LINES
 10
18.2
 20
54.7
 30
0.0
 11
18.2
 21
54.8
 31
0.0
  0
LINE
 62
7
  8
LINES
 10
18.2
 20
54.9
 30
0.0
 11
18.2
 21
55.0
 31
0.0
  0
LINE
 62
7
  8
LINES
 10
18.1
 20
55.1
 30
0.0
 11
18.1
 21
55.2
 31
0.0
  0
LINE
 62
7
  8
LINES
 10
18.1
 20
55.3
 30
0.0
 11
18.1
 21
55.4
 31
0.0
  0
LINE
 62
7
  8
LINES
 10
18.2
 20
54.1
 30
0.0
 11
18.2
 21
54.2
 31
0.0
  0
LINE
 62
7
  8
LINES
 10
18.2
 20
54.3
 30
0.0
 11
18.2
 21
54.4
 31
0.0
  0
LINE
 62
7
  8
LINES
 10
18.2
 20
54.5
 30
0.0
 11
18.2
 21
54.6
 31
0.0
  0
LINE
 62
7
  8
LINES
 10
18.2
 20
54.7
 30
0.0
 11
18.3
 21
53.4
 31
0.0
  0
LINE
 62
7
  8
LINES
 10
18.3
 20
53.5
 30
0.0
 11
18.3
 21
53.6
 31
0.0
  0
LINE
 62
7
  8
LINES
 10
18.3
 20
53.7
 30
0.0
 11
18.2
 21
53.8
 31
0.0
  0
LINE
 62
7
  8
LINES
 10
18.2
 20
53.9
 30
0.0
 11
18.2
 21
54.0
 31
0.0
  0
LINE
 62
7
  8
LINES
 10
18.2
 20
54.1
 30
0.0
 11
18.4
 21
52.8
 31
0.0
  0
LINE
 62
7
  8
LINES
 10
18.4
 20
52.9
 30
0.0
 11
18.4
 21
53.0
 31
0.0
  0
LINE
 62
7
  8
LINES
 10
18.3
 20
53.1
 30
0.0
 11
18.3
 21
53.2
 31
0.0
  0
LINE
 62
7
  8
LINES
 10
18.3
 20
53.3
 30
0.0
 11
18.3
 21
53.4
 31
0.0
  0
LINE
 62
7
  8
LINES
 10
18.5
 20
52.1
 30
0.0
 11
18.5
 21
52.2
 31
0.0
  0
LINE
 62
7
  8
LINES
 10
18.5
 20
52.3
 30
0.0
 11
18.5
 21
52.4
 31
0.0
  0
LINE
 62
7
  8
LINES
 10
18.4
 20
52.5
 30
0.0
 11
18.4
 21
52.6
 31
0.0
  0
LINE
 62
7
  8
LINES
 10
18.4
 20
52.7
 30
0.0
 11
18.4
 21
52.8
 31
0.0
  0
LINE
 62
7
  8
LINES
 10
18.6
 20
51.5
 30
0.0
 11
18.6
 21
51.6
 31
0.0
  0
LINE
 62
7
  8
LINES
 10
18.6
 20
51.7
 30
0.0
 11
18.5
 21
51.8
 31
0.0
  0
LINE
 62
7
  8
LINES
 10
18.5
 20
51.9
 30
0.0
 11
18.5
 21
52.0
 31
0.0
  0
LINE
 62
7
  8
LINES
 10
18.5
 20
52.1
 30
0.0
 11
18.8
 21
50.9
 31
0.0
  0
LINE
 62
7
  8
LINES
 10
18.8
 20
51.0
 30
0.0
 11
18.7
 21
51.1
 31
0.0
  0
LINE
 62
7
  8
LINES
 10
18.7
 20
51.2
 30
0.0
 11
18.7
 21
51.3
 31
0.0
  0
LINE
 62
7
  8
LINES
 10
18.6
 20
51.4
 30
0.0
 11
18.6
 21
51.5
 31
0.0
  0
LINE
 62
7
  8
LINES
 10
18.9
 20
50.3
 30
0.0
 11
18.9
 21
50.4
 31
0.0
  0
LINE
 62
7
  8
LINES
 10
18.9
 20
50.5
 30
0.0
 11
18.8
 21
50.6
 31
0.0
  0
LINE
 62
7
  8
LINES
 10
18.8
 20
50.7
 30
0.0
 11
18.8
 21
50.8
 31
0.0
  0
LINE
 62
7
  8
LINES
 10
18.8
 20
50.9
 30
0.0
 11
19.0
 21
49.7
 31
0.0
  0
LINE
 62
7
  8
LINES
 10
19.0
 20
49.8
 30
0.0
 11
19.0
 21
49.9
 31
0.0
  0
LINE
 62
7
  8
LINES
 10
18.9
 20
50.0
 30
0.0
 11
18.9
 21
50.1
 31
0.0
  0
LINE
 62
7
  8
LINES
 10
18.9
 20
50.2
 30
0.0
 11
18.9
 21
50.3
 31
0.0
  0
LINE
 62
7
  8
LINES
 10
19.2
 20
49.1
 30
0.0
 11
19.2
 21
49.2
 31
0.0
  0
LINE
 62
7
  8
LINES
 10
19.1
 20
49.3
 30
0.0
 11
19.1
 21
49.4
 31
0.0
  0
LINE
 62
7
  8
LINES
 10
19.1
 20
49.5
 30
0.0
 11
19.0
 21
49.6
 31
0.0
  0
LINE
 62
7
  8
LINES
 10
19.0
 20
49.7
 30
0.0
 11
19.3
 21
48.5
 31
0.0
  0
LINE
 62
7
  8
LINES
 10
19.3
 20
48.6
 30
0.0
 11
19.3
 21
48.7
 31
0.0
  0
LINE
 62
7
  8
LINES
 10
19.2
 20
48.8
 30
0.0
 11
19.2
 21
48.9
 31
0.0
  0
LINE
 62
7
  8
LINES
 10
19.2
 20
49.0
 30
0.0
 11
19.2
 21
49.1
 31
0.0
  0
LINE
 62
7
  8
LINES
 10
19.5
 20
47.9
 30
0.0
 11
19.5
 21
48.0
 31
0.0
  0
LINE
 62
7
  8
LINES
 10
19.4
 20
48.1
 30
0.0
 11
19.4
 21
48.2
 31
0.0
  0
LINE
 62
7
  8
LINES
 10
19.4
 20
48.3
 30
0.0
 11
19.3
 21
48.4
 31
0.0
  0
LINE
 62
7
  8
LINES
 10
19.3
 20
48.5
 30
0.0
 11
19.6
 21
47.3
 31
0.0
  0
LINE
 62
7
  8
LINES
 10
19.6
 20
47.4
 30
0.0
 11
19.6
 21
47.5
 31
0.0
  0
LINE
 62
7
  8
LINES
 10
19.5
 20
47.6
 30
0.0
 11
19.5
 21
47.7
 31
0.0
  0
LINE
 62
7
  8
LINES
 10
19.5
 20
47.8
 30
0.0
 11
19.5
 21
47.9
 31
0.0
  0
LINE
 62
7
  8
LINES
 10
19.8
 20
46.7
 30
0.0
 11
19.8
 21
46.8
 31
0.0
  0
LINE
 62
7
  8
LINES
 10
19.7
 20
46.9
 30
0.0
 11
19.7
 21
47.0
 31
0.0
  0
LINE
 62
7
  8
LINES
 10
19.7
 20
47.1
 30
0.0
 11
19.6
 21
47.2
 31
0.0
  0
LINE
 62
7
  8
LINES
 10
19.6
 20
47.3
 30
0.0
 11
20.0
 21
46.1
 31
0.0
  0
LINE
 62
7
  8
LINES
 10
20.0
 20
46.2
 30
0.0
 11
19.9
 21
46.3
 31
0.0
  0
LINE
 62
7
  8
LINES
 10
19.9
 20
46.4
 30
0.0
 11
19.9
 21
46.5
 31
0.0
  0
LINE
 62
7
  8
LINES
 10
19.8
 20
46.6
 30
0.0
 11
19.8
 21
46.7
 31
0.0
  0
LINE
 62
7
  8
LINES
 10
20.2
 20
45.6
 30
0.0
 11
20.2
 21
45.7
 31
0.0
  0
LINE
 62
7
  8
LINES
 10
20.1
 20
45.8
 30
0.0
 11
20.1
 21
45.9
 31
0.0
  0
LINE
 62
7
  8
LINES
 10
20.0
 20
46.0
 30
0.0
 11
20.0
 21
46.1
 31
0.0
  0
LINE
 62
7
  8
LINES
 10
20.4
 20
45.0
 30
0.0
 11
20.4
 21
45.1
 31
0.0
  0
LINE
 62
7
  8
LINES
 10
20.3
 20
45.2
 30
0.0
 11
20.3
 21
45.3
 31
0.0
  0
LINE
 62
7
  8
LINES
 10
20.3
 20
45.4
 30
0.0
 11
20.2
 21
45.5
 31
0.0
  0
LINE
 62
7
  8
LINES
 10
20.2
 20
45.6
 30
0.0
 11
20.6
 21
44.5
 31
0.0
  0
LINE
 62
7
  8
LINES
 10
20.6
 20
44.6
 30
0.0
 11
20.5
 21
44.7
 31
0.0
  0
LINE
 62
7
  8
LINES
 10
20.5
 20
44.8
 30
0.0
 11
20.4
 21
44.9
 31
0.0
  0
LINE
 62
7
  8
LINES
 10
20.4
 20
45.0
 30
0.0
 11
20.8
 21
43.9
 31
0.0
  0
LINE
 62
7
  8
LINES
 10
20.8
 20
44.0
 30
0.0
 11
20.7
 21
44.1
 31
0.0
  0
LINE
 62
7
  8
LINES
 10
20.7
 20
44.2
 30
0.0
 11
20.7
 21
44.3
 31
0.0
  0
LINE
 62
7
  8
LINES
 10
20.6
 20
44.4
 30
0.0
 11
20.6
 21
44.5
 31
0.0
  0
LINE
 62
7
  8
LINES
 10
21.1
 20
43.4
 30
0.0
 11
21.0
 21
43.5
 31
0.0
  0
LINE
 62
7
  8
LINES
 10
21.0
 20
43.6
 30
0.0
 11
20.9
 21
43.7
 31
0.0
  0
LINE
 62
7
  8
LINES
 10
20.9
 20
43.8
 30
0.0
 11
20.8
 21
43.9
 31
0.0
  0
LINE
 62
7
  8
LINES
 10
21.3
 20
42.9
 30
0.0
 11
21.3
 21
43.0
 31
0.0
  0
LINE
 62
7
  8
LINES
 10
21.2
 20
43.1
 30
0.0
 11
21.2
 21
43.2
 31
0.0
  0
LINE
 62
7
  8
LINES
 10
21.1
 20
43.3
 30
0.0
 11
21.1
 21
43.4
 31
0.0
  0
LINE
 62
7
  8
LINES
 10
21.5
 20
42.3
 30
0.0
 11
21.5
 21
42.4
 31
0.0
  0
LINE
 62
7
  8
LINES
 10
21.4
 20
42.5
 30
0.0
 11
21.4
 21
42.6
 31
0.0
  0
LINE
 62
7
  8
LINES
 10
21.4
 20
42.7
 30
0.0
 11
21.3
 21
42.8
 31
0.0
  0
LINE
 62
7
  8
LINES
 10
21.3
 20
42.9
 30
0.0
 11
21.8
 21
41.8
 31
0.0
  0
LINE
 62
7
  8
LINES
 10
21.7
 20
41.9
 30
0.0
 11
21.7
 21
42.0
 31
0.0
  0
LINE
 62
7
  8
LINES
 10
21.6
 20
42.1
 30
0.0
 11
21.6
 21
42.2
 31
0.0
  0
LINE
 62
7
  8
LINES
 10
21.5
 20
42.3
 30
0.0
 11
22.0
 21
41.3
 31
0.0
  0
LINE
 62
7
  8
LINES
 10
22.0
 20
41.4
 30
0.0
 11
21.9
 21
41.5
 31
0.0
  0
LINE
 62
7
  8
LINES
 10
21.9
 20
41.6
 30
0.0
 11
21.8
 21
41.7
 31
0.0
  0
LINE
 62
7
  8
LINES
 10
21.8
 20
41.8
 30
0.0
 11
22.3
 21
40.8
 31
0.0
  0
LINE
 62
7
  8
LINES
 10
22.2
 20
40.9
 30
0.0
 11
22.2
 21
41.0
 31
0.0
  0
LINE
 62
7
  8
LINES
 10
22.1
 20
41.1
 30
0.0
 11
22.1
 21
41.2
 31
0.0
  0
LINE
 62
7
  8
LINES
 10
22.0
 20
41.3
 30
0.0
 11
22.6
 21
40.3
 31
0.0
  0
LINE
 62
7
  8
LINES
 10
22.5
 20
40.4
 30
0.0
 11
22.5
 21
40.5
 31
0.0
  0
LINE
 62
7
  8
LINES
 10
22.4
 20
40.6
 30
0.0
 11
22.4
 21
40.7
 31
0.0
  0
LINE
 62
7
  8
LINES
 10
22.3
 20
40.8
 30
0.0
 11
22.9
 21
39.8
 31
0.0
  0
LINE
 62
7
  8
LINES
 10
22.8
 20
39.9
 30
0.0
 11
22.8
 21
40.0
 31
0.0
  0
LINE
 62
7
  8
LINES
 10
22.7
 20
40.1
 30
0.0
 11
22.7
 21
40.2
 31
0.0
  0
LINE
 62
7
  8
LINES
 10
22.6
 20
40.3
 30
0.0
 11
23.2
 21
39.3
 31
0.0
  0
LINE
 62
7
  8
LINES
 10
23.1
 20
39.4
 30
0.0
 11
23.1
 21
39.5
 31
0.0
  0
LINE
 62
7
  8
LINES
 10
23.0
 20
39.6
 30
0.0
 11
23.0
 21
39.7
 31
0.0
  0
LINE
 62
7
  8
LINES
 10
22.9
 20
39.8
 30
0.0
 11
23.5
 21
38.8
 31
0.0
  0
LINE
 62
7
  8
LINES
 10
23.4
 20
38.9
 30
0.0
 11
23.4
 21
39.0
 31
0.0
  0
LINE
 62
7
  8
LINES
 10
23.3
 20
39.1
 30
0.0
 11
23.3
 21
39.2
 31
0.0
  0
LINE
 62
7
  8
LINES
 10
23.2
 20
39.3
 30
0.0
 11
23.8
 21
38.4
 31
0.0
  0
LINE
 62
7
  8
LINES
 10
23.7
 20
38.5
 30
0.0
 11
23.6
 21
38.6
 31
0.0
  0
LINE
 62
7
  8
LINES
 10
23.6
 20
38.7
 30
0.0
 11
23.5
 21
38.8
 31
0.0
  0
LINE
 62
7
  8
LINES
 10
24.1
 20
37.9
 30
0.0
 11
24.0
 21
38.0
 31
0.0
  0
LINE
 62
7
  8
LINES
 10
24.0
 20
38.1
 30
0.0
 11
23.9
 21
38.2
 31
0.0
  0
LINE
 62
7
  8
LINES
 10
23.9
 20
38.3
 30
0.0
 11
23.8
 21
38.4
 31
0.0
  0
LINE
 62
7
  8
LINES
 10
24.4
 20
37.5
 30
0.0
 11
24.3
 21
37.6
 31
0.0
  0
LINE
 62
7
  8
LINES
 10
24.2
 20
37.7
 30
0.0
 11
24.2
 21
37.8
 31
0.0
  0
LINE
 62
7
  8
LINES
 10
24.1
 20
37.9
 30
0.0
 11
24.8
 21
37.0
 31
0.0
  0
LINE
 62
7
  8
LINES
 10
24.7
 20
37.1
 30
0.0
 11
24.6
 21
37.2
 31
0.0
  0
LINE
 62
7
  8
LINES
 10
24.6
 20
37.3
 30
0.0
 11
24.5
 21
37.4
 31
0.0
  0
LINE
 62
7
  8
LINES
 10
24.4
 20
37.5
 30
0.0
 11
25.1
 21
36.6
 31
0.0
  0
LINE
 62
7
  8
LINES
 10
25.0
 20
36.7
 30
0.0
 11
24.9
 21
36.8
 31
0.0
  0
LINE
 62
7
  8
LINES
 10
24.9
 20
36.9
 30
0.0
 11
24.8
 21
37.0
 31
0.0
  0
LINE
 62
7
  8
LINES
 10
25.5
 20
36.1
 30
0.0
 11
25.4
 21
36.2
 31
0.0
  0
LINE
 62
7
  8
LINES
 10
25.3
 20
36.3
 30
0.0
 11
25.3
 21
36.4
 31
0.0
  0
LINE
 62
7
  8
LINES
 10
25.2
 20
36.5
 30
0.0
 11
25.1
 21
36.6
 31
0.0
  0
LINE
 62
7
  8
LINES
 10
25.8
 20
35.7
 30
0.0
 11
25.7
 21
35.8
 31
0.0
  0
LINE
 62
7
  8
LINES
 10
25.6
 20
35.9
 30
0.0
 11
25.6
 21
36.0
 31
0.0
  0
LINE
 62
7
  8
LINES
 10
25.5
 20
36.1
 30
0.0
 11
25.8
 21
35.7
 31
0.0
  0
LINE
 62
7
  8
LINES
 10
25.9
 20
35.6
 30
0.0
 11
26.0
 21
35.5
 31
0.0
  0
LINE
 62
7
  8
LINES
 10
26.1
 20
35.4
 30
0.0
 11
26.2
 21
35.3
 31
0.0
  0
LINE
 62
7
  8
LINES
 10
26.2
 20
35.3
 30
0.0
 11
26.3
 21
35.2
 31
0.0
  0
LINE
 62
7
  8
LINES
 10
26.4
 20
35.1
 30
0.0
 11
26.5
 21
35.0
 31
0.0
  0
LINE
 62
7
  8
LINES
 10
26.6
 20
34.9
 30
0.0
 11
26.6
 21
34.9
 31
0.0
  0
LINE
 62
7
  8
LINES
 10
26.7
 20
34.8
 30
0.0
 11
26.8
 21
34.7
 31
0.0
  0
LINE
 62
7
  8
LINES
 10
26.9
 20
34.6
 30
0.0
 11
27.0
 21
34.5
 31
0.0
  0
LINE
 62
7
  8
LINES
 10
27.3
 20
34.1
 30
0.0
 11
27.2
 21
34.2
 31
0.0
  0
LINE
 62
7
  8
LINES
 10
27.1
 20
34.3
 30
0.0
 11
27.1
 21
34.4
 31
0.0
  0
LINE
 62
7
  8
LINES
 10
27.0
 20
34.5
 30
0.0
 11
27.3
 21
34.1
 31
0.0
  0
LINE
 62
7
  8
LINES
 10
27.4
 20
34.0
 30
0.0
 11
27.5
 21
33.9
 31
0.0
  0
LINE
 62
7
  8
LINES
 10
27.6
 20
33.9
 30
0.0
 11
27.7
 21
33.8
 31
0.0
  0
LINE
 62
7
  8
LINES
 10
27.8
 20
33.7
 30
0.0
 11
27.8
 21
33.7
 31
0.0
  0
LINE
 62
7
  8
LINES
 10
27.9
 20
33.6
 30
0.0
 11
28.0
 21
33.5
 31
0.0
  0
LINE
 62
7
  8
LINES
 10
28.1
 20
33.4
 30
0.0
 11
28.2
 21
33.3
 31
0.0
  0
LINE
 62
7
  8
LINES
 10
28.2
 20
33.3
 30
0.0
 11
28.3
 21
33.2
 31
0.0
  0
LINE
 62
7
  8
LINES
 10
28.4
 20
33.1
 30
0.0
 11
28.5
 21
33.0
 31
0.0
  0
LINE
 62
7
  8
LINES
 10
28.6
 20
32.9
 30
0.0
 11
28.6
 21
32.9
 31
0.0
  0
LINE
 62
7
  8
LINES
 10
28.7
 20
32.8
 30
0.0
 11
28.8
 21
32.7
 31
0.0
  0
LINE
 62
7
  8
LINES
 10
28.9
 20
32.7
 30
0.0
 11
29.0
 21
32.6
 31
0.0
  0
LINE
 62
7
  8
LINES
 10
29.0
 20
32.6
 30
0.0
 11
29.1
 21
32.5
 31
0.0
  0
LINE
 62
7
  8
LINES
 10
29.2
 20
32.4
 30
0.0
 11
29.3
 21
32.3
 31
0.0
  0
LINE
 62
7
  8
LINES
 10
29.4
 20
32.2
 30
0.0
 11
29.4
 21
32.2
 31
0.0
  0
LINE
 62
7
  8
LINES
 10
29.5
 20
32.1
 30
0.0
 11
29.6
 21
32.0
 31
0.0
  0
LINE
 62
7
  8
LINES
 10
29.7
 20
32.0
 30
0.0
 11
29.8
 21
31.9
 31
0.0
  0
LINE
 62
7
  8
LINES
 10
29.9
 20
31.8
 30
0.0
 11
29.9
 21
31.8
 31
0.0
  0
LINE
 62
7
  8
LINES
 10
30.0
 20
31.7
 30
0.0
 11
30.1
 21
31.6
 31
0.0
  0
LINE
 62
7
  8
LINES
 10
30.2
 20
31.6
 30
0.0
 11
30.3
 21
31.5
 31
0.0
  0
LINE
 62
7
  8
LINES
 10
30.3
 20
31.5
 30
0.0
 11
30.4
 21
31.4
 31
0.0
  0
LINE
 62
7
  8
LINES
 10
30.5
 20
31.4
 30
0.0
 11
30.6
 21
31.3
 31
0.0
  0
LINE
 62
7
  8
LINES
 10
30.7
 20
31.3
 30
0.0
 11
30.8
 21
31.2
 31
0.0
  0
LINE
 62
7
  8
LINES
 10
30.8
 20
31.2
 30
0.0
 11
30.9
 21
31.1
 31
0.0
  0
LINE
 62
7
  8
LINES
 10
31.0
 20
31.0
 30
0.0
 11
31.1
 21
31.0
 31
0.0
  0
LINE
 62
7
  8
LINES
 10
31.2
 20
30.9
 30
0.0
 11
31.3
 21
30.8
 31
0.0
  0
LINE
 62
7
  8
LINES
 10
31.3
 20
30.8
 30
0.0
 11
31.4
 21
30.7
 31
0.0
  0
LINE
 62
7
  8
LINES
 10
31.5
 20
30.7
 30
0.0
 11
31.6
 21
30.6
 31
0.0
  0
LINE
 62
7
  8
LINES
 10
31.7
 20
30.6
 30
0.0
 11
31.8
 21
30.5
 31
0.0
  0
LINE
 62
7
  8
LINES
 10
31.8
 20
30.5
 30
0.0
 11
31.9
 21
30.4
 31
0.0
  0
LINE
 62
7
  8
LINES
 10
32.0
 20
30.4
 30
0.0
 11
32.1
 21
30.3
 31
0.0
  0
LINE
 62
7
  8
LINES
 10
32.2
 20
30.3
 30
0.0
 11
32.3
 21
30.2
 31
0.0
  0
LINE
 62
7
  8
LINES
 10
32.3
 20
30.2
 30
0.0
 11
32.4
 21
30.1
 31
0.0
  0
LINE
 62
7
  8
LINES
 10
32.5
 20
30.0
 30
0.0
 11
32.6
 21
30.0
 31
0.0
  0
LINE
 62
7
  8
LINES
 10
32.7
 20
29.9
 30
0.0
 11
32.7
 21
29.9
 31
0.0
  0
LINE
 62
7
  8
LINES
 10
32.8
 20
29.8
 30
0.0
 11
32.9
 21
29.8
 31
0.0
  0
LINE
 62
7
  8
LINES
 10
33.0
 20
29.7
 30
0.0
 11
33.1
 21
29.7
 31
0.0
  0
LINE
 62
7
  8
LINES
 10
33.2
 20
29.6
 30
0.0
 11
33.3
 21
29.6
 31
0.0
  0
LINE
 62
7
  8
LINES
 10
33.3
 20
29.6
 30
0.0
 11
33.4
 21
29.5
 31
0.0
  0
LINE
 62
7
  8
LINES
 10
33.5
 20
29.5
 30
0.0
 11
33.6
 21
29.4
 31
0.0
  0
LINE
 62
7
  8
LINES
 10
33.7
 20
29.4
 30
0.0
 11
33.8
 21
29.3
 31
0.0
  0
LINE
 62
7
  8
LINES
 10
33.8
 20
29.3
 30
0.0
 11
33.9
 21
29.2
 31
0.0
  0
LINE
 62
7
  8
LINES
 10
34.0
 20
29.2
 30
0.0
 11
34.1
 21
29.1
 31
0.0
  0
LINE
 62
7
  8
LINES
 10
34.2
 20
29.1
 30
0.0
 11
34.3
 21
29.0
 31
0.0
  0
LINE
 62
7
  8
LINES
 10
34.3
 20
29.0
 30
0.0
 11
34.4
 21
28.9
 31
0.0
  0
LINE
 62
7
  8
LINES
 10
34.5
 20
28.9
 30
0.0
 11
34.6
 21
28.8
 31
0.0
  0
LINE
 62
7
  8
LINES
 10
34.7
 20
28.8
 30
0.0
 11
34.8
 21
28.7
 31
0.0
  0
LINE
 62
7
  8
LINES
 10
34.8
 20
28.7
 30
0.0
 11
34.9
 21
28.7
 31
0.0
  0
LINE
 62
7
  8
LINES
 10
35.0
 20
28.6
 30
0.0
 11
35.1
 21
28.6
 31
0.0
  0
LINE
 62
7
  8
LINES
 10
35.2
 20
28.6
 30
0.0
 11
35.3
 21
28.5
 31
0.0
  0
LINE
 62
7
  8
LINES
 10
35.4
 20
28.5
 30
0.0
 11
35.4
 21
28.5
 31
0.0
  0
LINE
 62
7
  8
LINES
 10
35.5
 20
28.4
 30
0.0
 11
35.6
 21
28.4
 31
0.0
  0
LINE
 62
7
  8
LINES
 10
35.7
 20
28.3
 30
0.0
 11
35.8
 21
28.3
 31
0.0
  0
LINE
 62
7
  8
LINES
 10
35.9
 20
28.2
 30
0.0
 11
35.9
 21
28.2
 31
0.0
  0
LINE
 62
7
  8
LINES
 10
36.0
 20
28.1
 30
0.0
 11
36.1
 21
28.1
 31
0.0
  0
LINE
 62
7
  8
LINES
 10
36.2
 20
28.0
 30
0.0
 11
36.3
 21
28.0
 31
0.0
  0
LINE
 62
7
  8
LINES
 10
36.4
 20
27.9
 30
0.0
 11
36.5
 21
27.9
 31
0.0
  0
LINE
 62
7
  8
LINES
 10
36.5
 20
27.9
 30
0.0
 11
36.6
 21
27.9
 31
0.0
  0
LINE
 62
7
  8
LINES
 10
36.7
 20
27.8
 30
0.0
 11
36.8
 21
27.8
 31
0.0
  0
LINE
 62
7
  8
LINES
 10
36.9
 20
27.7
 30
0.0
 11
37.0
 21
27.7
 31
0.0
  0
LINE
 62
7
  8
LINES
 10
37.0
 20
27.7
 30
0.0
 11
37.1
 21
27.7
 31
0.0
  0
LINE
 62
7
  8
LINES
 10
37.2
 20
27.6
 30
0.0
 11
37.3
 21
27.6
 31
0.0
  0
LINE
 62
7
  8
LINES
 10
37.4
 20
27.6
 30
0.0
 11
37.5
 21
27.5
 31
0.0
  0
LINE
 62
7
  8
LINES
 10
37.6
 20
27.5
 30
0.0
 11
37.6
 21
27.5
 31
0.0
  0
LINE
 62
7
  8
LINES
 10
37.7
 20
27.4
 30
0.0
 11
37.8
 21
27.4
 31
0.0
  0
LINE
 62
7
  8
LINES
 10
37.9
 20
27.3
 30
0.0
 11
38.0
 21
27.3
 31
0.0
  0
LINE
 62
7
  8
LINES
 10
38.1
 20
27.2
 30
0.0
 11
38.2
 21
27.2
 31
0.0
  0
LINE
 62
7
  8
LINES
 10
38.2
 20
27.2
 30
0.0
 11
38.3
 21
27.2
 31
0.0
  0
LINE
 62
7
  8
LINES
 10
38.4
 20
27.1
 30
0.0
 11
38.5
 21
27.1
 31
0.0
  0
LINE
 62
7
  8
LINES
 10
38.6
 20
27.1
 30
0.0
 11
38.7
 21
27.0
 31
0.0
  0
LINE
 62
7
  8
LINES
 10
38.8
 20
27.0
 30
0.0
 11
38.8
 21
27.0
 31
0.0
  0
LINE
 62
7
  8
LINES
 10
38.9
 20
27.0
 30
0.0
 11
39.0
 21
26.9
 31
0.0
  0
LINE
 62
7
  8
LINES
 10
39.1
 20
26.9
 30
0.0
 11
39.2
 21
26.9
 31
0.0
  0
LINE
 62
7
  8
LINES
 10
39.3
 20
26.8
 30
0.0
 11
39.4
 21
26.8
 31
0.0
  0
LINE
 62
7
  8
LINES
 10
39.4
 20
26.8
 30
0.0
 11
39.5
 21
26.8
 31
0.0
  0
LINE
 62
7
  8
LINES
 10
39.6
 20
26.7
 30
0.0
 11
39.7
 21
26.7
 31
0.0
  0
LINE
 62
7
  8
LINES
 10
39.8
 20
26.7
 30
0.0
 11
39.9
 21
26.6
 31
0.0
  0
LINE
 62
7
  8
LINES
 10
40.0
 20
26.6
 30
0.0
 11
40.0
 21
26.6
 31
0.0
  0
LINE
 62
7
  8
LINES
 10
40.1
 20
26.6
 30
0.0
 11
40.2
 21
26.5
 31
0.0
  0
LINE
 62
7
  8
LINES
 10
40.3
 20
26.5
 30
0.0
 11
40.4
 21
26.5
 31
0.0
  0
LINE
 62
7
  8
LINES
 10
40.5
 20
26.4
 30
0.0
 11
40.6
 21
26.4
 31
0.0
  0
LINE
 62
7
  8
LINES
 10
40.6
 20
26.4
 30
0.0
 11
40.7
 21
26.4
 31
0.0
  0
LINE
 62
7
  8
LINES
 10
40.8
 20
26.3
 30
0.0
 11
40.9
 21
26.3
 31
0.0
  0
LINE
 62
7
  8
LINES
 10
41.0
 20
26.3
 30
0.0
 11
41.1
 21
26.2
 31
0.0
  0
LINE
 62
7
  8
LINES
 10
41.2
 20
26.2
 30
0.0
 11
41.2
 21
26.2
 31
0.0
  0
LINE
 62
7
  8
LINES
 10
41.3
 20
26.2
 30
0.0
 11
41.4
 21
26.1
 31
0.0
  0
LINE
 62
7
  8
LINES
 10
41.5
 20
26.1
 30
0.0
 11
41.6
 21
26.1
 31
0.0
  0
LINE
 62
7
  8
LINES
 10
41.7
 20
26.1
 30
0.0
 11
41.8
 21
26.0
 31
0.0
  0
LINE
 62
7
  8
LINES
 10
41.9
 20
26.0
 30
0.0
 11
41.9
 21
26.0
 31
0.0
  0
LINE
 62
7
  8
LINES
 10
42.0
 20
26.0
 30
0.0
 11
42.1
 21
26.0
 31
0.0
  0
LINE
 62
7
  8
LINES
 10
42.2
 20
25.9
 30
0.0
 11
42.3
 21
25.9
 31
0.0
  0
LINE
 62
7
  8
LINES
 10
42.4
 20
25.9
 30
0.0
 11
42.5
 21
25.9
 31
0.0
  0
LINE
 62
7
  8
LINES
 10
42.5
 20
25.9
 30
0.0
 11
42.6
 21
25.9
 31
0.0
  0
LINE
 62
7
  8
LINES
 10
42.7
 20
25.8
 30
0.0
 11
42.8
 21
25.8
 31
0.0
  0
LINE
 62
7
  8
LINES
 10
42.9
 20
25.8
 30
0.0
 11
43.0
 21
25.8
 31
0.0
  0
LINE
 62
7
  8
LINES
 10
43.1
 20
25.7
 30
0.0
 11
43.2
 21
25.7
 31
0.0
  0
LINE
 62
7
  8
LINES
 10
43.2
 20
25.7
 30
0.0
 11
43.3
 21
25.7
 31
0.0
  0
LINE
 62
7
  8
LINES
 10
43.4
 20
25.6
 30
0.0
 11
43.5
 21
25.6
 31
0.0
  0
LINE
 62
7
  8
LINES
 10
43.6
 20
25.6
 30
0.0
 11
43.7
 21
25.5
 31
0.0
  0
LINE
 62
7
  8
LINES
 10
43.8
 20
25.5
 30
0.0
 11
43.8
 21
25.5
 31
0.0
  0
LINE
 62
7
  8
LINES
 10
43.9
 20
25.5
 30
0.0
 11
44.0
 21
25.5
 31
0.0
  0
LINE
 62
7
  8
LINES
 10
44.1
 20
25.5
 30
0.0
 11
44.2
 21
25.4
 31
0.0
  0
LINE
 62
7
  8
LINES
 10
44.3
 20
25.4
 30
0.0
 11
44.4
 21
25.4
 31
0.0
  0
LINE
 62
7
  8
LINES
 10
44.5
 20
25.4
 30
0.0
 11
44.5
 21
25.4
 31
0.0
  0
LINE
 62
7
  8
LINES
 10
44.6
 20
25.4
 30
0.0
 11
44.7
 21
25.4
 31
0.0
  0
LINE
 62
7
  8
LINES
 10
44.8
 20
25.4
 30
0.0
 11
44.9
 21
25.3
 31
0.0
  0
LINE
 62
7
  8
LINES
 10
45.0
 20
25.3
 30
0.0
 11
45.1
 21
25.3
 31
0.0
  0
LINE
 62
7
  8
LINES
 10
45.2
 20
25.3
 30
0.0
 11
45.2
 21
25.3
 31
0.0
  0
LINE
 62
7
  8
LINES
 10
45.3
 20
25.3
 30
0.0
 11
45.4
 21
25.2
 31
0.0
  0
LINE
 62
7
  8
LINES
 10
45.5
 20
25.2
 30
0.0
 11
45.6
 21
25.2
 31
0.0
  0
LINE
 62
7
  8
LINES
 10
45.7
 20
25.2
 30
0.0
 11
45.8
 21
25.1
 31
0.0
  0
LINE
 62
7
  8
LINES
 10
45.9
 20
25.1
 30
0.0
 11
45.9
 21
25.1
 31
0.0
  0
LINE
 62
7
  8
LINES
 10
46.0
 20
25.1
 30
0.0
 11
46.1
 21
25.1
 31
0.0
  0
LINE
 62
7
  8
LINES
 10
46.2
 20
25.1
 30
0.0
 11
46.3
 21
25.0
 31
0.0
  0
LINE
 62
7
  8
LINES
 10
46.4
 20
25.0
 30
0.0
 11
46.5
 21
25.0
 31
0.0
  0
LINE
 62
7
  8
LINES
 10
46.6
 20
25.0
 30
0.0
 11
46.6
 21
25.0
 31
0.0
  0
LINE
 62
7
  8
LINES
 10
46.7
 20
25.0
 30
0.0
 11
46.8
 21
25.0
 31
0.0
  0
LINE
 62
7
  8
LINES
 10
46.9
 20
25.0
 30
0.0
 11
47.0
 21
24.9
 31
0.0
  0
LINE
 62
7
  8
LINES
 10
47.1
 20
24.9
 30
0.0
 11
47.2
 21
24.9
 31
0.0
  0
LINE
 62
7
  8
LINES
 10
47.3
 20
24.9
 30
0.0
 11
47.3
 21
24.9
 31
0.0
  0
LINE
 62
7
  8
LINES
 10
47.4
 20
24.9
 30
0.0
 11
47.5
 21
24.9
 31
0.0
  0
LINE
 62
7
  8
LINES
 10
47.6
 20
24.9
 30
0.0
 11
47.7
 21
24.8
 31
0.0
  0
LINE
 62
7
  8
LINES
 10
47.8
 20
24.8
 30
0.0
 11
47.9
 21
24.8
 31
0.0
  0
LINE
 62
7
  8
LINES
 10
48.0
 20
24.8
 30
0.0
 11
48.0
 21
24.8
 31
0.0
  0
LINE
 62
7
  8
LINES
 10
48.1
 20
24.8
 30
0.0
 11
48.2
 21
24.8
 31
0.0
  0
LINE
 62
7
  8
LINES
 10
48.3
 20
24.8
 30
0.0
 11
48.4
 21
24.7
 31
0.0
  0
LINE
 62
7
  8
LINES
 10
48.5
 20
24.7
 30
0.0
 11
48.6
 21
24.7
 31
0.0
  0
LINE
 62
7
  8
LINES
 10
48.7
 20
24.7
 30
0.0
 11
48.7
 21
24.7
 31
0.0
  0
LINE
 62
7
  8
LINES
 10
48.8
 20
24.7
 30
0.0
 11
48.9
 21
24.7
 31
0.0
  0
LINE
 62
7
  8
LINES
 10
49.0
 20
24.7
 30
0.0
 11
49.1
 21
24.6
 31
0.0
  0
LINE
 62
7
  8
LINES
 10
49.2
 20
24.6
 30
0.0
 11
49.3
 21
24.6
 31
0.0
  0
LINE
 62
7
  8
LINES
 10
49.4
 20
24.6
 30
0.0
 11
49.4
 21
24.6
 31
0.0
  0
LINE
 62
7
  8
LINES
 10
49.5
 20
24.6
 30
0.0
 11
49.6
 21
24.6
 31
0.0
  0
LINE
 62
7
  8
LINES
 10
49.7
 20
24.6
 30
0.0
 11
49.8
 21
24.5
 31
0.0
  0
LINE
 62
7
  8
LINES
 10
49.9
 20
24.5
 30
0.0
 11
50.0
 21
24.5
 31
0.0
  0
LINE
 62
7
  8
LINES
 10
50.1
 20
24.5
 30
0.0
 11
50.2
 21
24.5
 31
0.0
  0
LINE
 62
7
  8
LINES
 10
50.2
 20
24.5
 30
0.0
 11
50.3
 21
24.5
 31
0.0
  0
LINE
 62
7
  8
LINES
 10
50.4
 20
24.5
 30
0.0
 11
50.5
 21
24.5
 31
0.0
  0
LINE
 62
7
  8
LINES
 10
50.6
 20
24.5
 30
0.0
 11
50.7
 21
24.5
 31
0.0
  0
LINE
 62
7
  8
LINES
 10
50.8
 20
24.5
 30
0.0
 11
50.9
 21
24.5
 31
0.0
  0
LINE
 62
7
  8
LINES
 10
50.9
 20
24.5
 30
0.0
 11
51.0
 21
24.5
 31
0.0
  0
LINE
 62
7
  8
LINES
 10
51.1
 20
24.5
 30
0.0
 11
51.2
 21
24.5
 31
0.0
  0
LINE
 62
7
  8
LINES
 10
51.3
 20
24.4
 30
0.0
 11
51.4
 21
24.4
 31
0.0
  0
LINE
 62
7
  8
LINES
 10
51.5
 20
24.4
 30
0.0
 11
51.6
 21
24.4
 31
0.0
  0
LINE
 62
7
  8
LINES
 10
51.7
 20
24.4
 30
0.0
 11
51.7
 21
24.4
 31
0.0
  0
LINE
 62
7
  8
LINES
 10
51.8
 20
24.4
 30
0.0
 11
51.9
 21
24.4
 31
0.0
  0
LINE
 62
7
  8
LINES
 10
52.0
 20
24.4
 30
0.0
 11
52.1
 21
24.4
 31
0.0
  0
LINE
 62
7
  8
LINES
 10
52.2
 20
24.4
 30
0.0
 11
52.3
 21
24.4
 31
0.0
  0
LINE
 62
7
  8
LINES
 10
52.4
 20
24.4
 30
0.0
 11
52.5
 21
24.4
 31
0.0
  0
ENDSEC
  0
EOF
